<svg id="Layer_1" data-name="Layer 1" xmlns="http://www.w3.org/2000/svg" xmlns:xlink="http://www.w3.org/1999/xlink" viewBox="0 0 543.98 544.06"><defs><style>.cls-1{fill:url(#linear-gradient);}.cls-2{fill:url(#linear-gradient-2);}.cls-3{fill:url(#linear-gradient-3);}.cls-4{fill:url(#linear-gradient-4);}.cls-5{fill:url(#linear-gradient-5);}.cls-6{fill:url(#linear-gradient-6);}.cls-7{fill:url(#linear-gradient-7);}.cls-8{fill:url(#linear-gradient-8);}.cls-9{fill:url(#linear-gradient-9);}.cls-10{fill:url(#linear-gradient-10);}.cls-11{fill:url(#linear-gradient-11);}.cls-12{fill:url(#linear-gradient-12);}.cls-13{fill:url(#linear-gradient-13);}.cls-14{fill:url(#linear-gradient-14);}.cls-15{fill:url(#linear-gradient-15);}.cls-16{fill:url(#linear-gradient-16);}.cls-17{fill:url(#linear-gradient-17);}.cls-18{fill:url(#linear-gradient-18);}.cls-19{fill:url(#linear-gradient-19);}.cls-20{fill:url(#linear-gradient-20);}.cls-21{fill:url(#linear-gradient-21);}.cls-22{fill:url(#linear-gradient-22);}.cls-23{fill:url(#linear-gradient-23);}.cls-24{fill:url(#linear-gradient-24);}.cls-25{fill:url(#linear-gradient-25);}.cls-26{fill:url(#linear-gradient-26);}.cls-27{fill:url(#linear-gradient-27);}.cls-28{fill:url(#linear-gradient-28);}.cls-29{fill:url(#linear-gradient-29);}.cls-30{fill:url(#linear-gradient-30);}.cls-31{fill:url(#linear-gradient-31);}.cls-32{fill:url(#linear-gradient-32);}.cls-33{fill:url(#linear-gradient-33);}.cls-34{fill:url(#linear-gradient-34);}.cls-35{fill:url(#linear-gradient-35);}.cls-36{fill:url(#linear-gradient-36);}.cls-37{fill:url(#linear-gradient-37);}.cls-38{fill:url(#linear-gradient-38);}.cls-39{fill:url(#linear-gradient-39);}.cls-40{fill:url(#linear-gradient-40);}.cls-41{fill:url(#linear-gradient-41);}.cls-42{fill:url(#linear-gradient-42);}.cls-43{fill:url(#linear-gradient-43);}.cls-44{fill:url(#linear-gradient-44);}.cls-45{fill:url(#linear-gradient-45);}.cls-46{fill:url(#linear-gradient-46);}.cls-47{fill:url(#linear-gradient-47);}.cls-48{fill:url(#linear-gradient-48);}.cls-49{fill:url(#linear-gradient-49);}.cls-50{fill:url(#linear-gradient-50);}.cls-51{fill:url(#linear-gradient-51);}.cls-52{fill:url(#linear-gradient-52);}.cls-53{fill:url(#linear-gradient-53);}.cls-54{fill:url(#linear-gradient-54);}.cls-55{fill:url(#linear-gradient-55);}.cls-56{fill:url(#linear-gradient-56);}.cls-57{fill:#47bde8;}.cls-58{fill:#e9e858;}.cls-59{fill:#afd35f;}.cls-60{fill:#fff;}</style><linearGradient id="linear-gradient" x1="282.42" y1="221.34" x2="549.9" y2="530.97" gradientTransform="matrix(1, 0, 0, -1, -30, 500)" gradientUnits="userSpaceOnUse"><stop offset="0" stop-color="#704a9d"/><stop offset="0.69" stop-color="#b42f7d"/><stop offset="1" stop-color="#cb1a71"/></linearGradient><linearGradient id="linear-gradient-2" x1="300.63" y1="205.61" x2="568.04" y2="515.15" gradientTransform="matrix(1, 0, 0, -1, -30, 500)" gradientUnits="userSpaceOnUse"><stop offset="0" stop-color="#8160a7"/><stop offset="0.65" stop-color="#b9558d"/><stop offset="1" stop-color="#d24b81"/></linearGradient><linearGradient id="linear-gradient-3" x1="324.93" y1="184.62" x2="592.34" y2="494.16" xlink:href="#linear-gradient-2"/><linearGradient id="linear-gradient-4" x1="271.84" y1="230.48" x2="539.25" y2="540.03" xlink:href="#linear-gradient-2"/><linearGradient id="linear-gradient-5" x1="248.27" y1="250.84" x2="515.68" y2="560.38" xlink:href="#linear-gradient-2"/><linearGradient id="linear-gradient-6" x1="379.9" y1="137.13" x2="647.31" y2="446.67" xlink:href="#linear-gradient-2"/><linearGradient id="linear-gradient-7" x1="334.8" y1="176.09" x2="602.21" y2="485.63" xlink:href="#linear-gradient-2"/><linearGradient id="linear-gradient-8" x1="200.66" y1="291.97" x2="468.07" y2="601.51" xlink:href="#linear-gradient-2"/><linearGradient id="linear-gradient-9" x1="224.55" y1="271.33" x2="491.96" y2="580.88" xlink:href="#linear-gradient-2"/><linearGradient id="linear-gradient-10" x1="193.16" y1="298.52" x2="460.56" y2="608.05" xlink:href="#linear-gradient-2"/><linearGradient id="linear-gradient-11" x1="406.12" y1="114.48" x2="673.53" y2="424.02" xlink:href="#linear-gradient-2"/><linearGradient id="linear-gradient-12" x1="392.75" y1="126.03" x2="660.16" y2="435.57" xlink:href="#linear-gradient-2"/><linearGradient id="linear-gradient-13" x1="271.55" y1="230.73" x2="538.96" y2="540.27" xlink:href="#linear-gradient-2"/><linearGradient id="linear-gradient-14" x1="400.07" y1="119.7" x2="667.48" y2="429.25" xlink:href="#linear-gradient-2"/><linearGradient id="linear-gradient-15" x1="158.43" y1="328.45" x2="425.84" y2="638" xlink:href="#linear-gradient-2"/><linearGradient id="linear-gradient-16" x1="414.21" y1="107.49" x2="681.62" y2="417.03" xlink:href="#linear-gradient-2"/><linearGradient id="linear-gradient-17" x1="422.81" y1="100.05" x2="690.22" y2="409.6" xlink:href="#linear-gradient-2"/><linearGradient id="linear-gradient-18" x1="362.29" y1="152.31" x2="629.7" y2="461.85" xlink:href="#linear-gradient-2"/><linearGradient id="linear-gradient-19" x1="174.34" y1="314.7" x2="441.75" y2="624.25" xlink:href="#linear-gradient-2"/><linearGradient id="linear-gradient-20" x1="159.04" y1="327.93" x2="426.45" y2="637.47" xlink:href="#linear-gradient-2"/><linearGradient id="linear-gradient-21" x1="397.71" y1="121.74" x2="665.12" y2="431.28" xlink:href="#linear-gradient-2"/><linearGradient id="linear-gradient-22" x1="410.67" y1="110.55" x2="678.08" y2="420.09" xlink:href="#linear-gradient-2"/><linearGradient id="linear-gradient-23" x1="204.49" y1="288.66" x2="471.9" y2="598.21" xlink:href="#linear-gradient-2"/><linearGradient id="linear-gradient-24" x1="154.67" y1="331.7" x2="422.08" y2="641.24" xlink:href="#linear-gradient-2"/><linearGradient id="linear-gradient-25" x1="383.01" y1="134.44" x2="650.42" y2="443.98" xlink:href="#linear-gradient-2"/><linearGradient id="linear-gradient-26" x1="176.21" y1="313.09" x2="443.62" y2="622.63" xlink:href="#linear-gradient-2"/><linearGradient id="linear-gradient-27" x1="174" y1="315" x2="441.41" y2="624.54" xlink:href="#linear-gradient-2"/><linearGradient id="linear-gradient-28" x1="396.73" y1="122.59" x2="664.14" y2="432.13" xlink:href="#linear-gradient-2"/><linearGradient id="linear-gradient-29" x1="433.83" y1="90.53" x2="701.24" y2="400.08" xlink:href="#linear-gradient-2"/><linearGradient id="linear-gradient-30" x1="247.65" y1="251.38" x2="515.05" y2="560.92" xlink:href="#linear-gradient-2"/><linearGradient id="linear-gradient-31" x1="377.66" y1="139.06" x2="645.07" y2="448.61" xlink:href="#linear-gradient-2"/><linearGradient id="linear-gradient-32" x1="145.45" y1="339.66" x2="412.86" y2="649.21" xlink:href="#linear-gradient-2"/><linearGradient id="linear-gradient-33" x1="416.41" y1="105.58" x2="683.82" y2="415.13" xlink:href="#linear-gradient-2"/><linearGradient id="linear-gradient-34" x1="302.78" y1="203.75" x2="570.19" y2="513.29" xlink:href="#linear-gradient-2"/><linearGradient id="linear-gradient-35" x1="189.96" y1="301.21" x2="457.37" y2="610.76" xlink:href="#linear-gradient-2"/><linearGradient id="linear-gradient-36" x1="160.68" y1="326.51" x2="428.09" y2="636.05" xlink:href="#linear-gradient-2"/><linearGradient id="linear-gradient-37" x1="188.95" y1="302.08" x2="456.37" y2="611.63" xlink:href="#linear-gradient-2"/><linearGradient id="linear-gradient-38" x1="317.9" y1="190.69" x2="585.31" y2="500.23" xlink:href="#linear-gradient-2"/><linearGradient id="linear-gradient-39" x1="407.19" y1="113.56" x2="674.6" y2="423.1" xlink:href="#linear-gradient-2"/><linearGradient id="linear-gradient-40" x1="357.25" y1="156.69" x2="624.67" y2="466.24" xlink:href="#linear-gradient-2"/><linearGradient id="linear-gradient-41" x1="220.72" y1="274.64" x2="488.13" y2="584.18" xlink:href="#linear-gradient-2"/><linearGradient id="linear-gradient-42" x1="224.6" y1="271.29" x2="492.01" y2="580.83" xlink:href="#linear-gradient-2"/><linearGradient id="linear-gradient-43" x1="271.59" y1="230.69" x2="539" y2="540.24" xlink:href="#linear-gradient-2"/><linearGradient id="linear-gradient-44" x1="399.24" y1="120.42" x2="666.65" y2="429.97" xlink:href="#linear-gradient-2"/><linearGradient id="linear-gradient-45" x1="362.32" y1="152.31" x2="629.73" y2="461.86" xlink:href="#linear-gradient-2"/><linearGradient id="linear-gradient-46" x1="204.86" y1="288.34" x2="472.27" y2="597.89" xlink:href="#linear-gradient-2"/><linearGradient id="linear-gradient-47" x1="392.15" y1="126.54" x2="659.56" y2="436.09" xlink:href="#linear-gradient-2"/><linearGradient id="linear-gradient-48" x1="173.74" y1="315.23" x2="441.15" y2="624.77" xlink:href="#linear-gradient-2"/><linearGradient id="linear-gradient-49" x1="364.26" y1="150.64" x2="631.67" y2="460.18" xlink:href="#linear-gradient-2"/><linearGradient id="linear-gradient-50" x1="155.28" y1="331.17" x2="422.69" y2="640.72" xlink:href="#linear-gradient-2"/><linearGradient id="linear-gradient-51" x1="308.41" y1="198.89" x2="575.82" y2="508.43" xlink:href="#linear-gradient-2"/><linearGradient id="linear-gradient-52" x1="244.28" y1="254.29" x2="511.69" y2="563.83" xlink:href="#linear-gradient-2"/><linearGradient id="linear-gradient-53" x1="185.75" y1="304.85" x2="453.16" y2="614.39" xlink:href="#linear-gradient-2"/><linearGradient id="linear-gradient-54" x1="188.97" y1="302.07" x2="456.38" y2="611.61" xlink:href="#linear-gradient-2"/><linearGradient id="linear-gradient-55" x1="317.92" y1="190.67" x2="585.33" y2="500.21" xlink:href="#linear-gradient-2"/><linearGradient id="linear-gradient-56" x1="407.23" y1="113.51" x2="674.65" y2="423.06" xlink:href="#linear-gradient-2"/></defs><path class="cls-1" d="M575.35,132.64a8.69,8.69,0,0,1,.35,10.79C578.12,140.63,578,135.36,575.35,132.64ZM437.23,288.88l-.11.14Zm63.83-76.18a8.33,8.33,0,0,1,.87,10.94A8.36,8.36,0,0,0,501.06,212.7Zm62.78-79.48a7.94,7.94,0,0,0,.62,10.65A7.89,7.89,0,0,1,563.84,133.22ZM490,213.53l-.07.08ZM612.84,56.33c2.88,2.48,3.35,8,.89,11C616.15,64.28,615.7,58.8,612.84,56.33ZM465.91,196.86l.07.06ZM376.86,296.1l.08.06c2.9,2.58,3.23,8.13.68,11.09,2.57-3,2.22-8.51-.68-11.09Zm-10.22,11.75a7.91,7.91,0,0,0,11-.58l0,0,0,0A7.89,7.89,0,0,1,366.64,307.85Zm88.29-110.16a7.84,7.84,0,0,0,.83,10.84A7.82,7.82,0,0,1,454.93,197.69ZM365.72,297a7.85,7.85,0,0,0,.9,10.79A7.83,7.83,0,0,1,365.72,297ZM493.4,139a8.27,8.27,0,0,0,.89,10.92A8.22,8.22,0,0,1,493.4,139ZM572.21,14.73a8.49,8.49,0,0,1,1.09,11C575.74,22.64,575.17,17.32,572.21,14.73ZM383.91,186.25l-.07.08Zm54-69.63.06,0Zm-69,5.13c2.82,2.43,3.3,8.17.94,11.1C372.22,129.9,371.73,124.18,368.91,121.75Zm-126.66,63.8-.17.2ZM230.2,175.49l-.12.13ZM361.87,15.28l-.05.05Zm-82.23,75,.13.12c2.89,2.66,3.25,8,.74,10.89,2.51-2.9,2.17-8.24-.74-10.89A.79.79,0,0,0,279.64,90.29ZM442.17-98a7.27,7.27,0,0,1-1.53,3.56A7.11,7.11,0,0,0,442.17-98ZM268.76,91v0ZM428.61-104.47l-.09.1ZM167.18,188.34a8.31,8.31,0,0,1,1,10.91A8.27,8.27,0,0,0,167.18,188.34ZM326-1.87l.16.14c2.83,2.61,3.1,8,.58,11,2.5-2.93,2.23-8.36-.58-11ZM315.43,9.68l.16.14A.31.31,0,0,1,315.43,9.68ZM156.22,189.16l-.11.12ZM357.37-54.1l0,0Zm-82,86.37,0,0ZM265.25,44a8.11,8.11,0,0,0,11-.62A8.13,8.13,0,0,1,265.25,44Zm-.86-10.87A7.85,7.85,0,0,0,265.25,44,7.87,7.87,0,0,1,264.39,33.12ZM198.75,71.79a8,8,0,0,0,.89,10.95A8,8,0,0,1,198.75,71.79ZM470.89,338.63a8.91,8.91,0,0,1-2.63-8.63,9.26,9.26,0,0,1,8.15-7.38,9.45,9.45,0,0,1,6.63,1.94Zm141-163.16h-.31a8.8,8.8,0,0,1-8.3-5.43,8.51,8.51,0,0,1,1.4-9.66l.07-.08,0,0c4.27-4.93,11-4.64,14.7,1.15a5.29,5.29,0,0,0,2.54,2.33Zm-48.53,56.18c-3.95-3.42-7.91-6.83-11.84-10.27-2.1-1.81-3.67-1.93-6.14-.93a8.81,8.81,0,0,1-10.65-3.73c-2.33-3.68-2-7.71,1-11.11l.1-.12A8.46,8.46,0,0,1,546,203.13c4.22,1.72,6.68,6,5.4,10.29-1,3.21.24,4.66,2.4,6.52l11.21,9.69ZM372.62,382.5l-2.44-2.11c.36-.14.71-.27,1.09-.39a10.49,10.49,0,0,1,11.44,3.22,10.89,10.89,0,0,1,2.18,8.31A28.7,28.7,0,0,1,382.2,390a37.77,37.77,0,0,1-5.39-3.9Zm135.77-87.28L493.05,282c-2.51-2.16-3.88-4.37-3.92-7.73a110.73,110.73,0,0,0-1-13.49,5.56,5.56,0,0,0-2.63-3.61c-4.51-2.25-6.88-6-6.08-10.41a9.47,9.47,0,0,1,2.16-4.49,9.16,9.16,0,0,1,6.23-3.2,9.69,9.69,0,0,1,9.53,6.25,8.82,8.82,0,0,1-1.87,9.09,14.44,14.44,0,0,1-2.42,2.21,1.94,1.94,0,0,0-.41.4,13.81,13.81,0,0,0-1.6,3.27c-.16.34.1.87.06,1.28-1.08,11.54,3.68,19.55,13,26.7,2.08,1.59,4.1,3.21,6.13,4.86Zm-60.85,70.44q-2.07-28.17-4.12-56.36c-.11-1.46,0-2.9.08-4.68-5.53-.68-9-2.88-10.39-7.68a9.88,9.88,0,0,1,2.06-9.71c.2-.23.42-.48.66-.72,3.11-3.13,6.84-3.73,10.88-2.46,4.2,1.3,6.38,4.55,6.8,8.74.28,2.88-.13,5.77-1.87,7.78a7.22,7.22,0,0,1-2.58,1.88,5.74,5.74,0,0,0-2.06,1.4c-1.13,1.31-1,2.93-.8,4.88q2,27,4,53.94l-2.6,3ZM577.61,145.42a10.37,10.37,0,0,1-9.64,3.16,10.42,10.42,0,0,1-1.37-20.25c4.74-1.49,9.95.11,12,4.48,1.46,3.1,3.36,3.24,6.17,3q32.67-2.44,65.35-4.79c-.55.72-1.12,1.46-1.73,2.16l-.67.78q-31.89,2.31-63.76,4.6a4.55,4.55,0,0,0-3.41,1.33,6.1,6.1,0,0,0-1.08,2.17A9.79,9.79,0,0,1,577.61,145.42ZM539.82,258.83Q522.92,244.22,506,229.6c-1.8-1.56-3.17-2.78-6-1.43a10,10,0,0,1-12.75-3.57,10.78,10.78,0,0,1,.71-12.92,3.24,3.24,0,0,1,.36-.38,11,11,0,0,1,12.9-1.84c4.22,2.28,6.07,7.26,4.67,12.44-.26,1-.61,1.9-1,3.18l3.56,3.08,33.18,28.66ZM431.76,272.91c1.42-1.65,2.2-3,1.14-5.52a8.47,8.47,0,0,1,1.5-9,11.51,11.51,0,0,1,2.31-2c3.5-2.27,7.82-1.73,11.18,1.42A9.05,9.05,0,0,1,449.64,269a9,9,0,0,1-10.49,4.19c-2.71-.94-4.06-.09-5.6,1.69l-.24.28c-.86,1-1.73,2.05-2.6,3.05s-1.92,2.23-2.91,3.33-1.95,2.21-2.91,3.33c-1.86,2.15-3.72,4.34-5.46,6.6a11.1,11.1,0,0,0-2.33,6.93q3.25,45.9,6.61,91.82a29.69,29.69,0,0,1-2.72,1.48q-3.45-47.22-6.82-94.46a9.75,9.75,0,0,1,2-6.2c2.34-2.9,4.75-5.77,7.18-8.59,2.71-3.13,5.45-6.23,8.18-9.31Zm-75.87,87.82c1.76-2,3-3.67,1.28-6.82-1.67-3-.82-6.45,1.44-9.08a12.63,12.63,0,0,1,1.86-1.71,9.3,9.3,0,0,1,13.83,11.3,9.94,9.94,0,0,1-1.64,2.65,7.9,7.9,0,0,1-7.79,2.8c-3.49-.82-5.23.55-7.26,2.9l-.05.06-3.29,3.81-2-1.72,3.4-3.94ZM544.46,149.09a9,9,0,0,1-2.19,1.86A9.38,9.38,0,0,1,529,138.83a10.35,10.35,0,0,1,1.34-2,8.74,8.74,0,0,1,9.33-2.7c2.65.78,3.86-.19,5.28-1.83l.17-.2c1.15-1.37,2.31-2.72,3.48-4.07l3.47-4,3.45-4q3.36-3.92,6.67-7.84l.2-.24a9.49,9.49,0,0,1,7.13-3.54q44.12-3.17,88.26-6.38c.1.91.19,1.84.23,2.74l-86.86,6.3a10.06,10.06,0,0,0-7.54,3.58l-.23.27c-2.48,3-5,6-7.56,9-3,3.43-6,6.84-9,10.23l-.11.12c-1.42,1.64-1.85,3-.9,5.23A9,9,0,0,1,544.46,149.09ZM395.84,395.24q-3.91-53.16-7.9-106.32a14.72,14.72,0,0,1,3.85-11.81l.24-.28c5.83-6.55,11.6-13.19,17.33-19.82,3-3.43,5.9-6.83,8.84-10.27s5.9-6.87,8.86-10.3c.83-1,1.66-1.91,2.48-2.87,1.07-1.24,2.29-2.33,3.44-3.5l1.43,1a36.73,36.73,0,0,1-2.63,3.92c-6.75,7.84-13.45,15.72-20.21,23.55q-8.15,9.44-16.44,18.72c-.11.11-.21.23-.31.35-3.41,3.95-4.34,7.8-3.95,12.92q4,52.5,7.8,105A24.88,24.88,0,0,1,395.84,395.24ZM499.07,174.85a8.67,8.67,0,0,1-7.12,2.74,8.78,8.78,0,0,1-8.2-5.55c-1.46-3.41-1-6.63,2.13-10.29l.29-.34c3.31-3.8,10-3.59,13.69,2,1.63,2.46,3.24,2.69,5.7,2.5,21.07-1.6,42.14-3,63.2-4.71a9.36,9.36,0,0,1,7.47,2.52q13.1,11.35,26.21,22.67l-1.84,2.14q-12.66-10.94-25.28-21.9a9.75,9.75,0,0,0-7.85-2.55c-20.48,1.62-41,3.09-61.47,4.53-1.82.13-3.28.31-4.31,1.5a5.84,5.84,0,0,0-1.08,2.08A8.33,8.33,0,0,1,499.07,174.85Zm-7.81,140.2c-7.08-6.12-14.21-12.24-21.31-18.34a10.26,10.26,0,0,1-3.83-7.79c-1.66-25-3.49-50-5.29-75.19-1.27-.35-2.37-.58-3.39-.94a10.48,10.48,0,0,1-7-11.32,10.66,10.66,0,0,1,2.49-5.65,10.42,10.42,0,0,1,17.78,3.64,10.21,10.21,0,0,1-1.71,10,9.67,9.67,0,0,1-3,2.33,5,5,0,0,0-1.6,1.18c-.81.94-.89,2.06-.76,3.57,1.83,24.11,3.48,48.24,5.46,72.33a10.75,10.75,0,0,0,3.57,6.4L493.07,313Zm-130.6-1.47c2.06-2.39,3.47-4.18,1.45-7.73s-1-7.74,1.54-10.64a9.74,9.74,0,0,1,1.94-1.74,11.31,11.31,0,0,1,13.08.5c3.32,2.83,4.44,8.18,2.65,12.44a10.14,10.14,0,0,1-1.64,2.65,9.82,9.82,0,0,1-9.8,3.19c-3.1-.77-4.72.16-6.61,2.35l0,0q-14.76,17.08-29.52,34.21l-2-1.74q14.46-16.74,28.92-33.43S360.63,313.62,360.66,313.58ZM507.47,150.8a10.88,10.88,0,0,1-2.4,2.06,10.53,10.53,0,0,1-14.83-14.08A10.09,10.09,0,0,1,502.19,134c3.47,1.33,5.09.16,7.11-2.17l.11-.13C522,117,534.74,102.38,547.35,87.63l.07-.08a9.74,9.74,0,0,1,7.28-3.69q45.24-3.21,90.45-6.53A36,36,0,0,1,647.76,80q-45.84,3.33-91.71,6.61a10.14,10.14,0,0,0-7.6,3.86l-.08.09q-9,10.52-18,20.94-9.84,11.39-19.74,22.73l-.07.08c-1.7,2-2.49,3.56-1.38,6.35A9.86,9.86,0,0,1,507.47,150.8ZM348.91,273.29l64.77-75,3.58-4.15c-4-6.3-4.2-9.74-.83-13.63l.13-.16A9,9,0,0,1,427.25,178a9.31,9.31,0,0,1,5.15,10.53,9.86,9.86,0,0,1-2.16,4.32,7.55,7.55,0,0,1-6.55,2.75c-3.51-.36-5.21,1.25-7.17,3.52l0,0q-54.71,63.38-109.43,126.75L305,324.1Zm235.42-66L569.65,194.6a8.86,8.86,0,0,0-7-2.37c-20.62,1.64-41.24,3-61.89,4.65a9.29,9.29,0,0,1-7.44-2.5c-14.36-12.58-28.85-25-43.25-37.5-1.94-1.67-3.44-2.42-6.08-1.18a8.83,8.83,0,0,1-10.85-3.15,9.39,9.39,0,0,1,.4-11.39l.1-.11a9.46,9.46,0,0,1,11-2.38c4.1,2.06,6.24,6,5,10.52-.71,2.57,0,3.93,1.83,5.56,14.38,12.31,28.64,24.77,43.11,37a10.29,10.29,0,0,0,6.55,2.14c20.79-1.31,41.56-3,62.33-4.29a10.72,10.72,0,0,1,6.92,2.32L586,205.36Zm-204.17-6.13c1.46-1.68,1.49-2.91.47-4.93a10.27,10.27,0,0,1,1.19-11.82,12.17,12.17,0,0,1,1.59-1.53,11.28,11.28,0,0,1,13.06,0c3.58,2.74,4.82,8.7,2.76,13.15a10,10,0,0,1-1.44,2.21,10.1,10.1,0,0,1-10.3,3c-2.82-.73-4.17.19-5.81,2.09l0,0q-13.25,15.38-26.48,30.72-12.72,14.75-25.5,29.45l-.07.07c-1.77,2.06-2.84,3.73-1.7,6.8a8,8,0,0,1-1.71,8,9.83,9.83,0,0,1-3.25,2.45,9.21,9.21,0,0,1-11.35-2.73,9.08,9.08,0,0,1,.49-11.64c2.67-3.06,6.08-4.19,9.81-2.73,2.27.89,3.56.71,5.16-1.15l0,0Q340.51,247,354,231.4q13-15.09,26.13-30.21Zm9.2-52.07,3.43-4c-2.64-4.34-3.83-8.55-.45-12.74l.22-.25a9.25,9.25,0,0,1,16,8.41,10.13,10.13,0,0,1-2,3.87,8.2,8.2,0,0,1-7.81,2.86c-3.15-.63-4.71.58-6.53,2.7l0,0q-26,30.15-52,60.26-28.56,33.06-57.16,66l0,0a9.22,9.22,0,0,0-2.58,7.82c.6,4.76.55,9.61,1.2,14.36a10,10,0,0,1-.53,4.88l-2.48-2.14a11,11,0,0,0,.15-3.66c-.67-6.23-2.57-13.06-.71-18.57a18.88,18.88,0,0,1,3.9-6.33c1.2-1.39,2.53-2.74,3.86-4.08s2.67-2.69,3.87-4.08l0,0,54.17-62.71Zm-37-10.21c2.06-2.39,3.46-4.19,1.67-7.79A9.13,9.13,0,0,1,355.64,121a11.66,11.66,0,0,1,2.38-2.08,11.17,11.17,0,0,1,12.69.74c3.36,2.91,4.45,8.5,2.46,12.86a9.56,9.56,0,0,1-1.5,2.33,9.46,9.46,0,0,1-9.77,3.08c-3.69-1.11-5.45.21-7.63,2.74l0,0q-55.78,64.7-111.69,129.44l-2.11-1.82Q296.39,203.69,352.26,139Zm-28.61-13.68c2-2.29,3.35-4.08,1.4-7.4-1.78-3-.94-6.83,1.31-9.43a9.24,9.24,0,0,1,1.23-1.19,9.12,9.12,0,0,1,11-.4c3.77,2.72,5.2,6.72,3.76,10.67a10.53,10.53,0,0,1-1.87,3.2,8.07,8.07,0,0,1-7.64,2.91c-3.18-.63-4.72.67-6.52,2.77l0,0q-41.52,48.12-83.09,96.22l-23.81,27.56-2.09-1.81,28.56-33.06q38.88-45,77.8-90S323.71,125.25,323.73,125.23Zm-98.3,67.29c2.17-2.5,3.28-4.27,1.22-7.73-2.18-3.62-1.28-7.94,1.41-11A10.55,10.55,0,0,1,230,172a11.21,11.21,0,0,1,13.06.39c3.25,2.73,4.39,8.13,2.67,12.42a10.66,10.66,0,0,1-1.75,2.86,9.13,9.13,0,0,1-8.72,3.13c-3.43-.67-5.26.62-7.3,3l0,0q-15.75,18.28-31.46,36.5l-2.1-1.81q15.53-18,31.08-35.94Zm-42.36,7c1.92-2.23,3-3.94,1.53-7.15a8.09,8.09,0,0,1,1.52-8.77,10,10,0,0,1,2.17-1.88,9.43,9.43,0,0,1,13.56,11.57,9.3,9.3,0,0,1-1.6,2.52,8.11,8.11,0,0,1-8.34,2.81c-3.41-1-4.92.4-6.83,2.61l-.05.06q-4.74,5.49-9.47,11l-2-1.72q4.74-5.49,9.5-11S183.05,199.52,183.07,199.5Zm-31.21-7.71a4.62,4.62,0,0,0,.46-1,11.12,11.12,0,0,1,2.05-3.69,10.13,10.13,0,0,1,10-3.05,10.46,10.46,0,0,1,8.16,10A10.11,10.11,0,0,1,166,204l-2.5-2.16L154.4,194Zm187-326L328-121.73q.77,10.44,1.5,20.88c.19,2.52.33,4.45,3.41,5.68,4.38,1.77,6.11,6.17,5.09,10.45a9.38,9.38,0,0,1-2,4,9.14,9.14,0,0,1-6.36,3.12,9.38,9.38,0,0,1-9.45-6.31,8.84,8.84,0,0,1,1.6-8.78,10.27,10.27,0,0,1,2.6-2.13A6.08,6.08,0,0,0,326-96.07a4.63,4.63,0,0,0,.87-3.66q-.7-9.52-1.41-19L297.16-86Q317-69,336.81-51.9a9.78,9.78,0,0,1,3.75,7.37c1.4,20.93,3,41.85,4.49,62.78.17,2.57.42,4.42,3.54,5.48,4.32,1.48,6.25,6,5.3,10.32a9.27,9.27,0,0,1-17.95.8,8.87,8.87,0,0,1,1.65-8.56A9,9,0,0,1,340,24.34a5.84,5.84,0,0,0,1.54-1.2,4.64,4.64,0,0,0,.87-3.66c-1.63-21.33-3.06-42.7-4.86-64-.17-2.1-1.87-4.49-3.53-6Q314.75-67.27,295.43-84L280.07-66.19q16.8,14.5,33.61,29a10,10,0,0,1,3.92,7.73c.27,7.55,1,15.09,1.49,22.76,8.23,1.43,11.6,4.3,12.15,9.88A10.37,10.37,0,0,1,328.81,11a10.62,10.62,0,0,1-4.94,3.18,10.44,10.44,0,0,1-12.14-4.54,10.62,10.62,0,0,1,.75-12,7.51,7.51,0,0,1,1.2-1.12,7.76,7.76,0,0,0,1.24-1.15c1.27-1.47,1.45-3.06,1.26-5.13-.59-6.53-.77-13.08-1.56-19.6a9.71,9.71,0,0,0-3-5.8Q295-49.66,278.28-64.11L248.62-29.78l45.73,39.5c1.68,1.45,3,2.64,5.66,1.47a8.86,8.86,0,0,1,11.4,3.63,8.93,8.93,0,0,1-1.13,10.88L310,26A8.69,8.69,0,0,1,299.26,28c-4.23-2.31-5.89-6.24-4.69-11.12.22-.84.49-1.66.78-2.71l-3.94-3.4L246.83-27.78,225.18-2.73l35.82,31c.67.57,1.38,1.05,2,1.55,8-3.06,12.53-2.4,15.7,2.25a10.82,10.82,0,0,1-.39,13.07l-.22.25a10.86,10.86,0,0,1-12.83,2.08c-5.16-2.86-6.37-7.19-4.17-15.51L257,28.31,223.45-.64,204.17,21.68Q220,35.35,235.73,49.08a11.92,11.92,0,0,0,9.75,3.32c20.32-1.68,40.66-3.11,61-4.44a9.75,9.75,0,0,1,6.16,2c10,8.3,19.72,16.83,29.49,25.37,1.78,1.54,3.09,2.33,5.65,1a9.94,9.94,0,0,1,12.82,3c2.92,4.17,2.85,9.88-.18,13.38l0,0a11.13,11.13,0,0,1-12.82,2.39,10.18,10.18,0,0,1-5.2-12.59c.7-2.27.23-3.35-1.39-4.76-9.86-8.41-19.6-17-29.54-25.31a9.17,9.17,0,0,0-5.86-1.72q-30.75,2-61.46,4.47a10.53,10.53,0,0,1-8.62-2.8l-33.14-28.7L187.92,40.45c14.62,12.63,29.24,25.3,44,37.81a10.28,10.28,0,0,0,6.54,2.24c20.79-1.32,41.56-3,62.34-4.39,1.79-.13,3-.42,4-1.52a6.13,6.13,0,0,0,1.08-2,7.17,7.17,0,0,1,1.36-2.32,9.21,9.21,0,0,1,8.71-2.76,9.64,9.64,0,0,1,7.55,8.54,9.39,9.39,0,0,1-2.38,6.59,9.29,9.29,0,0,1-4.12,2.8,8.63,8.63,0,0,1-10.54-4c-1.36-2.61-3-2.92-5.53-2.73C280,80.38,259,81.82,238.12,83.47A9.25,9.25,0,0,1,230.68,81q-22.23-19.26-44.52-38.52L153.81,79.93l38.07-2.8c.58,0,1.15-.14,2-.27a17.4,17.4,0,0,1,3.37-7.31,9.32,9.32,0,0,1,8.17-3.16A10.11,10.11,0,0,1,215.05,75a10.55,10.55,0,0,1-2.38,8.81,10,10,0,0,1-3.62,2.65c-4.66,2-10.25.86-12.77-3.5C194.62,80,192.75,79.8,190,80c-12.9,1-25.81,1.94-38.71,2.9L125,113.24l87.53-6.32c1.75-.12,2.94-.47,3.82-1.49a6.11,6.11,0,0,0,1.12-2.17,8.09,8.09,0,0,1,1.53-2.71,9.16,9.16,0,0,1,8.24-2.9,9.84,9.84,0,0,1,7.94,8.23,9.59,9.59,0,0,1-2.36,7.12,9.44,9.44,0,0,1-3.24,2.43c-3.78,1.66-8.82.69-10.88-2.9-1.66-2.91-3.58-3.06-6.39-2.86q-44.9,3.36-89.8,6.61a39.89,39.89,0,0,0-8.34,26.12q60.54-4.44,121.2-8.81a10.5,10.5,0,0,0,7.93-3.77l.21-.24c3-3.63,6.05-7.21,9.15-10.79,3.69-4.26,7.39-8.48,11.1-12.73l.12-.14c1.45-1.68,2.21-3,1.11-5.56a10.17,10.17,0,0,1,3.8-13.06c3.88-2.43,10-1.92,13,1.07a11.54,11.54,0,0,1,1.92,13,9.81,9.81,0,0,1-1.21,1.76A10.56,10.56,0,0,1,271,106c-2.54-.9-3.63.05-5,1.61l-.1.12-2.47,2.86c-1.6,1.86-3.19,3.7-4.82,5.54s-3.23,3.7-4.84,5.56c-2.92,3.39-5.81,6.77-8.66,10.22l-.25.3a11.35,11.35,0,0,1-8.62,4.07q-60.9,4.45-121.87,8.88A40.25,40.25,0,0,0,124,167.18q63.32-4.58,126.65-9.16a10.52,10.52,0,0,0,7.92-3.82l.22-.26c2.49-3,5-6,7.6-8.95l2.43-2.82,2.4-2.78c2.69-3.11,5.34-6.22,8-9.38a6.62,6.62,0,0,0,1-5.25c-1-3.67-.44-7,1.72-9.55a11.18,11.18,0,0,1,2.24-1.92A9,9,0,0,1,295,114.38a9.41,9.41,0,0,1,.87,13.12,8.91,8.91,0,0,1-9.36,2.65c-2.4-.67-3.67,0-5.11,1.67l-.06.08c-1.64,1.94-3.28,3.83-4.94,5.75q-2,2.32-4,4.64l-4,4.64c-2.93,3.39-5.82,6.77-8.68,10.21l-.16.17a9,9,0,0,1-6.89,3.31q-63.1,4.5-126.25,9.13c.53.49,1,1,1.59,1.44L376.81,386.12A40.15,40.15,0,0,0,433.43,382l214.93-248.8a40.15,40.15,0,0,0-4.13-56.62L617,53.07c-.88,1.33-1.07,2.66,0,4.68a10.15,10.15,0,0,1-1.31,11.44,10.78,10.78,0,0,1-1.6,1.5,10.58,10.58,0,0,1-14.35-15.37,9.91,9.91,0,0,1,10.32-3.08,4.59,4.59,0,0,0,4.83-1L596.28,35.15l-9.9,11.45,0,0c-2,2.31-3.21,4.16-1.77,7.52,1.15,2.7.24,5.81-1.74,8.1a10.75,10.75,0,0,1-2.75,2.27,9.35,9.35,0,0,1-12.72-12.42,8.8,8.8,0,0,1,1.33-2c2.09-2.43,5.44-3.85,8.46-2.81,3.73,1.31,5.41-.24,7.54-2.71l0,0q4.79-5.55,9.57-11.11L577.52,19a10.21,10.21,0,0,1-2.28,8.62,9.08,9.08,0,0,1-1.65,1.51,10.59,10.59,0,0,1-16-12.82,11.88,11.88,0,0,1,1.66-2.51,9.92,9.92,0,0,1,8.15-3.54L545.23-8.95,537.75-.3a10.69,10.69,0,0,0-2.39,6.92c.74,13.08,1.91,26.16,2.83,39.22.15,2.36.61,3.85,3.28,4.79a8.28,8.28,0,0,1,5.61,8.54,9.27,9.27,0,0,1-2.11,6,9.08,9.08,0,0,1-3.2,2.33c-3.69,1.66-7.08,1-8.88-.53-4.92-4.39-5.45-9.91-2.22-13.65a10.77,10.77,0,0,1,2.26-1.94,6.74,6.74,0,0,0,1.55-1.29c1-1.21,1.16-2.56,1-4.36-1-13.06-1.84-26.16-3-39.21a10.67,10.67,0,0,1,2.82-8.64q3.79-4.41,7.61-8.81L528.79-23.16Q508.83,0,489,23.12A11.19,11.19,0,0,0,486.66,30c.31,8.74,1.27,17.44,1.67,26.16A9.11,9.11,0,0,1,486.42,62c-5.75,6.82-11.58,13.61-17.42,20.36Q461.35,91.2,453.63,100l-.14.16c-1.77,2-2.67,3.6-1.08,6.59a9.52,9.52,0,0,1-1.49,10.63,10.92,10.92,0,0,1-1.91,1.74A10.52,10.52,0,0,1,433.4,106a11.4,11.4,0,0,1,1.57-2.34,9.77,9.77,0,0,1,10.52-3.08c2.78.9,4.12.14,5.78-1.77l.06-.08c3.3-3.86,6.63-7.71,9.94-11.55l2.51-2.89,2.58-3q8.47-9.81,16.83-19.71a11,11,0,0,0,2.2-7c-.3-8.43-.95-16.85-1.79-25.26a9.12,9.12,0,0,1,2.52-7.4l0,0Q506.48-1.5,526.73-25L509.82-39.58Q487-13.21,464.24,13.14L408.48,77.69c-.29.33-.48.71-.91,1.33a39,39,0,0,1,1.86,4.1A9.39,9.39,0,0,1,407.54,92a8.71,8.71,0,0,1-1.76,1.56,9.49,9.49,0,0,1-11-.53,9.21,9.21,0,0,1-2.87-10.61,10.9,10.9,0,0,1,1.74-2.81c2-2.29,4.87-3.69,7.58-2.92,3.56,1,5.19-.58,7-2.61l.59-.69q49.5-57.36,99-114.68L486.86-59.41l-4.43,5.13Q442-7.48,401.53,39.32l-.27.31c-1.93,2.23-3.42,4.12-1.66,7.62,1.31,2.64.35,5.85-1.71,8.23a10.18,10.18,0,0,1-2.26,2,9.31,9.31,0,0,1-13.41-11.61,9.47,9.47,0,0,1,1.58-2.54c2-2.31,5.05-3.71,7.88-2.79,4,1.26,5.75-.61,7.81-3,.14-.15.26-.29.39-.45q42.44-49.17,84.88-98.29l-26-22.47-8.66,10-.08.1c-1.93,2.23-3.41,4-1.68,7.44,1.42,2.83.51,6.25-1.58,8.68a10.11,10.11,0,0,1-2.21,1.92,9.26,9.26,0,0,1-11-.91,9.19,9.19,0,0,1-2.45-10.73,10.47,10.47,0,0,1,1.58-2.5c2.1-2.42,5.28-3.78,8.34-2.81,3.45,1.11,5-.43,6.83-2.6l0,0,8.87-10.28L444.54-96a8.81,8.81,0,0,1-1.84,3.47,10,10,0,0,1-3.12,2.4,10.83,10.83,0,0,1-12.21-1.63,10.73,10.73,0,0,1-1.92-12.84,10.29,10.29,0,0,1,1.32-1.93,10.56,10.56,0,0,1,2.91-2.34L413-123.21q3,40.3,6,80.62a10.63,10.63,0,0,1-2.76,8.49l-.1.12q-9.56,10.87-19,21.85L392.4-6.65l-4.75,5.5c-3.18,3.68-6.38,7.38-9.58,11L378,10c-1.52,1.76-2.25,3.08-.91,5.61a10.26,10.26,0,0,1-1.22,11.58,11.23,11.23,0,0,1-1.5,1.42,10.58,10.58,0,0,1-16-13,11.56,11.56,0,0,1,1.54-2.34,10.06,10.06,0,0,1,10.58-3c2.67.74,3.93-.16,5.43-1.9l.05-.06c3.43-4,6.87-8,10.32-12l2.41-2.8L391-9.11c7.76-9,15.52-18,23.17-27.06A10.06,10.06,0,0,0,416-42.81q-2.92-41.55-6-83l-14.58-12.6a39.39,39.39,0,0,0-9.54-6.13Q389.3-99,392.65-53.43a9.08,9.08,0,0,1-2.15,7.27,6.39,6.39,0,0,1-.51.55c-1.09,1.11-2.12,2.27-3.15,3.46-.78.9-1.54,1.82-2.3,2.7s-1.52,1.8-2.28,2.68l0,0-3.55,4.11c-.72.84-1.43,1.66-2.14,2.52l-.19.22c-.3.35-.61.7-.93,1s-.63.68-.92,1c-2,2.33-3.51,4.78-1.66,8.88.94,2.08.05,4.62-1.68,6.62a10.56,10.56,0,0,1-3.77,2.79c-3.94,1.62-7.45.74-10.4-2.25a9.09,9.09,0,0,1-1.29-10.93,11.48,11.48,0,0,1,1.25-1.72c2.13-2.47,5-3.73,8.33-2.65s5.21,0,7.1-2.2l.49-.57q3.47-4.24,7.07-8.42t7.22-8.12l.27-.31a9.52,9.52,0,0,0,2.33-7.56Q386.35-100,383-145.75a40.33,40.33,0,0,0-25.68-.62q3,41.1,6,82.15c.11,1.46.28,2.88.4,4.25,8,2.66,11.08,6.87,9.85,13.12a10.34,10.34,0,0,1-2.31,4.74,10.51,10.51,0,0,1-7.13,3.58,10.3,10.3,0,0,1-10.6-6.76C352.23-49,352.74-53,355-55.65a7.65,7.65,0,0,1,2.39-1.86,6.8,6.8,0,0,0,2.16-1.59c1.12-1.29,1.22-2.84,1.07-4.95q-3.06-40.7-6-81.37A40.59,40.59,0,0,0,338.81-134.22Z" transform="translate(-114.14 148.17)"/><path class="cls-2" d="M392.56,132.16l-.22.25c-3.38,4.23-2.19,8.4.45,12.74l-3.43,4-45.54,52.71-54.17,62.71,0,0c-1.2,1.39-2.53,2.73-3.86,4.08s-2.67,2.69-3.87,4.08a18.88,18.88,0,0,0-3.9,6.33c-1.83,5.53.06,12.36.71,18.57a10.4,10.4,0,0,1-.13,3.64l2.48,2.14a9.52,9.52,0,0,0,.51-4.86c-.64-4.75-.59-9.6-1.2-14.36a9.2,9.2,0,0,1,2.59-7.82v0q28.62-33,57.16-66,26-30.13,52-60.26l0,0c1.83-2.12,3.41-3.32,6.53-2.7a8.18,8.18,0,0,0,7.81-2.86,9.88,9.88,0,0,0,2-3.87,9.25,9.25,0,0,0-16-8.43Z" transform="translate(-114.14 148.17)"/><path class="cls-3" d="M535.33-2.12a10.71,10.71,0,0,0-2.82,8.64c1.14,13.05,2,26.15,3,39.21.13,1.82,0,3.15-1,4.36a6.67,6.67,0,0,1-1.55,1.29,10.06,10.06,0,0,0-2.26,1.94c-3.25,3.76-2.7,9.26,2.22,13.65,1.81,1.46,5.2,2.17,8.88.53a9.08,9.08,0,0,0,3.2-2.33,9.27,9.27,0,0,0,2.11-6,8.32,8.32,0,0,0-5.61-8.54c-2.67-1-3.11-2.45-3.28-4.79-.94-13.08-2.11-26.12-2.83-39.22A10.84,10.84,0,0,1,537.75-.3l7.48-8.65-2.29-2Q539.13-6.52,535.33-2.12Z" transform="translate(-114.14 148.17)"/><path class="cls-4" d="M393.62,79.58a10.38,10.38,0,0,0-1.74,2.81A9.25,9.25,0,0,0,394.74,93a9.47,9.47,0,0,0,11,.53A8.66,8.66,0,0,0,407.52,92a9.39,9.39,0,0,0,1.89-8.83,37.07,37.07,0,0,0-1.86-4.1,11.91,11.91,0,0,1,.91-1.33l55.77-64.55Q487-13.21,509.8-39.56l-2-1.76q-49.5,57.38-99,114.68l-.59.69c-1.76,2-3.38,3.64-6.94,2.61C398.48,75.89,395.59,77.29,393.62,79.58Z" transform="translate(-114.14 148.17)"/><path class="cls-5" d="M383.78,43.33a9.57,9.57,0,0,0-1.58,2.53,9.24,9.24,0,0,0,2.47,10.72,9.13,9.13,0,0,0,10.95.9,11.11,11.11,0,0,0,2.25-2c2.07-2.38,3-5.57,1.71-8.23-1.78-3.52-.26-5.39,1.67-7.62l.27-.31Q442-7.43,482.41-54.26l4.43-5.13-2.11-1.83q-42.47,49.15-84.88,98.3c-.14.15-.26.29-.39.45-2.07,2.38-3.84,4.24-7.82,3C388.83,39.62,385.78,41,383.78,43.33Z" transform="translate(-114.14 148.17)"/><path class="cls-6" d="M493.42,138.93l.07-.07a8.32,8.32,0,0,1,11-.76l0,0a8.38,8.38,0,0,1,.8,11.06h0c-2.59,3-8,3.32-11,.68a8.22,8.22,0,0,1-.87-10.94ZM491.5,137a11.11,11.11,0,0,0-1.26,1.82,10.56,10.56,0,0,0,17.23,12,9.67,9.67,0,0,0,1.7-10.12c-1.1-2.8-.32-4.38,1.39-6.36l.07-.08q9.9-11.34,19.74-22.73,9-10.45,18-20.93l.09-.1a10.12,10.12,0,0,1,7.6-3.86q45.87-3.24,91.71-6.6c-.82-.91-1.71-1.78-2.61-2.64Q599.9,80.75,554.69,84a9.69,9.69,0,0,0-7.29,3.68l-.06.08C534.77,102.47,522,117,509.4,131.79l-.12.14c-2,2.32-3.63,3.49-7.1,2.16A9.49,9.49,0,0,0,491.5,137Z" transform="translate(-114.14 148.17)"/><path class="cls-7" d="M416.43,180.54c-3.38,3.91-3.2,7.35.83,13.63l-3.58,4.15-64.77,75L305,324.1l2.05,1.78q54.74-63.36,109.45-126.74l0,0c2-2.27,3.66-3.88,7.17-3.51a7.55,7.55,0,0,0,6.55-2.75,10.25,10.25,0,0,0,2.16-4.32A9.3,9.3,0,0,0,427.27,178a9,9,0,0,0-10.69,2.4A.5.5,0,0,0,416.43,180.54Z" transform="translate(-114.14 148.17)"/><path class="cls-8" d="M361.87,15.28h0a8.33,8.33,0,0,1,10.83-1.07l.14.12,0,0,.08.06c2.92,2.52,3.35,8,.88,11l-.1.11,0,0a8.13,8.13,0,0,1-10.9.74l-.07-.07a7.9,7.9,0,0,1-.89-10.88S361.85,15.3,361.87,15.28Zm48.15-141q3,41.54,6,83a10.09,10.09,0,0,1-1.88,6.65Q402.6-22.46,390.92-9l-2.24,2.61-2.42,2.8c-3.45,4-6.88,8-10.31,12l-.06.06c-1.5,1.74-2.75,2.68-5.43,1.9a10,10,0,0,0-10.58,3,11.63,11.63,0,0,0-1.54,2.33,10.59,10.59,0,0,0,16,13,9.44,9.44,0,0,0,1.49-1.41,10.27,10.27,0,0,0,1.22-11.59c-1.34-2.52-.61-3.84.92-5.6l0-.06c3.2-3.66,6.39-7.36,9.57-11l4.75-5.5L397.09-12c6.3-7.3,12.65-14.61,19-21.86l.1-.12A10.58,10.58,0,0,0,419-42.5q-3-40.29-6-80.62l-3-2.6" transform="translate(-114.14 148.17)"/><path class="cls-9" d="M230.2,175.49h0A8.21,8.21,0,0,1,241,174.24l.12.1,0,0,.11.1c2.82,2.43,3.36,8.06,1,11.07v0l-.17.2c-2.51,2.9-7.74,3.26-10.82.73l-.18-.15a7.75,7.75,0,0,1-1-10.75Zm-2.13-1.77c-2.7,3.13-3.58,7.43-1.41,11.05,2.05,3.44,1,5.23-1.21,7.73l0,0q-15.57,18-31.1,35.92l2.1,1.81q15.75-18.22,31.46-36.46l0,0c2.05-2.37,3.86-3.64,7.3-3a9.16,9.16,0,0,0,8.72-3.13,10.18,10.18,0,0,0,1.75-2.86c1.73-4.29.58-9.69-2.66-12.42a11.18,11.18,0,0,0-13.07-.39A12.09,12.09,0,0,0,228.07,173.72Z" transform="translate(-114.14 148.17)"/><path class="cls-10" d="M124,167.18c.78.88,1.59,1.75,2.46,2.57q63.12-4.53,126.25-9.13a9.08,9.08,0,0,0,6.89-3.31l.16-.17q4.27-5.13,8.68-10.21l4-4.64q2-2.31,4-4.64c1.66-1.92,3.3-3.81,4.94-5.75l.06-.08c1.44-1.66,2.71-2.34,5.11-1.67a8.91,8.91,0,0,0,9.36-2.65,9.41,9.41,0,0,0-.87-13.12,9,9,0,0,0-10.92-1.09,11.1,11.1,0,0,0-2.24,1.92c-2.16,2.51-2.71,5.87-1.72,9.55a6.82,6.82,0,0,1-1,5.25c-2.61,3.18-5.28,6.27-8,9.38l-2.4,2.78L266.36,145c-2.56,3-5.11,5.95-7.6,8.95l-.22.26a10.52,10.52,0,0,1-7.92,3.82Q187.31,162.54,124,167.18Z" transform="translate(-114.14 148.17)"/><path class="cls-11" d="M434.38,258.35a8.44,8.44,0,0,0-1.5,9c1,2.51.28,3.86-1.14,5.51l-.15.17c-2.73,3.12-5.49,6.2-8.18,9.31-2.44,2.82-4.85,5.69-7.19,8.6a9.72,9.72,0,0,0-2,6.2q3.4,47.22,6.83,94.45c.92-.47,1.82-.95,2.71-1.48q-3.32-45.88-6.61-91.81a11,11,0,0,1,2.34-6.94c1.76-2.24,3.58-4.42,5.46-6.6,1-1.11,1.92-2.23,2.91-3.33s1.94-2.21,2.91-3.33,1.76-2,2.6-3.05l.24-.27c1.53-1.78,2.88-2.63,5.59-1.69a8.63,8.63,0,0,0,9.42-2.67,9.34,9.34,0,0,0,1.08-1.53,9,9,0,0,0-1.75-11.19c-3.37-3.14-7.68-3.69-11.18-1.42A12,12,0,0,0,434.38,258.35Z" transform="translate(-114.14 148.17)"/><path class="cls-12" d="M391.79,277.11a14.71,14.71,0,0,0-3.85,11.81q4.08,53.16,7.9,106.32c.94.17,1.89.3,2.83.4q-3.85-52.5-7.8-105c-.39-5.13.56-9,3.95-12.93.11-.11.21-.23.31-.35,5.56-6.16,11-12.43,16.44-18.71,6.76-7.83,13.47-15.71,20.21-23.56a34.66,34.66,0,0,0,2.63-3.91l-1.43-1c-1.15,1.16-2.37,2.26-3.43,3.49l-2.49,2.88q-4.44,5.15-8.86,10.29c-2.95,3.43-5.88,6.85-8.84,10.28-5.73,6.63-11.5,13.27-17.33,19.82A1.8,1.8,0,0,0,391.79,277.11Z" transform="translate(-114.14 148.17)"/><path class="cls-13" d="M357.85,122.72h0a8.23,8.23,0,0,1,11-1l.06,0c2.82,2.44,3.3,8.18.94,11.1l-.12.14c-2.55,2.95-7.79,3.32-10.93.7l-.12-.1a7.79,7.79,0,0,1-.86-10.83S357.84,122.74,357.85,122.72ZM355.64,121A9.13,9.13,0,0,0,354,131.12c1.8,3.58.39,5.4-1.67,7.79l-.07.08q-55.95,64.66-111.82,129.33l2.11,1.82q55.82-64.78,111.71-129.46v0c2.17-2.51,3.94-3.85,7.64-2.74a9.44,9.44,0,0,0,9.76-3.08,9.56,9.56,0,0,0,1.5-2.33c2-4.34.91-9.95-2.46-12.86a11.17,11.17,0,0,0-12.69-.74A11.29,11.29,0,0,0,355.64,121Z" transform="translate(-114.14 148.17)"/><path class="cls-14" d="M530.39,136.86a10.59,10.59,0,0,0-1.34,2A9.38,9.38,0,0,0,542.29,151a10.21,10.21,0,0,0,2.19-1.86,9.07,9.07,0,0,0,1.43-9.61c-.95-2.26-.52-3.59.9-5.24l.1-.11q4.5-5.09,9-10.23c2.56-3,5.11-6,7.56-9l.24-.27a10,10,0,0,1,7.53-3.58q43.42-3.14,86.87-6.31c-.05-.93-.14-1.82-.24-2.73q-44.13,3.19-88.25,6.37a9.53,9.53,0,0,0-7.13,3.55l-.21.23c-2.19,2.66-4.44,5.26-6.67,7.85l-3.45,4-3.46,4c-1.17,1.35-2.34,2.7-3.48,4.07l-.17.19c-1.42,1.65-2.65,2.64-5.28,1.84A8.76,8.76,0,0,0,530.39,136.86Z" transform="translate(-114.14 148.17)"/><path class="cls-15" d="M125,113.24l-1.15,1.33c-.47.55-.92,1.12-1.38,1.68q44.91-3.3,89.8-6.61c2.81-.21,4.73,0,6.39,2.85,2.06,3.63,7.08,4.58,10.88,2.91a9,9,0,0,0,3.24-2.44,9.51,9.51,0,0,0,2.36-7.12,9.84,9.84,0,0,0-7.94-8.22,9.12,9.12,0,0,0-8.24,2.89,7.85,7.85,0,0,0-1.53,2.72,6.2,6.2,0,0,1-1.12,2.17c-.87,1-2.07,1.36-3.82,1.49Q168.8,110.09,125,113.24Z" transform="translate(-114.14 148.17)"/><path class="cls-16" d="M437.23,288.88a7.91,7.91,0,0,1,10.61-1.12l.14.12.06.05.1.08a8.52,8.52,0,0,1,1.13,11,1.29,1.29,0,0,1-.16.17c-2.45,2.84-7.79,3.22-10.87.76l-.2-.17a7.77,7.77,0,0,1-.9-10.69A.33.33,0,0,1,437.23,288.88Zm-2.1-1.68a9.88,9.88,0,0,0-2.06,9.71c1.38,4.77,4.86,7,10.39,7.67,0,1.78-.17,3.24-.08,4.68q2.06,28.19,4.12,56.37l2.58-3q-2-27-3.95-53.94c-.14-1.94-.32-3.59.8-4.88a5.26,5.26,0,0,1,2.06-1.4,7,7,0,0,0,2.57-1.88c1.75-2,2.16-4.9,1.87-7.78-.41-4.19-2.59-7.44-6.8-8.75-4-1.26-7.76-.66-10.87,2.47C435.57,286.73,435.33,287,435.13,287.2Z" transform="translate(-114.14 148.17)"/><path class="cls-17" d="M535.63,205.61c-3,3.41-3.33,7.41-1,11.11a8.81,8.81,0,0,0,10.65,3.74c2.48-1,4.07-.87,6.14.92,4,3.42,7.91,6.83,11.84,10.27l1.71-2L553.77,220c-2.16-1.86-3.36-3.31-2.4-6.51,1.29-4.32-1.18-8.57-5.4-10.3a8.42,8.42,0,0,0-10.28,2.36Z" transform="translate(-114.14 148.17)"/><path class="cls-18" d="M365.74,297l.12-.14c2.68-2.95,8.08-3.34,11-.8l.07.06c2.91,2.58,3.24,8.13.69,11.09l0,0a7.89,7.89,0,0,1-11,.58l0,0a7.79,7.79,0,0,1-.9-10.79Zm-2.11-1.79c-2.5,2.9-3.49,7.17-1.53,10.64s.62,5.32-1.46,7.73l-.08.1q-14.46,16.74-28.92,33.43l2,1.74q14.76-17.08,29.52-34.21v0c1.9-2.19,3.5-3.13,6.62-2.35a9.83,9.83,0,0,0,9.8-3.19,10,10,0,0,0,1.64-2.65c1.79-4.26.67-9.6-2.65-12.44a11.31,11.31,0,0,0-13.08-.5A9.85,9.85,0,0,0,363.63,295.23Z" transform="translate(-114.14 148.17)"/><path class="cls-19" d="M268.64,91.11l.12-.14v0a8.14,8.14,0,0,1,10.85-.64l.14.12c2.89,2.66,3.24,8,.74,10.89l-.12.14,0,0a8.07,8.07,0,0,1-10.91.48l-.1-.08A8,8,0,0,1,268.64,91.11Zm-154.5,51.28c0,.89.1,1.83.2,2.73q60.94-4.41,121.89-8.82a11.47,11.47,0,0,0,8.62-4.08l.25-.29c2.85-3.46,5.74-6.84,8.66-10.23,1.61-1.86,3.22-3.72,4.84-5.56s3.22-3.68,4.82-5.54l2.47-2.86.1-.12c1.36-1.56,2.44-2.5,5-1.61a10.56,10.56,0,0,0,11.61-2.86,10.35,10.35,0,0,0,1.21-1.76,11.61,11.61,0,0,0-1.92-13c-3-3-9.15-3.49-13-1.07a10.63,10.63,0,0,0-2.35,2,10.32,10.32,0,0,0-1.44,11c1.1,2.53.33,3.88-1.12,5.57l-.12.13c-3.7,4.25-7.41,8.47-11.1,12.74-3.08,3.56-6.13,7.14-9.15,10.79-.07.07-.13.15-.2.23a10.5,10.5,0,0,1-7.94,3.77Q174.75,137.93,114.14,142.39Z" transform="translate(-114.14 148.17)"/><path class="cls-20" d="M248.6-29.8l-1.74,2,44.59,38.52,3.94,3.39c-.31,1.07-.58,1.9-.78,2.72-1.2,4.84.46,8.81,4.68,11.12A8.7,8.7,0,0,0,310,26l.28-.33c2.86-3.31,3.28-7.36,1.13-10.89a8.83,8.83,0,0,0-11.39-3.62c-2.69,1.17-4,0-5.67-1.47Q271.46-10,248.6-29.8Z" transform="translate(-114.14 148.17)"/><path class="cls-21" d="M485.88,161.75c-3.18,3.68-3.58,6.92-2.13,10.29a8.78,8.78,0,0,0,8.2,5.55,8.67,8.67,0,0,0,7.12-2.74,8.05,8.05,0,0,0,1.51-2.7,6.13,6.13,0,0,1,1.07-2.07c1.05-1.22,2.49-1.38,4.31-1.51,20.49-1.44,41-2.9,61.47-4.53a9.76,9.76,0,0,1,7.85,2.55q12.63,11,25.28,21.9l1.84-2.13Q589.28,175,576.19,163.68a9.3,9.3,0,0,0-7.46-2.52c-21.06,1.67-42.14,3.12-63.2,4.71-2.46.2-4.06-.05-5.7-2.5-3.69-5.54-10.38-5.75-13.7-2A2.61,2.61,0,0,1,485.88,161.75Z" transform="translate(-114.14 148.17)"/><path class="cls-22" d="M490,213.53a8.44,8.44,0,0,1,11-.93l.11.1a8.33,8.33,0,0,1,.87,10.94l-.11.14a8,8,0,0,1-10.86.81.76.76,0,0,0-.09-.09,8.1,8.1,0,0,1-1-10.91Zm-2-1.85a10.79,10.79,0,0,0-.71,12.92A10,10,0,0,0,500,228.17c2.84-1.35,4.21-.13,6,1.43l33.84,29.23,1.73-2-33.18-28.66-3.56-3.08c.4-1.26.77-2.2,1-3.18,1.44-5.18-.44-10.16-4.66-12.44a11,11,0,0,0-12.91,1.84C488.17,211.44,488.05,211.54,487.93,211.68Z" transform="translate(-114.14 148.17)"/><path class="cls-23" d="M186.14,183.6a8.06,8.06,0,0,0-1.52,8.77c1.51,3.19.39,4.92-1.53,7.15l0,0q-4.74,5.49-9.5,11l2,1.73q4.76-5.49,9.47-11l.05-.06c1.89-2.19,3.42-3.6,6.83-2.61a8.11,8.11,0,0,0,8.34-2.81,10.11,10.11,0,0,0,1.6-2.51,9.42,9.42,0,0,0-13.55-11.58A12.24,12.24,0,0,0,186.14,183.6Z" transform="translate(-114.14 148.17)"/><path class="cls-24" d="M264.4,33.1l0,0a8.11,8.11,0,0,1,10.94-.79l0,0c3,2.59,3.4,8.09.86,11l0,0a8.08,8.08,0,0,1-11,.62,7.84,7.84,0,0,1-.87-10.87ZM225.2-2.71,223.43-.65l33.51,28.94,4.17,3.61c-2.2,8.32-1,12.65,4.17,15.5a10.87,10.87,0,0,0,12.83-2.08l.22-.25A10.82,10.82,0,0,0,278.72,32c-3.16-4.64-7.65-5.31-15.7-2.24-.66-.51-1.37-1-2-1.56Z" transform="translate(-114.14 148.17)"/><path class="cls-25" d="M358.61,344.83c-2.26,2.63-3.09,6.08-1.44,9.08,1.77,3.17.48,4.78-1.28,6.82l-.22.25-3.4,3.94,2,1.72,3.29-3.81.05-.06c2-2.33,3.77-3.72,7.26-2.9a8,8,0,0,0,7.79-2.8,10.14,10.14,0,0,0,1.64-2.65,9.3,9.3,0,0,0-13.83-11.3A10.83,10.83,0,0,0,358.61,344.83Z" transform="translate(-114.14 148.17)"/><path class="cls-26" d="M187.92,40.45l-1.78,2q22.29,19.26,44.54,38.55a9.3,9.3,0,0,0,7.44,2.46C259,81.85,280,80.42,300.88,78.8c2.57-.21,4.15.1,5.53,2.73A8.59,8.59,0,0,0,317,85.47a9.69,9.69,0,0,0,6.51-9.38,9.64,9.64,0,0,0-7.56-8.55,9.2,9.2,0,0,0-8.71,2.76,7.33,7.33,0,0,0-1.35,2.32,6.08,6.08,0,0,1-1.09,2c-.94,1.09-2.22,1.39-4,1.52-20.79,1.42-41.55,3.07-62.35,4.38a10.19,10.19,0,0,1-6.54-2.23C217.16,65.75,202.54,53.08,187.92,40.45Z" transform="translate(-114.14 148.17)"/><path class="cls-27" d="M297.18-86l-1.75,2L334-50.56c1.69,1.45,3.37,3.86,3.54,6,1.77,21.33,3.21,42.69,4.86,64.05a4.64,4.64,0,0,1-.87,3.66A5.73,5.73,0,0,1,340,24.3a9.11,9.11,0,0,0-2.4,2,8.83,8.83,0,0,0-1.65,8.55,9.47,9.47,0,0,0,9.72,6.55A9.41,9.41,0,0,0,353.89,34c.95-4.3-1-8.84-5.3-10.32-3.13-1.05-3.37-2.91-3.54-5.48-1.47-20.93-3.09-41.84-4.49-62.77a9.81,9.81,0,0,0-3.75-7.38Q317-68.89,297.18-86Z" transform="translate(-114.14 148.17)"/><path class="cls-28" d="M454.93,197.69h0l0,0,0,0,0,0a8.16,8.16,0,0,1,10.92-.78l.08.06c2.94,2.61,3.32,8.07.82,11v0l0,0a8.06,8.06,0,0,1-11,.58l0,0A7.78,7.78,0,0,1,454.93,197.69Zm-2-1.87a10.66,10.66,0,0,0-2.49,5.65,10.48,10.48,0,0,0,7,11.32c1,.38,2.12.59,3.39.94,1.79,25.23,3.63,50.2,5.29,75.19a10.23,10.23,0,0,0,3.83,7.79c7.1,6.1,14.21,12.24,21.31,18.34l1.83-2.12L472.7,295.22a10.63,10.63,0,0,1-3.56-6.39c-2-24.1-3.65-48.21-5.47-72.34-.11-1.53,0-2.65.77-3.57a4.89,4.89,0,0,1,1.6-1.18,9.76,9.76,0,0,0,4.71-12.3,10.38,10.38,0,0,0-11.12-7.15A10.57,10.57,0,0,0,453,195.82Z" transform="translate(-114.14 148.17)"/><path class="cls-29" d="M470.33,325.75a9.25,9.25,0,0,0-2.07,4.22,8.86,8.86,0,0,0,2.62,8.63l12.18-14.1a9.28,9.28,0,0,0-6.63-1.93A9.47,9.47,0,0,0,470.33,325.75Z" transform="translate(-114.14 148.17)"/><path class="cls-30" d="M326.44,108.4c-2.25,2.6-3.11,6.41-1.31,9.43,1.95,3.32.57,5.11-1.4,7.4l0,0q-38.91,45-77.8,90l-28.56,33.06,2.1,1.81,23.8-27.56q41.55-48.09,83.09-96.22l0,0c1.81-2.09,3.34-3.4,6.53-2.77a8,8,0,0,0,7.63-2.9,10.39,10.39,0,0,0,1.88-3.2c1.42-3.94,0-8-3.77-10.68a9.13,9.13,0,0,0-11,.4A11.23,11.23,0,0,0,326.44,108.4Z" transform="translate(-114.14 148.17)"/><path class="cls-31" d="M433.63,141.05a.52.52,0,0,0-.1.11,9.35,9.35,0,0,0-.4,11.38A8.82,8.82,0,0,0,444,155.69c2.65-1.25,4.16-.5,6.08,1.19,14.39,12.54,28.87,24.94,43.25,37.5a9.19,9.19,0,0,0,7.44,2.5c20.62-1.64,41.24-3,61.88-4.65a8.76,8.76,0,0,1,7,2.37Q577,201,584.37,207.31l1.72-2L570.4,191.87a10.57,10.57,0,0,0-6.92-2.32c-20.77,1.29-41.54,3-62.33,4.29a10,10,0,0,1-6.55-2.14c-14.47-12.22-28.71-24.7-43.1-37-1.86-1.6-2.55-3-1.84-5.55,1.23-4.47-.89-8.46-5-10.53A9.55,9.55,0,0,0,433.63,141.05Z" transform="translate(-114.14 148.17)"/><path class="cls-32" d="M198.77,71.77l0,0c2.6-3,8.09-3.4,11.06-.87l0,0c2.94,2.53,3.33,8.06.76,11l0,0a7.83,7.83,0,0,1-11.86-10.21Zm-45,8.16-2.57,3L190,80c2.81-.2,4.66,0,6.34,2.91,2.5,4.35,8.08,5.52,12.76,3.51a10.12,10.12,0,0,0,3.62-2.65A10.55,10.55,0,0,0,215.05,75a10.11,10.11,0,0,0-9.65-8.58,9.35,9.35,0,0,0-8.16,3.17,17.06,17.06,0,0,0-3.38,7.3c-.81.12-1.39.23-2,.28C179.19,78.06,166.49,79,153.81,79.93Z" transform="translate(-114.14 148.17)"/><path class="cls-33" d="M481.56,242.27a9.47,9.47,0,0,0-2.16,4.49c-.8,4.4,1.57,8.16,6.08,10.41a5.56,5.56,0,0,1,2.63,3.61,114.56,114.56,0,0,1,1,13.49c0,3.36,1.41,5.57,3.92,7.73q7.68,6.58,15.34,13.22l1.83-2.11c-2-1.65-4.07-3.25-6.13-4.86-9.31-7.15-14.08-15.16-13-26.7,0-.44-.22-.94-.06-1.28a14.18,14.18,0,0,1,1.59-3.27,3.87,3.87,0,0,1,.42-.4,14.84,14.84,0,0,0,2.42-2.21,8.86,8.86,0,0,0,1.87-9.09,9.72,9.72,0,0,0-9.54-6.25A9.26,9.26,0,0,0,481.56,242.27Z" transform="translate(-114.14 148.17)"/><path class="cls-34" d="M436.93,105.61a8.2,8.2,0,0,1,11-1l.08.07c2.85,2.47,3.32,8.14.92,11.12l0,0-.1.12,0,0a8.16,8.16,0,0,1-10.8.78l-.06,0,0,0-.1-.09a7.72,7.72,0,0,1-.94-10.82ZM486.11,22a9.14,9.14,0,0,0-2.53,7.4c.82,8.39,1.49,16.83,1.8,25.26a11.35,11.35,0,0,1-2.21,7c-5.55,6.62-11.18,13.17-16.82,19.71l-2.59,3-2.5,2.9c-3.32,3.84-6.65,7.69-9.94,11.55l-.07.08c-1.66,1.91-3,2.67-5.78,1.77A9.72,9.72,0,0,0,435,103.7a11.4,11.4,0,0,0-1.57,2.34A10.52,10.52,0,0,0,449,119.15a10.88,10.88,0,0,0,1.91-1.74,9.52,9.52,0,0,0,1.5-10.63c-1.6-3-.7-4.54,1.07-6.59l.14-.16q7.71-8.82,15.38-17.68c5.83-6.76,11.66-13.54,17.42-20.36a9.08,9.08,0,0,0,1.9-5.77c-.39-8.72-1.34-17.44-1.67-26.16A10.87,10.87,0,0,1,489,23.14q19.85-23.2,39.81-46.28l-2.08-1.79Q506.42-1.47,486.12,22Z" transform="translate(-114.14 148.17)"/><path class="cls-35" d="M346.46,80.68l.13-.16a8.2,8.2,0,0,1,10.89-.78l.18.16c2.77,2.56,3.11,8.22.71,11v0l-.12.14a8.1,8.1,0,0,1-11,.43l-.1-.09A7.68,7.68,0,0,1,346.46,80.68Zm-142.31-59-1.77,2.05Q219,38.05,235.5,52.43a10.62,10.62,0,0,0,8.62,2.8q30.72-2.49,61.46-4.47a8.94,8.94,0,0,1,5.86,1.72c9.95,8.32,19.67,16.89,29.54,25.31,1.64,1.39,2.11,2.51,1.4,4.76a10.17,10.17,0,0,0,5.19,12.59,11.14,11.14,0,0,0,12.83-2.39v0c3-3.5,3.09-9.19.18-13.38a9.92,9.92,0,0,0-12.81-3c-2.55,1.29-3.89.51-5.65-1-9.76-8.53-19.55-17-29.49-25.37a9.56,9.56,0,0,0-6.16-2q-30.51,2-61,4.44a12.07,12.07,0,0,1-9.74-3.32Q220,35.28,204.15,21.66Z" transform="translate(-114.14 148.17)"/><path class="cls-36" d="M314.8-.95a1.54,1.54,0,0,0,.17-.19c2.66-2.84,8.15-3.18,11-.73l.16.14c2.83,2.61,3.1,8,.58,11l0,0-.1.12a7.91,7.91,0,0,1-10.85.57l-.16-.13-.15-.14,0,0A8,8,0,0,1,314.8-.95ZM280.07-66.22l-1.79,2.07,33.38,28.94a9.84,9.84,0,0,1,2.95,5.8c.79,6.49,1,13.06,1.56,19.6.19,2.08,0,3.65-1.25,5.13a8.24,8.24,0,0,1-1.24,1.16,8.45,8.45,0,0,0-1.2,1.11,10.62,10.62,0,0,0-.76,12,10.45,10.45,0,0,0,12.14,4.54,10.67,10.67,0,0,0,4.94-3.19,10.42,10.42,0,0,0,2.44-7.84c-.54-5.55-3.94-8.42-12.15-9.88-.52-7.66-1.22-15.2-1.5-22.76a9.76,9.76,0,0,0-3.92-7.72Q296.85-51.75,280.07-66.22Z" transform="translate(-114.14 148.17)"/><path class="cls-37" d="M154.39,187.07a11.29,11.29,0,0,0-2.06,3.69,5.25,5.25,0,0,1-.47,1l2.54,2.2a7.73,7.73,0,0,1,1.7-4.69l.1-.12a8.11,8.11,0,0,1,10.84-.92l.12.1a8.29,8.29,0,0,1,1,10.91l-.12.14,0,0a7.4,7.4,0,0,1-4.57,2.4L166,204a10.47,10.47,0,0,0-1.54-19.95A10,10,0,0,0,154.39,187.07Z" transform="translate(-114.14 148.17)"/><path class="cls-38" d="M383.91,186.25l0,0a8,8,0,0,1,10.86-.87l.08.07a8.39,8.39,0,0,1,1,11l-.1.12c-2.51,2.9-7.89,3.27-10.92.73l-.1-.09a7.92,7.92,0,0,1-.9-10.83A.16.16,0,0,1,383.91,186.25Zm-2.11-1.79a10.31,10.31,0,0,0-1.19,11.82c1.05,2,1,3.25-.47,4.93v0Q367,216.34,354,231.44q-13.48,15.62-27,31.29l0,0c-1.6,1.86-2.89,2.05-5.16,1.15-3.73-1.45-7.14-.32-9.81,2.73a9,9,0,0,0-.49,11.65A9.17,9.17,0,0,0,322.87,281a9.63,9.63,0,0,0,3.25-2.45,8,8,0,0,0,1.71-8c-1.14-3.08-.07-4.75,1.7-6.8l.07-.08q12.76-14.72,25.5-29.45,13.27-15.34,26.48-30.72l0,0c1.64-1.9,3-2.84,5.81-2.09a10.1,10.1,0,0,0,10.3-3,9.55,9.55,0,0,0,1.44-2.21c2-4.42.8-10.38-2.76-13.15a11.24,11.24,0,0,0-13.06,0A12.19,12.19,0,0,0,381.8,184.46Z" transform="translate(-114.14 148.17)"/><path class="cls-39" d="M370.2,380.41l2.44,2.11a8.3,8.3,0,0,1,7,1.41l.08.07a8.05,8.05,0,0,1,2.5,6.09c.9.54,1.78,1,2.69,1.51a10.86,10.86,0,0,0-2.18-8.31,10.48,10.48,0,0,0-11.44-3.22A3.51,3.51,0,0,0,370.2,380.41Z" transform="translate(-114.14 148.17)"/><path class="cls-40" d="M493.42,138.93h0a8.27,8.27,0,0,0,.87,10.94c3.06,2.64,8.46,2.32,11-.68h0a8.37,8.37,0,0,0-.8-11.06l0,0a8.34,8.34,0,0,0-11,.76Z" transform="translate(-114.14 148.17)"/><path class="cls-41" d="M361.87,15.28l-.05.05a8,8,0,0,0,.89,10.89l.08.07a8.14,8.14,0,0,0,10.89-.74l0,0,.1-.12c2.47-3,2-8.49-.88-11l-.08-.07,0,0-.13-.12a8.29,8.29,0,0,0-10.82,1.09Z" transform="translate(-114.14 148.17)"/><path class="cls-42" d="M230.2,175.49l-.12.13a7.75,7.75,0,0,0,1,10.75l.18.15c3.1,2.55,8.33,2.15,10.82-.73l.17-.2,0,0c2.33-3,1.79-8.64-1-11.07l-.12-.1,0,0-.12-.1a8.16,8.16,0,0,0-10.73,1.23Z" transform="translate(-114.14 148.17)"/><path class="cls-43" d="M357.85,122.72l-.05.06a7.84,7.84,0,0,0,.87,10.83l.11.1c3.15,2.61,8.38,2.25,10.94-.71l.12-.13c2.39-2.93,1.88-8.67-.94-11.1l-.06,0a8.17,8.17,0,0,0-11,1Z" transform="translate(-114.14 148.17)"/><path class="cls-44" d="M437.23,288.88l-.11.14a7.79,7.79,0,0,0,.9,10.7l.2.17c3.08,2.48,8.42,2.08,10.88-.76l.15-.18c2.42-3,1.84-8.38-1.13-10.95l-.1-.09-.06-.05-.14-.12A7.93,7.93,0,0,0,437.23,288.88Z" transform="translate(-114.14 148.17)"/><path class="cls-45" d="M365.74,297h0a7.86,7.86,0,0,0,.88,10.81l0,0a7.91,7.91,0,0,0,11-.58l0,0c2.57-3,2.22-8.51-.68-11.09l-.08-.06c-2.94-2.54-8.34-2.15-11,.8Z" transform="translate(-114.14 148.17)"/><path class="cls-46" d="M268.64,91.11a7.93,7.93,0,0,0,.73,10.78l.1.09a8.07,8.07,0,0,0,10.91-.49l0,0,.12-.13c2.5-2.9,2.16-8.25-.74-10.9l-.14-.12a8.15,8.15,0,0,0-10.85.65v0A.31.31,0,0,0,268.64,91.11Z" transform="translate(-114.14 148.17)"/><path class="cls-47" d="M490,213.53l-.07.08a8.12,8.12,0,0,0,1,10.91l.1.09a8.05,8.05,0,0,0,10.85-.81l.12-.14a8.34,8.34,0,0,0-.87-10.94l-.12-.1A8.39,8.39,0,0,0,490,213.53Z" transform="translate(-114.14 148.17)"/><path class="cls-48" d="M264.4,33.1h0A7.84,7.84,0,0,0,265.27,44a8.08,8.08,0,0,0,11-.62l0,0c2.54-2.94,2.1-8.44-.86-11l0,0a8.13,8.13,0,0,0-10.94.79Z" transform="translate(-114.14 148.17)"/><path class="cls-49" d="M454.93,197.69a7.86,7.86,0,0,0,.81,10.86l0,0a8.07,8.07,0,0,0,11-.58l0,0,0,0c2.5-2.93,2.12-8.39-.82-11l-.08-.06a8.15,8.15,0,0,0-10.93.78v0h0s0,0,0,0Z" transform="translate(-114.14 148.17)"/><path class="cls-50" d="M198.77,71.77A7.84,7.84,0,0,0,210.63,82l0,0c2.55-3,2.18-8.5-.75-11l0,0a8.44,8.44,0,0,0-11.07.86S198.77,71.77,198.77,71.77Z" transform="translate(-114.14 148.17)"/><path class="cls-51" d="M436.93,105.61l-.07.08a7.68,7.68,0,0,0,.94,10.83l.09.08,0,0,.06.05c3.16,2.53,8.25,2.17,10.8-.78l0,0,.1-.12v0c2.43-3,1.94-8.65-.92-11.12l-.08-.07A8.23,8.23,0,0,0,436.93,105.61Z" transform="translate(-114.14 148.17)"/><path class="cls-52" d="M346.46,80.68a7.71,7.71,0,0,0,.69,10.78l.1.09a8.09,8.09,0,0,0,11-.44.74.74,0,0,0,.12-.13l0,0c2.4-2.82,2.06-8.48-.72-11l-.17-.16a8.18,8.18,0,0,0-10.89.78Z" transform="translate(-114.14 148.17)"/><path class="cls-53" d="M314.8-.95a8,8,0,0,0,.61,10.61l0,0,.16.14.16.13a7.92,7.92,0,0,0,10.85-.57l.1-.12,0,0c2.5-2.93,2.23-8.36-.59-11L326-1.89c-2.84-2.45-8.32-2.12-11,.73A2.09,2.09,0,0,1,314.8-.95Z" transform="translate(-114.14 148.17)"/><path class="cls-54" d="M156.22,189.16l-.11.12A7.47,7.47,0,0,0,154.4,194l9.07,7.83a7.62,7.62,0,0,0,4.57-2.41l0,0,.12-.14a8.27,8.27,0,0,0-1-10.91l-.12-.1A8.08,8.08,0,0,0,156.22,189.16Z" transform="translate(-114.14 148.17)"/><path class="cls-55" d="M383.91,186.25l-.07.08a7.87,7.87,0,0,0,.9,10.82l.1.09c3.05,2.53,8.43,2.15,10.92-.73l.1-.11a8.4,8.4,0,0,0-1-11l-.07-.06a8,8,0,0,0-10.87.86A0,0,0,0,1,383.91,186.25Z" transform="translate(-114.14 148.17)"/><path class="cls-56" d="M372.62,382.5l4.19,3.62a40.51,40.51,0,0,0,5.39,3.94,8,8,0,0,0-2.5-6.09l-.08-.07A8.32,8.32,0,0,0,372.62,382.5Z" transform="translate(-114.14 148.17)"/><path class="cls-57" d="M209.63,95l163.91,141.6,14.74-17.07c-23.61-.72-44.3-8.71-61.91-23.92Q294.6,168.12,292,130.43a88,88,0,0,1,3.6-32.3L244.79,54.27Z" transform="translate(-114.14 148.17)"/><path class="cls-58" d="M404,13.81,368.85,54.52,532.79,196.15,568,155.44Z" transform="translate(-114.14 148.17)"/><path class="cls-59" d="M390.91,29c-3.55-.16-7.07-.12-10.68.07q-37.86,2.32-63.38,31.86-15.3,17.7-21.26,37.18l64.26,55.51a43.73,43.73,0,0,1-15.47-29.25q-1.86-17.56,9-30.19c7-8.1,16.57-12.17,28.76-12.28a47.26,47.26,0,0,1,32.17,11.9L479.41,150a89.07,89.07,0,0,0,3.18-32.57Q479.52,79.76,448.47,53,422.4,30.51,390.91,29Z" transform="translate(-114.14 148.17)"/><path class="cls-60" d="M414.29,93.79,479.37,150q-5.49,18.83-19.78,35.37-29.38,34-67.3,34.18c-1.34,0-2.66,0-4-.05l20.43-23.65-48.9-42.24q14.87,12.84,33.05,12.76t29.23-12.83c7-8.1,9.71-18.1,8.22-30A45.93,45.93,0,0,0,414.29,93.79Z" transform="translate(-114.14 148.17)"/><path class="cls-60" d="M295.58,98.11l113.13,97.73-20.43,23.65c-23.61-.72-44.3-8.71-61.91-23.92Q294.6,168.12,292,130.43A88.16,88.16,0,0,1,295.58,98.11Z" transform="translate(-114.14 148.17)"/></svg>