<svg id="Layer_1" data-name="Layer 1" xmlns="http://www.w3.org/2000/svg" xmlns:xlink="http://www.w3.org/1999/xlink" viewBox="0 0 539.24 539.32"><defs><style>.cls-1{fill:url(#linear-gradient);}.cls-2{fill:url(#linear-gradient-2);}.cls-3{fill:url(#linear-gradient-3);}.cls-4{fill:url(#linear-gradient-4);}.cls-5{fill:url(#linear-gradient-5);}.cls-6{fill:url(#linear-gradient-6);}.cls-7{fill:url(#linear-gradient-7);}.cls-8{fill:url(#linear-gradient-8);}.cls-9{fill:url(#linear-gradient-9);}.cls-10{fill:url(#linear-gradient-10);}.cls-11{fill:url(#linear-gradient-11);}.cls-12{fill:url(#linear-gradient-12);}.cls-13{fill:url(#linear-gradient-13);}.cls-14{fill:url(#linear-gradient-14);}.cls-15{fill:url(#linear-gradient-15);}.cls-16{fill:url(#linear-gradient-16);}.cls-17{fill:url(#linear-gradient-17);}.cls-18{fill:url(#linear-gradient-18);}.cls-19{fill:url(#linear-gradient-19);}.cls-20{fill:url(#linear-gradient-20);}.cls-21{fill:url(#linear-gradient-21);}.cls-22{fill:url(#linear-gradient-22);}.cls-23{fill:url(#linear-gradient-23);}.cls-24{fill:url(#linear-gradient-24);}.cls-25{fill:url(#linear-gradient-25);}.cls-26{fill:url(#linear-gradient-26);}.cls-27{fill:url(#linear-gradient-27);}.cls-28{fill:url(#linear-gradient-28);}.cls-29{fill:url(#linear-gradient-29);}.cls-30{fill:url(#linear-gradient-30);}.cls-31{fill:url(#linear-gradient-31);}.cls-32{fill:url(#linear-gradient-32);}.cls-33{fill:url(#linear-gradient-33);}.cls-34{fill:url(#linear-gradient-34);}.cls-35{fill:url(#linear-gradient-35);}.cls-36{fill:url(#linear-gradient-36);}.cls-37{fill:url(#linear-gradient-37);}.cls-38{fill:url(#linear-gradient-38);}.cls-39{fill:url(#linear-gradient-39);}.cls-40{fill:url(#linear-gradient-40);}.cls-41{fill:url(#linear-gradient-41);}.cls-42{fill:url(#linear-gradient-42);}.cls-43{fill:url(#linear-gradient-43);}.cls-44{fill:url(#linear-gradient-44);}.cls-45{fill:url(#linear-gradient-45);}.cls-46{fill:url(#linear-gradient-46);}.cls-47{fill:url(#linear-gradient-47);}.cls-48{fill:url(#linear-gradient-48);}.cls-49{fill:url(#linear-gradient-49);}.cls-50{fill:url(#linear-gradient-50);}.cls-51{fill:url(#linear-gradient-51);}.cls-52{fill:url(#linear-gradient-52);}.cls-53{fill:url(#linear-gradient-53);}.cls-54{fill:url(#linear-gradient-54);}.cls-55{fill:url(#linear-gradient-55);}.cls-56{fill:#47bde8;}.cls-57{fill:#e9e858;}.cls-58{fill:#afd35f;}.cls-59{fill:#fff;}</style><linearGradient id="linear-gradient" x1="173.61" y1="59.06" x2="438.76" y2="365.99" gradientTransform="matrix(1, 0, 0, -1, -30, 500)" gradientUnits="userSpaceOnUse"><stop offset="0" stop-color="#704a9d"/><stop offset="0.69" stop-color="#b42f7d"/><stop offset="1" stop-color="#cb1a71"/></linearGradient><linearGradient id="linear-gradient-2" x1="191.66" y1="43.46" x2="456.74" y2="350.31" gradientTransform="matrix(1, 0, 0, -1, -30, 500)" gradientUnits="userSpaceOnUse"><stop offset="0" stop-color="#8160a7"/><stop offset="0.65" stop-color="#b9558d"/><stop offset="1" stop-color="#d24b81"/></linearGradient><linearGradient id="linear-gradient-3" x1="215.75" y1="22.65" x2="480.83" y2="329.5" xlink:href="#linear-gradient-2"/><linearGradient id="linear-gradient-4" x1="163.12" y1="68.12" x2="428.2" y2="374.97" xlink:href="#linear-gradient-2"/><linearGradient id="linear-gradient-5" x1="139.76" y1="88.3" x2="404.84" y2="395.15" xlink:href="#linear-gradient-2"/><linearGradient id="linear-gradient-6" x1="270.24" y1="-24.42" x2="535.32" y2="282.43" xlink:href="#linear-gradient-2"/><linearGradient id="linear-gradient-7" x1="225.54" y1="14.2" x2="490.61" y2="321.04" xlink:href="#linear-gradient-2"/><linearGradient id="linear-gradient-8" x1="92.56" y1="129.07" x2="357.64" y2="435.92" xlink:href="#linear-gradient-2"/><linearGradient id="linear-gradient-9" x1="68.96" y1="149.46" x2="334.04" y2="456.31" xlink:href="#linear-gradient-2"/><linearGradient id="linear-gradient-10" x1="116.24" y1="108.62" x2="381.32" y2="415.46" xlink:href="#linear-gradient-2"/><linearGradient id="linear-gradient-11" x1="85.12" y1="135.57" x2="350.19" y2="442.4" xlink:href="#linear-gradient-2"/><linearGradient id="linear-gradient-12" x1="296.23" y1="-46.87" x2="561.31" y2="259.97" xlink:href="#linear-gradient-2"/><linearGradient id="linear-gradient-13" x1="282.98" y1="-35.42" x2="548.05" y2="271.42" xlink:href="#linear-gradient-2"/><linearGradient id="linear-gradient-14" x1="162.84" y1="68.36" x2="427.92" y2="375.21" xlink:href="#linear-gradient-2"/><linearGradient id="linear-gradient-15" x1="50.7" y1="165.24" x2="315.78" y2="472.08" xlink:href="#linear-gradient-2"/><linearGradient id="linear-gradient-16" x1="304.25" y1="-53.8" x2="569.33" y2="253.04" xlink:href="#linear-gradient-2"/><linearGradient id="linear-gradient-17" x1="252.78" y1="-9.37" x2="517.86" y2="297.47" xlink:href="#linear-gradient-2"/><linearGradient id="linear-gradient-18" x1="66.47" y1="151.61" x2="331.55" y2="458.45" xlink:href="#linear-gradient-2"/><linearGradient id="linear-gradient-19" x1="51.3" y1="164.72" x2="316.38" y2="471.56" xlink:href="#linear-gradient-2"/><linearGradient id="linear-gradient-20" x1="287.9" y1="-39.67" x2="552.97" y2="267.17" xlink:href="#linear-gradient-2"/><linearGradient id="linear-gradient-21" x1="300.74" y1="-50.77" x2="565.82" y2="256.08" xlink:href="#linear-gradient-2"/><linearGradient id="linear-gradient-22" x1="96.35" y1="125.8" x2="361.43" y2="432.64" xlink:href="#linear-gradient-2"/><linearGradient id="linear-gradient-23" x1="46.97" y1="168.45" x2="312.05" y2="475.3" xlink:href="#linear-gradient-2"/><linearGradient id="linear-gradient-24" x1="273.32" y1="-27.08" x2="538.4" y2="279.76" xlink:href="#linear-gradient-2"/><linearGradient id="linear-gradient-25" x1="68.33" y1="150.01" x2="333.41" y2="456.85" xlink:href="#linear-gradient-2"/><linearGradient id="linear-gradient-26" x1="66.13" y1="151.9" x2="331.21" y2="458.75" xlink:href="#linear-gradient-2"/><linearGradient id="linear-gradient-27" x1="286.92" y1="-38.83" x2="552" y2="268.01" xlink:href="#linear-gradient-2"/><linearGradient id="linear-gradient-28" x1="323.7" y1="-70.61" x2="588.78" y2="236.24" xlink:href="#linear-gradient-2"/><linearGradient id="linear-gradient-29" x1="139.14" y1="88.84" x2="404.21" y2="395.68" xlink:href="#linear-gradient-2"/><linearGradient id="linear-gradient-30" x1="268.02" y1="-22.5" x2="533.1" y2="284.34" xlink:href="#linear-gradient-2"/><linearGradient id="linear-gradient-31" x1="37.84" y1="176.35" x2="302.91" y2="483.19" xlink:href="#linear-gradient-2"/><linearGradient id="linear-gradient-32" x1="306.43" y1="-55.69" x2="571.51" y2="251.16" xlink:href="#linear-gradient-2"/><linearGradient id="linear-gradient-33" x1="193.79" y1="41.62" x2="458.87" y2="348.47" xlink:href="#linear-gradient-2"/><linearGradient id="linear-gradient-34" x1="81.96" y1="138.23" x2="347.04" y2="445.08" xlink:href="#linear-gradient-2"/><linearGradient id="linear-gradient-35" x1="52.93" y1="163.31" x2="318.01" y2="470.15" xlink:href="#linear-gradient-2"/><linearGradient id="linear-gradient-36" x1="80.96" y1="139.1" x2="346.04" y2="445.94" xlink:href="#linear-gradient-2"/><linearGradient id="linear-gradient-37" x1="208.78" y1="28.67" x2="473.86" y2="335.52" xlink:href="#linear-gradient-2"/><linearGradient id="linear-gradient-38" x1="297.29" y1="-47.79" x2="562.37" y2="259.06" xlink:href="#linear-gradient-2"/><linearGradient id="linear-gradient-39" x1="247.79" y1="-5.03" x2="512.87" y2="301.82" xlink:href="#linear-gradient-2"/><linearGradient id="linear-gradient-40" x1="112.45" y1="111.89" x2="377.53" y2="418.74" xlink:href="#linear-gradient-2"/><linearGradient id="linear-gradient-41" x1="116.29" y1="108.57" x2="381.37" y2="415.42" xlink:href="#linear-gradient-2"/><linearGradient id="linear-gradient-42" x1="162.88" y1="68.33" x2="427.95" y2="375.17" xlink:href="#linear-gradient-2"/><linearGradient id="linear-gradient-43" x1="289.41" y1="-40.98" x2="554.49" y2="265.86" xlink:href="#linear-gradient-2"/><linearGradient id="linear-gradient-44" x1="252.82" y1="-9.37" x2="517.89" y2="297.48" xlink:href="#linear-gradient-2"/><linearGradient id="linear-gradient-45" x1="96.72" y1="125.48" x2="361.8" y2="432.32" xlink:href="#linear-gradient-2"/><linearGradient id="linear-gradient-46" x1="282.38" y1="-34.91" x2="547.46" y2="271.93" xlink:href="#linear-gradient-2"/><linearGradient id="linear-gradient-47" x1="65.87" y1="152.13" x2="330.95" y2="458.97" xlink:href="#linear-gradient-2"/><linearGradient id="linear-gradient-48" x1="254.74" y1="-11.03" x2="519.81" y2="295.82" xlink:href="#linear-gradient-2"/><linearGradient id="linear-gradient-49" x1="47.58" y1="167.93" x2="312.65" y2="474.78" xlink:href="#linear-gradient-2"/><linearGradient id="linear-gradient-50" x1="199.37" y1="36.8" x2="464.45" y2="343.65" xlink:href="#linear-gradient-2"/><linearGradient id="linear-gradient-51" x1="135.8" y1="91.72" x2="400.88" y2="398.57" xlink:href="#linear-gradient-2"/><linearGradient id="linear-gradient-52" x1="77.79" y1="141.84" x2="342.86" y2="448.68" xlink:href="#linear-gradient-2"/><linearGradient id="linear-gradient-53" x1="80.98" y1="139.08" x2="346.06" y2="445.92" xlink:href="#linear-gradient-2"/><linearGradient id="linear-gradient-54" x1="208.8" y1="28.66" x2="473.88" y2="335.5" xlink:href="#linear-gradient-2"/><linearGradient id="linear-gradient-55" x1="297.33" y1="-47.83" x2="562.41" y2="259.02" xlink:href="#linear-gradient-2"/></defs><path class="cls-1" d="M463.73,296.19a8.63,8.63,0,0,1,.34,10.7C466.47,304.12,466.31,298.9,463.73,296.19ZM326.81,451.07l-.12.14Zm63.27-75.51A8.27,8.27,0,0,1,391,386.4C393.43,383.33,393,378.07,390.08,375.56Zm62.24-78.79a7.87,7.87,0,0,0,.6,10.56A7.84,7.84,0,0,1,452.32,296.77Zm-73.25,79.61-.06.08ZM500.88,220.55c2.86,2.46,3.33,7.88.89,10.89C504.17,228.43,503.72,223,500.88,220.55ZM355.23,359.85l.08.07ZM267,458.23l.08.06c2.88,2.56,3.21,8.06.68,11,2.54-2.95,2.2-8.43-.68-11Zm-10.13,11.64a7.84,7.84,0,0,0,10.87-.57l0,0,0,0A7.82,7.82,0,0,1,256.83,469.87Zm87.52-109.19a7.77,7.77,0,0,0,.82,10.74A7.76,7.76,0,0,1,344.35,360.68Zm-88.43,98.48a7.79,7.79,0,0,0,.89,10.7A7.77,7.77,0,0,1,255.92,459.16ZM382.49,302.45a8.19,8.19,0,0,0,.88,10.83A8.16,8.16,0,0,1,382.49,302.45Zm78.12-123.13a8.4,8.4,0,0,1,1.08,10.86C464.11,187.15,463.54,181.88,460.61,179.32ZM274,349.34l-.06.07Zm53.53-69,.06.05Zm-68.39,5.09c2.79,2.41,3.26,8.1.93,11C262.37,293.48,261.88,287.81,259.09,285.4ZM133.53,348.65l-.17.19Zm-12-10-.11.13ZM252.11,179.85l-.05.06Zm-81.52,74.36.13.12c2.87,2.64,3.22,7.93.74,10.8,2.48-2.87,2.15-8.17-.74-10.8ZM331.71,67.59a7.42,7.42,0,0,1-1.52,3.53A7.26,7.26,0,0,0,331.71,67.59ZM159.8,254.89l0,0ZM318.26,61.15l-.08.1ZM59.11,351.41a8.23,8.23,0,0,1,1,10.82A8.19,8.19,0,0,0,59.11,351.41Zm157.4-188.55.15.13c2.81,2.6,3.08,8,.58,10.9a8.51,8.51,0,0,0-.58-10.9Zm-10.44,11.45.16.13A.26.26,0,0,1,206.07,174.31ZM48.24,352.22l-.1.12ZM247.65,111.08l0,0Zm-81.28,85.61,0,0Zm-10,11.63a8,8,0,0,0,10.9-.62A8.05,8.05,0,0,1,156.33,208.32Zm-.86-10.77a7.79,7.79,0,0,0,.86,10.77A7.8,7.8,0,0,1,155.47,197.55ZM90.41,235.87a8,8,0,0,0,.88,10.86A8,8,0,0,1,90.41,235.87ZM360.17,500.39a8.86,8.86,0,0,1-2.61-8.55,9.17,9.17,0,0,1,14.66-5.4ZM499.89,338.65h-.3a8.74,8.74,0,0,1-8.23-5.38,8.43,8.43,0,0,1,1.39-9.58l.07-.07,0,0c4.23-4.89,10.95-4.6,14.57,1.13a5.21,5.21,0,0,0,2.52,2.31Zm-48.1,55.69c-3.92-3.39-7.84-6.77-11.74-10.18-2.08-1.79-3.63-1.92-6.09-.92a8.75,8.75,0,0,1-10.56-3.7c-2.3-3.65-1.94-7.64,1-11l.1-.12a8.37,8.37,0,0,1,10.19-2.34c4.18,1.71,6.62,5.95,5.35,10.2-.95,3.18.24,4.62,2.38,6.46q5.55,4.81,11.12,9.61Zm-189,149.54-2.43-2.1c.35-.13.71-.27,1.08-.38a10.4,10.4,0,0,1,11.34,3.19,10.82,10.82,0,0,1,2.17,8.24,28.44,28.44,0,0,1-2.68-1.5,37.74,37.74,0,0,1-5.33-3.86Zm134.58-86.52c-5.07-4.38-10.15-8.73-15.21-13.11-2.48-2.14-3.84-4.33-3.89-7.66a111.09,111.09,0,0,0-1-13.38,5.48,5.48,0,0,0-2.61-3.57c-4.47-2.24-6.81-5.95-6-10.32a9.28,9.28,0,0,1,2.15-4.45,9,9,0,0,1,6.16-3.17,9.6,9.6,0,0,1,9.45,6.2,8.73,8.73,0,0,1-1.85,9,14.16,14.16,0,0,1-2.4,2.19,2.22,2.22,0,0,0-.41.4,13.94,13.94,0,0,0-1.58,3.24c-.16.34.1.87.06,1.27-1.08,11.44,3.65,19.38,12.87,26.47,2.06,1.58,4.07,3.18,6.08,4.81ZM337,527.19l-4.08-55.88c-.1-1.44.05-2.87.08-4.64-5.48-.67-8.95-2.85-10.3-7.61a9.81,9.81,0,0,1,2-9.62c.21-.23.42-.48.66-.72,3.08-3.1,6.78-3.69,10.78-2.44,4.17,1.29,6.33,4.52,6.75,8.67.28,2.85-.13,5.72-1.86,7.72a7.24,7.24,0,0,1-2.55,1.85,5.81,5.81,0,0,0-2.05,1.39c-1.12,1.3-.95,2.9-.79,4.84q1.95,26.75,3.92,53.47l-2.58,3ZM466,308.86a10.28,10.28,0,0,1-9.55,3.14,10.37,10.37,0,0,1-6.15-17,10.32,10.32,0,0,1,4.79-3.11c4.69-1.47,9.86.11,11.89,4.44,1.44,3.07,3.32,3.21,6.11,3q32.38-2.43,64.78-4.75c-.54.71-1.11,1.44-1.71,2.14l-.67.78q-31.61,2.28-63.2,4.56a4.46,4.46,0,0,0-3.38,1.32,6.24,6.24,0,0,0-1.08,2.15A9.5,9.5,0,0,1,466,308.86ZM428.51,421.29l-33.55-29c-1.78-1.54-3.15-2.75-6-1.42a9.94,9.94,0,0,1-12.63-3.53,10.68,10.68,0,0,1,.7-12.82,3,3,0,0,1,.35-.37,10.94,10.94,0,0,1,12.79-1.82c4.18,2.26,6,7.19,4.63,12.33-.26,1-.61,1.88-1,3.15l3.53,3.05,32.88,28.41ZM321.38,435.24c1.41-1.63,2.18-3,1.13-5.47a8.41,8.41,0,0,1,1.49-8.94,11.62,11.62,0,0,1,2.29-2c3.47-2.25,7.75-1.71,11.09,1.41a9.09,9.09,0,0,1,.66,12.61,8.54,8.54,0,0,1-9.33,2.64c-2.69-.93-4-.09-5.55,1.68l-.23.27c-.86,1-1.73,2-2.58,3s-1.91,2.21-2.89,3.3-1.93,2.19-2.88,3.3c-1.85,2.13-3.69,4.3-5.42,6.54a11,11,0,0,0-2.31,6.87q3.24,45.5,6.55,91c-.87.53-1.76,1-2.69,1.47q-3.42-46.82-6.76-93.64a9.63,9.63,0,0,1,2-6.14c2.32-2.88,4.71-5.73,7.12-8.52,2.68-3.11,5.4-6.18,8.11-9.23ZM246.17,522.3c1.75-2,3-3.64,1.27-6.77-1.65-2.95-.81-6.39,1.44-9a11,11,0,0,1,1.84-1.7,9.21,9.21,0,0,1,13.7,11.2,9.33,9.33,0,0,1-1.62,2.62,7.82,7.82,0,0,1-7.73,2.79c-3.46-.82-5.17.54-7.19,2.87l0,0-3.26,3.79-2-1.71,3.37-3.9ZM433.11,312.5a9.28,9.28,0,0,1-15.31-10.17,11.14,11.14,0,0,1,1.33-2,8.68,8.68,0,0,1,9.26-2.68c2.62.78,3.82-.18,5.23-1.81l.17-.2c1.13-1.35,2.29-2.69,3.45-4l3.43-4,3.42-4c2.23-2.58,4.44-5.18,6.61-7.77l.21-.23a9.44,9.44,0,0,1,7.06-3.52q43.74-3.14,87.49-6.31c.1.9.19,1.82.23,2.7l-86.1,6.26a9.91,9.91,0,0,0-7.47,3.54l-.24.27c-2.45,3-5,6-7.49,8.91-2.93,3.4-5.92,6.78-8.89,10.14l-.1.12c-1.41,1.63-1.84,2.95-.9,5.19A8.92,8.92,0,0,1,433.11,312.5Zm-147.34,244Q281.9,503.8,278,451.12a14.59,14.59,0,0,1,3.82-11.72l.23-.27c5.78-6.49,11.5-13.07,17.18-19.65,2.93-3.4,5.85-6.77,8.76-10.18s5.85-6.81,8.78-10.21l2.47-2.85c1.06-1.22,2.27-2.31,3.4-3.46l1.42,1a33.73,33.73,0,0,1-2.61,3.88c-6.68,7.78-13.33,15.59-20,23.35q-8.07,9.35-16.3,18.55l-.3.35c-3.39,3.92-4.31,7.73-3.92,12.81q4,52,7.73,104.12A24.79,24.79,0,0,1,285.77,556.51ZM388.11,338a9.42,9.42,0,0,1-15.19-2.79c-1.44-3.38-1-6.57,2.11-10.2l.29-.33c3.29-3.77,9.92-3.56,13.57,1.93,1.62,2.45,3.22,2.68,5.66,2.48,20.88-1.58,41.77-3,62.64-4.66a9.26,9.26,0,0,1,7.4,2.49q13,11.27,26,22.48l-1.83,2.12q-12.54-10.85-25.06-21.72a9.67,9.67,0,0,0-7.78-2.52c-20.3,1.61-40.62,3.06-60.93,4.49-1.81.13-3.25.31-4.27,1.49a5.66,5.66,0,0,0-1.07,2.06A8.4,8.4,0,0,1,388.11,338Zm-7.74,139q-10.55-9.11-21.13-18.18a10.21,10.21,0,0,1-3.8-7.72c-1.64-24.77-3.45-49.54-5.24-74.53-1.26-.34-2.35-.57-3.36-.94a10.39,10.39,0,0,1-6.91-11.22,10.55,10.55,0,0,1,2.47-5.59,10.32,10.32,0,0,1,17.62,3.6,10.11,10.11,0,0,1-1.69,9.88,9.46,9.46,0,0,1-3,2.31,5.08,5.08,0,0,0-1.59,1.17c-.8.93-.88,2-.76,3.55,1.82,23.9,3.46,47.81,5.42,71.7a10.72,10.72,0,0,0,3.54,6.34l20.2,17.56ZM250.9,475.56c2-2.37,3.45-4.14,1.44-7.67s-1-7.67,1.52-10.54a9.92,9.92,0,0,1,1.93-1.73,11.2,11.2,0,0,1,13,.49,11.07,11.07,0,0,1,2.63,12.34,9.51,9.51,0,0,1-1.62,2.62,9.74,9.74,0,0,1-9.72,3.17c-3.07-.76-4.68.16-6.55,2.33l0,0L224.21,510.5l-2-1.72q14.32-16.59,28.66-33.15S250.87,475.6,250.9,475.56ZM396.44,314.2a10.92,10.92,0,0,1-2.38,2,10.48,10.48,0,0,1-13.46-15.76,9.53,9.53,0,0,1,10.6-2.94c3.44,1.32,5.05.16,7-2.15a.74.74,0,0,0,.12-.13c12.48-14.6,25.11-29.07,37.6-43.69l.07-.07a9.66,9.66,0,0,1,7.22-3.66q44.85-3.19,89.66-6.47A33.56,33.56,0,0,1,535.5,244q-45.44,3.28-90.9,6.55a10,10,0,0,0-7.54,3.82l-.09.1q-8.88,10.41-17.82,20.75-9.76,11.3-19.57,22.53l-.07.08c-1.69,2-2.47,3.53-1.37,6.3A9.8,9.8,0,0,1,396.44,314.2ZM239.26,435.62q32.12-37.17,64.2-74.31l3.55-4.12c-4-6.25-4.16-9.66-.82-13.52l.13-.15a8.88,8.88,0,0,1,10.59-2.38A9.25,9.25,0,0,1,322,351.59a9.84,9.84,0,0,1-2.14,4.28,7.53,7.53,0,0,1-6.49,2.73c-3.48-.36-5.17,1.23-7.11,3.48l0,0Q252,424.94,197.79,487.75l-2-1.76Zm233.36-65.4c-4.85-4.19-9.7-8.42-14.55-12.61a8.74,8.74,0,0,0-7-2.34c-20.44,1.62-40.88,3-61.34,4.61a9.25,9.25,0,0,1-7.38-2.48c-14.24-12.47-28.6-24.74-42.87-37.17-1.92-1.66-3.41-2.41-6-1.18a8.74,8.74,0,0,1-10.76-3.12,9.29,9.29,0,0,1,.4-11.28l.1-.12a9.38,9.38,0,0,1,10.92-2.36c4.05,2.05,6.18,6,4.94,10.44-.71,2.54,0,3.89,1.82,5.5,14.25,12.21,28.39,24.56,42.72,36.67a10.21,10.21,0,0,0,6.5,2.12c20.61-1.3,41.2-3,61.79-4.25a10.61,10.61,0,0,1,6.86,2.3l15.55,13.33Zm-202.38-6.07c1.44-1.67,1.48-2.89.46-4.89a10.2,10.2,0,0,1,1.18-11.72,12.63,12.63,0,0,1,1.58-1.51,11.18,11.18,0,0,1,12.94,0c3.55,2.73,4.78,8.63,2.74,13a10.28,10.28,0,0,1-1.42,2.19,10,10,0,0,1-10.22,3c-2.8-.72-4.13.19-5.76,2.08l0,0q-13.12,15.24-26.24,30.45-12.63,14.61-25.28,29.19l-.07.08c-1.76,2-2.82,3.69-1.69,6.74a7.94,7.94,0,0,1-1.7,7.92,9.52,9.52,0,0,1-3.22,2.43,9.12,9.12,0,0,1-11.25-2.7,9,9,0,0,1,.49-11.54c2.65-3,6-4.15,9.73-2.71,2.24.89,3.52.7,5.11-1.14l0,0q13.32-15.54,26.73-31,12.87-15,25.9-29.94Zm9.11-51.62,3.41-3.94c-2.63-4.3-3.8-8.47-.45-12.62l.22-.25a9.17,9.17,0,0,1,15.84,8.33,10,10,0,0,1-2,3.84,8.1,8.1,0,0,1-7.74,2.84c-3.11-.63-4.66.57-6.47,2.67l0,0q-25.77,29.88-51.54,59.73-28.31,32.78-56.66,65.48v0a9.09,9.09,0,0,0-2.57,7.74c.6,4.72.55,9.53,1.19,14.24a9.78,9.78,0,0,1-.52,4.84l-2.46-2.13a11.06,11.06,0,0,0,.15-3.63c-.67-6.17-2.55-12.94-.71-18.4a19,19,0,0,1,3.87-6.28c1.19-1.38,2.51-2.71,3.83-4s2.64-2.67,3.83-4l0,0,53.7-62.17Q256.79,338.66,279.35,312.53Zm-36.69-10.12c2-2.37,3.42-4.16,1.65-7.72a9.06,9.06,0,0,1,1.62-10,12,12,0,0,1,2.35-2.07,11.06,11.06,0,0,1,12.58.74c3.34,2.88,4.42,8.42,2.44,12.75a9.76,9.76,0,0,1-1.48,2.31,9.4,9.4,0,0,1-9.69,3.05c-3.66-1.1-5.4.21-7.56,2.71l0,0Q189.25,368.32,133.84,432.5l-2.1-1.81q55.45-64.06,110.84-128.18Zm-28.37-13.56c2-2.27,3.32-4,1.39-7.34-1.76-3-.93-6.76,1.3-9.34A9.72,9.72,0,0,1,218.2,271a9,9,0,0,1,10.88-.4c3.74,2.69,5.16,6.66,3.74,10.58a10.35,10.35,0,0,1-1.86,3.17,8,8,0,0,1-7.57,2.88c-3.15-.62-4.68.67-6.47,2.75l0,0q-41.15,47.68-82.36,95.38l-23.6,27.32-2.08-1.8,28.31-32.77q38.55-44.61,77.12-89.23S214.28,288.87,214.29,288.85Zm-97.43,66.7c2.14-2.48,3.25-4.23,1.2-7.66-2.15-3.59-1.27-7.87,1.4-11a10.69,10.69,0,0,1,1.87-1.74,11.12,11.12,0,0,1,13,.39c3.22,2.71,4.36,8.06,2.65,12.31a10.42,10.42,0,0,1-1.74,2.84,9.07,9.07,0,0,1-8.64,3.1c-3.4-.66-5.21.62-7.24,3l0,0Q103.69,374.94,88.1,393L86,391.2q15.39-17.81,30.81-35.63Zm-42,6.93c1.91-2.22,3-3.91,1.52-7.1a8,8,0,0,1,1.51-8.69A9.83,9.83,0,0,1,80,344.83,9.34,9.34,0,0,1,93.48,356.3a9.81,9.81,0,0,1-1.58,2.5,8.06,8.06,0,0,1-8.27,2.78c-3.38-1-4.88.39-6.77,2.59l-.06.05q-4.69,5.44-9.38,10.91l-2-1.71q4.71-5.44,9.42-10.87S74.84,362.49,74.86,362.48Zm-30.94-7.65a4.62,4.62,0,0,0,.46-1,10.93,10.93,0,0,1,2-3.65,10,10,0,0,1,10-3,10.34,10.34,0,0,1,8.08,9.9,10,10,0,0,1-6.55,9.89l-2.48-2.14-9-7.76ZM229.25,31.66,218.56,44q.75,10.37,1.49,20.7c.18,2.5.32,4.42,3.37,5.63,4.35,1.75,6.07,6.12,5.05,10.36a9.31,9.31,0,0,1-2,3.92,9,9,0,0,1-6.3,3.1,9.3,9.3,0,0,1-9.37-6.26,8.76,8.76,0,0,1,1.58-8.7A10.28,10.28,0,0,1,215,70.68a6,6,0,0,0,1.54-1.2,4.58,4.58,0,0,0,.87-3.63c-.46-6.29-.92-12.59-1.4-18.86L188,79.41q19.62,16.95,39.3,33.85a9.69,9.69,0,0,1,3.72,7.31c1.39,20.75,3,41.48,4.45,62.23.17,2.55.41,4.39,3.51,5.43,4.29,1.47,6.2,6,5.25,10.23a9.32,9.32,0,0,1-8.15,7.29,9.34,9.34,0,0,1-9.64-6.49,8.79,8.79,0,0,1,1.64-8.49,9.11,9.11,0,0,1,2.38-1.93,5.76,5.76,0,0,0,1.53-1.19,4.56,4.56,0,0,0,.86-3.62c-1.61-21.15-3-42.34-4.81-63.49-.17-2.08-1.86-4.45-3.51-5.91Q205.4,98,186.24,81.48L171,99.1q16.65,14.39,33.31,28.71a9.91,9.91,0,0,1,3.89,7.66c.27,7.49,1,15,1.48,22.56,8.16,1.42,11.49,4.27,12,9.79a10.22,10.22,0,0,1-2.41,7.77,10.54,10.54,0,0,1-4.9,3.16,10.35,10.35,0,0,1-12-4.5,10.53,10.53,0,0,1,.75-11.89,6.56,6.56,0,0,1,1.19-1.1,8,8,0,0,0,1.22-1.15c1.26-1.45,1.44-3,1.25-5.09-.58-6.46-.77-13-1.55-19.43a9.68,9.68,0,0,0-2.93-5.75q-16.5-14.36-33.08-28.68l-29.4,34,45.32,39.15c1.67,1.45,3,2.62,5.62,1.47a8.75,8.75,0,0,1,11.29,3.59A8.84,8.84,0,0,1,201,190.19l-.28.33A8.63,8.63,0,0,1,190,192.44c-4.19-2.29-5.84-6.19-4.64-11,.21-.84.48-1.66.76-2.69l-3.9-3.37q-22.08-19.1-44.2-38.19L116.61,162l35.51,30.67c.66.57,1.36,1,2,1.55,8-3,12.42-2.38,15.56,2.22a10.72,10.72,0,0,1-.38,13l-.22.26a10.76,10.76,0,0,1-12.72,2.05c-5.12-2.82-6.32-7.12-4.14-15.36l-4.13-3.57-33.22-28.7L95.78,186.2q15.69,13.55,31.29,27.16a11.82,11.82,0,0,0,9.65,3.3c20.15-1.67,40.32-3.09,60.49-4.4a9.62,9.62,0,0,1,6.11,2c9.87,8.22,19.54,16.68,29.23,25.15,1.77,1.52,3.06,2.3,5.6,1a9.84,9.84,0,0,1,12.7,2.94c2.9,4.13,2.83,9.79-.17,13.27l0,0A11,11,0,0,1,237.94,259a10.09,10.09,0,0,1-5.14-12.48c.69-2.25.23-3.32-1.38-4.71-9.77-8.34-19.43-16.85-29.29-25.09a9,9,0,0,0-5.81-1.71q-30.48,2-60.92,4.43a10.49,10.49,0,0,1-8.55-2.77Q110.44,202.44,94,188.22L79.67,204.81c14.49,12.52,29,25.08,43.58,37.48a10.2,10.2,0,0,0,6.49,2.22c20.61-1.31,41.2-2.94,61.8-4.35,1.77-.13,3-.42,3.94-1.51a6,6,0,0,0,1.08-2,7.19,7.19,0,0,1,1.34-2.29,9.12,9.12,0,0,1,8.63-2.74A9.57,9.57,0,0,1,214,240.1a9.28,9.28,0,0,1-2.36,6.53,9.16,9.16,0,0,1-4.08,2.77,8.56,8.56,0,0,1-10.45-3.91c-1.35-2.59-2.92-2.89-5.49-2.7-20.73,1.6-41.48,3-62.21,4.67a9.2,9.2,0,0,1-7.38-2.45q-22-19.08-44.12-38.18L45.86,243.94l37.74-2.77c.58,0,1.13-.14,2-.27a17.25,17.25,0,0,1,3.34-7.24,9.24,9.24,0,0,1,8.1-3.14,10,10,0,0,1,9.56,8.5,10.44,10.44,0,0,1-2.36,8.73,9.84,9.84,0,0,1-3.59,2.63c-4.62,2-10.15.85-12.65-3.48-1.65-2.88-3.5-3.09-6.28-2.88-12.78,1-25.58,1.92-38.37,2.87L17.33,277q43.38-3.15,86.77-6.27c1.73-.12,2.91-.46,3.78-1.47a6.06,6.06,0,0,0,1.11-2.16,8.07,8.07,0,0,1,1.52-2.69,9.07,9.07,0,0,1,8.17-2.87,9.73,9.73,0,0,1,7.86,8.15,9.64,9.64,0,0,1-5.54,9.48c-3.75,1.64-8.75.67-10.79-2.88-1.65-2.88-3.55-3-6.33-2.83q-44.5,3.33-89,6.55a39.56,39.56,0,0,0-8.27,25.89q60-4.41,120.14-8.74a10.38,10.38,0,0,0,7.87-3.73l.2-.24c3-3.59,6-7.14,9.08-10.69,3.65-4.23,7.33-8.41,11-12.62l.12-.14c1.44-1.67,2.19-3,1.1-5.51a10.26,10.26,0,0,1,1.44-11,10.38,10.38,0,0,1,2.32-2c3.85-2.41,9.92-1.9,12.92,1.06a11.47,11.47,0,0,1,1.9,12.86,10.18,10.18,0,0,1-12.7,4.58c-2.52-.89-3.6,0-4.94,1.59l-.1.12-2.45,2.83c-1.59,1.85-3.16,3.67-4.77,5.5s-3.21,3.67-4.8,5.51c-2.9,3.36-5.77,6.71-8.59,10.13l-.25.29a11.26,11.26,0,0,1-8.54,4q-60.37,4.41-120.8,8.8a39.78,39.78,0,0,0,9.54,21.86Q79,325.9,141.83,321.36a10.44,10.44,0,0,0,7.84-3.8l.22-.25c2.47-3,5-5.94,7.53-8.87l2.42-2.8,2.38-2.75c2.66-3.09,5.29-6.17,7.9-9.31a6.57,6.57,0,0,0,1-5.19c-1-3.64-.43-7,1.71-9.47A10.77,10.77,0,0,1,175,277a9,9,0,0,1,10.82,1.08,9.06,9.06,0,0,1,2.15,11,9.18,9.18,0,0,1-1.29,2,8.83,8.83,0,0,1-9.28,2.62c-2.38-.66-3.64,0-5.06,1.66l-.07.08c-1.62,1.92-3.25,3.8-4.89,5.7-1.32,1.54-2.65,3.07-4,4.6s-2.65,3.07-4,4.6c-2.9,3.36-5.77,6.71-8.61,10.12l-.15.17a9,9,0,0,1-6.83,3.28Q81.32,328.4,18.72,333c.52.49,1,1,1.57,1.43L266.92,547.47a39.79,39.79,0,0,0,56.12-4.1L536.1,296.74a39.79,39.79,0,0,0-4.1-56.12l-27-23.3c-.87,1.32-1.06,2.64,0,4.63a10.1,10.1,0,0,1-1.3,11.35,10.57,10.57,0,0,1-1.59,1.48,10.48,10.48,0,0,1-15.83-12.69,10.62,10.62,0,0,1,1.61-2.54,9.85,9.85,0,0,1,10.23-3.06,4.55,4.55,0,0,0,4.79-1l-18.47-16-9.81,11.35,0,0c-2,2.29-3.19,4.12-1.76,7.46,1.14,2.68.24,5.76-1.72,8a11,11,0,0,1-2.73,2.25,9.27,9.27,0,0,1-12.61-12.31,8.7,8.7,0,0,1,1.32-1.95c2.07-2.41,5.39-3.81,8.39-2.78,3.7,1.3,5.36-.24,7.48-2.69l0,0q4.75-5.49,9.49-11l-16.65-14.39a10.15,10.15,0,0,1-2.27,8.55,9.34,9.34,0,0,1-1.64,1.5,10.5,10.5,0,0,1-15.85-12.71,11.48,11.48,0,0,1,1.64-2.48,9.86,9.86,0,0,1,8.09-3.52l-22-19-7.41,8.57a10.59,10.59,0,0,0-2.37,6.87c.73,13,1.9,25.93,2.81,38.87.15,2.34.6,3.81,3.25,4.75a8.22,8.22,0,0,1,5.56,8.46,9.19,9.19,0,0,1-2.09,5.95,8.76,8.76,0,0,1-3.18,2.31c-3.66,1.65-7,.95-8.8-.52-4.88-4.35-5.4-9.82-2.2-13.53a10.87,10.87,0,0,1,2.24-1.93,6.9,6.9,0,0,0,1.54-1.27c1-1.21,1.14-2.54,1-4.33-1-12.94-1.83-25.93-2.95-38.87a10.55,10.55,0,0,1,2.79-8.56l7.54-8.73-14-12.12q-19.79,22.91-39.46,45.87a11.13,11.13,0,0,0-2.29,6.86c.3,8.67,1.26,17.29,1.65,25.93a9,9,0,0,1-1.89,5.72c-5.7,6.76-11.48,13.49-17.27,20.18q-7.59,8.79-15.24,17.53l-.13.15c-1.76,2-2.65,3.58-1.07,6.54a9.43,9.43,0,0,1-1.49,10.54,10.72,10.72,0,0,1-1.89,1.72,10.42,10.42,0,0,1-15.47-13,11.15,11.15,0,0,1,1.56-2.31A9.67,9.67,0,0,1,335,264.44c2.75.89,4.08.14,5.72-1.76l.07-.08c3.26-3.82,6.57-7.64,9.85-11.45l2.48-2.87,2.57-3c5.59-6.48,11.17-13,16.67-19.54a10.84,10.84,0,0,0,2.19-6.92c-.3-8.36-.95-16.71-1.78-25a9,9,0,0,1,2.51-7.33l0,0q20.15-23.2,40.21-46.48l-16.76-14.48q-22.58,26.13-45.17,52.25l-55.28,64c-.29.33-.48.71-.91,1.32a38.51,38.51,0,0,1,1.85,4.07,9.31,9.31,0,0,1-1.87,8.75,8.92,8.92,0,0,1-1.75,1.55,9.42,9.42,0,0,1-10.92-.53,9.11,9.11,0,0,1-2.84-10.52,10.4,10.4,0,0,1,1.72-2.78c2-2.27,4.82-3.66,7.51-2.89,3.53,1,5.14-.58,6.89-2.6l.58-.68q49.08-56.86,98.17-113.67L376,105.82l-4.39,5.08q-40.08,46.4-80.19,92.79l-.27.31c-1.91,2.21-3.39,4.08-1.65,7.55,1.3,2.62.36,5.79-1.69,8.16a10.25,10.25,0,0,1-2.24,2,9.23,9.23,0,0,1-13.29-11.51,9.45,9.45,0,0,1,1.56-2.52c2-2.29,5-3.67,7.81-2.77,3.93,1.26,5.71-.6,7.75-3,.13-.16.25-.29.39-.45q42.06-48.75,84.14-97.44L348.14,81.75l-8.58,9.93-.09.1c-1.91,2.21-3.38,4-1.66,7.37,1.41,2.81.51,6.2-1.57,8.61a9.66,9.66,0,0,1-2.19,1.9,9.23,9.23,0,0,1-13.31-11.53,10.31,10.31,0,0,1,1.57-2.48,7.91,7.91,0,0,1,8.26-2.78c3.43,1.09,4.92-.44,6.78-2.59l0,0,8.8-10.18L334.05,69.58A8.85,8.85,0,0,1,332.23,73a9.79,9.79,0,0,1-3.1,2.37,10.42,10.42,0,0,1-14-14.33,9.86,9.86,0,0,1,1.31-1.92,10.36,10.36,0,0,1,2.88-2.32L302.83,42.57q3,40,5.91,79.92a10.54,10.54,0,0,1-2.73,8.42l-.1.11q-9.46,10.78-18.85,21.67l-4.69,5.43-4.71,5.45c-3.15,3.65-6.32,7.32-9.49,11l-.05.06c-1.51,1.74-2.23,3-.91,5.55A10.19,10.19,0,0,1,266,191.62a11.55,11.55,0,0,1-1.48,1.4,10.49,10.49,0,0,1-15.86-12.86,10.87,10.87,0,0,1,1.52-2.31,10,10,0,0,1,10.49-3c2.65.73,3.89-.16,5.38-1.89l.05-.05c3.4-4,6.81-7.92,10.23-11.88l2.39-2.77,2.23-2.58c7.7-8.91,15.39-17.81,23-26.82a10,10,0,0,0,1.86-6.59Q302.89,81.1,299.88,40L285.42,27.47A38.7,38.7,0,0,0,276,21.4q3.33,45.15,6.66,90.35a9,9,0,0,1-2.13,7.21c-.15.17-.32.36-.51.54-1.08,1.1-2.11,2.25-3.13,3.43-.77.89-1.52,1.8-2.27,2.67s-1.51,1.79-2.26,2.66l0,0-3.52,4.07c-.72.84-1.42,1.65-2.12,2.5l-.19.22c-.3.35-.6.7-.92,1s-.63.68-.91,1c-2,2.31-3.49,4.74-1.65,8.81.93,2.06,0,4.58-1.66,6.56a10.32,10.32,0,0,1-3.75,2.76c-3.9,1.61-7.38.74-10.3-2.23A9,9,0,0,1,246,142.2a12.91,12.91,0,0,1,1.24-1.71c2.12-2.44,5-3.69,8.26-2.62s5.17,0,7-2.19l.49-.56q3.44-4.2,7-8.35t7.15-8l.27-.31a9.44,9.44,0,0,0,2.31-7.5q-3.37-45.35-6.7-90.69a40.07,40.07,0,0,0-25.46-.62q3,40.74,5.95,81.45c.11,1.44.28,2.85.4,4.2,7.88,2.64,11,6.82,9.77,13a10.23,10.23,0,0,1-2.3,4.7,10.38,10.38,0,0,1-7.06,3.55,10.24,10.24,0,0,1-10.51-6.7c-1.29-3.69-.78-7.69,1.45-10.27a7.65,7.65,0,0,1,2.37-1.85,6.71,6.71,0,0,0,2.14-1.57c1.11-1.28,1.22-2.82,1.06-4.92q-3-40.32-5.94-80.65A40.19,40.19,0,0,0,229.25,31.66Z" transform="translate(-6.54 -17.83)"/><path class="cls-2" d="M282.53,295.72l-.22.25c-3.35,4.19-2.18,8.32.45,12.62l-3.41,3.94-45.13,52.25Q207.36,395.86,180.51,427v0c-1.19,1.37-2.52,2.71-3.84,4s-2.64,2.66-3.83,4a18.81,18.81,0,0,0-3.86,6.28c-1.82,5.48.05,12.25.7,18.4a10.47,10.47,0,0,1-.13,3.61l2.46,2.13a9.27,9.27,0,0,0,.5-4.82c-.63-4.71-.58-9.52-1.18-14.24a9.11,9.11,0,0,1,2.56-7.75h0q28.36-32.73,56.66-65.48,25.79-29.85,51.53-59.73l0,0c1.81-2.1,3.38-3.28,6.48-2.67a8.09,8.09,0,0,0,7.73-2.84,9.74,9.74,0,0,0,2-3.84,9.17,9.17,0,0,0-15.82-8.35Z" transform="translate(-6.54 -17.83)"/><path class="cls-3" d="M424.05,162.61a10.6,10.6,0,0,0-2.79,8.56c1.12,12.94,1.93,25.93,2.95,38.87.13,1.81,0,3.12-1,4.33a6.6,6.6,0,0,1-1.54,1.27,9.91,9.91,0,0,0-2.24,1.93c-3.22,3.73-2.68,9.18,2.2,13.53,1.8,1.45,5.16,2.15,8.8.52a8.76,8.76,0,0,0,3.18-2.31,9.19,9.19,0,0,0,2.09-5.95,8.26,8.26,0,0,0-5.56-8.46c-2.65-1-3.08-2.43-3.25-4.75-.93-13-2.1-25.89-2.81-38.87a10.74,10.74,0,0,1,2.37-6.87l7.41-8.57-2.27-2Z" transform="translate(-6.54 -17.83)"/><path class="cls-4" d="M283.57,243.6a10.4,10.4,0,0,0-1.72,2.78,9.16,9.16,0,0,0,2.84,10.52,9.38,9.38,0,0,0,10.93.52,8.51,8.51,0,0,0,1.74-1.54,9.29,9.29,0,0,0,1.87-8.75,38.35,38.35,0,0,0-1.84-4.07,11.4,11.4,0,0,1,.9-1.32l55.28-64q22.57-26.13,45.17-52.25l-2-1.74q-49.08,56.86-98.17,113.67l-.59.68c-1.74,2-3.35,3.61-6.88,2.59C288.4,239.94,285.53,241.33,283.57,243.6Z" transform="translate(-6.54 -17.83)"/><path class="cls-5" d="M273.82,207.66a9.45,9.45,0,0,0-1.56,2.52,9.23,9.23,0,0,0,13.3,11.51,11.21,11.21,0,0,0,2.23-2c2-2.37,3-5.53,1.7-8.16-1.77-3.49-.26-5.34,1.65-7.55l.26-.31q40.11-46.36,80.19-92.79c1.46-1.69,2.94-3.39,4.39-5.08L373.89,104q-42.09,48.72-84.14,97.43c-.13.16-.25.3-.39.45-2,2.37-3.8,4.2-7.74,3C278.83,204,275.8,205.37,273.82,207.66Z" transform="translate(-6.54 -17.83)"/><path class="cls-6" d="M382.51,302.43l.06-.07a8.26,8.26,0,0,1,10.95-.75l0,0a8.3,8.3,0,0,1,.8,11l0,0c-2.56,3-7.92,3.28-10.95.67a8.16,8.16,0,0,1-.86-10.85Zm-1.91-1.91a10.48,10.48,0,0,0-1.25,1.8,10.44,10.44,0,0,0,14.71,14,11,11,0,0,0,2.38-2,9.59,9.59,0,0,0,1.68-10c-1.09-2.77-.31-4.34,1.38-6.3l.07-.08q9.81-11.24,19.57-22.53,8.94-10.37,17.82-20.75l.09-.1a10,10,0,0,1,7.53-3.82q45.46-3.21,90.91-6.55c-.81-.9-1.69-1.77-2.59-2.61q-44.83,3.3-89.66,6.47a9.61,9.61,0,0,0-7.22,3.66l-.07.08c-12.45,14.61-25.11,29.06-37.6,43.68l-.12.14c-2,2.3-3.6,3.46-7,2.15A9.4,9.4,0,0,0,380.6,300.52Z" transform="translate(-6.54 -17.83)"/><path class="cls-7" d="M306.19,343.67c-3.35,3.88-3.18,7.29.82,13.52l-3.55,4.12q-32.11,37.15-64.2,74.31L195.75,486l2,1.76Q252,424.95,306.28,362.12l0,0c1.94-2.25,3.62-3.85,7.11-3.48a7.53,7.53,0,0,0,6.49-2.73A10.22,10.22,0,0,0,322,351.6a9.23,9.23,0,0,0-5.11-10.44,8.92,8.92,0,0,0-10.59,2.37A.67.67,0,0,0,306.19,343.67Z" transform="translate(-6.54 -17.83)"/><path class="cls-8" d="M252.11,179.85h0a8.25,8.25,0,0,1,10.73-1l.14.11,0,0,.08.07c2.89,2.5,3.32,7.92.87,10.91l-.1.12,0,0a8.05,8.05,0,0,1-10.8.73l-.08-.06a7.85,7.85,0,0,1-.88-10.79C252.09,179.87,252.09,179.87,252.11,179.85Zm47.72-139.8q3,41.18,5.9,82.32a10,10,0,0,1-1.86,6.59q-11.4,13.47-23,26.81c-.73.86-1.47,1.71-2.22,2.58l-2.4,2.78c-3.42,4-6.82,7.9-10.22,11.87l-.05.06c-1.5,1.72-2.74,2.65-5.39,1.88a10,10,0,0,0-10.49,3,11.54,11.54,0,0,0-1.52,2.31,10.49,10.49,0,0,0,15.86,12.86,8.51,8.51,0,0,0,1.48-1.4,10.17,10.17,0,0,0,1.22-11.48c-1.33-2.51-.61-3.81.9-5.56l.05-.06c3.17-3.63,6.34-7.3,9.49-10.94l4.71-5.46,4.69-5.43q9.38-10.84,18.85-21.66l.1-.12a10.43,10.43,0,0,0,2.73-8.41q-3-39.95-5.9-79.92l-3-2.58" transform="translate(-6.54 -17.83)"/><path class="cls-9" d="M273,20.29q3.31,45.35,6.7,90.69a9.35,9.35,0,0,1-2.31,7.49,4,4,0,0,1-.27.31q-3.63,4-7.15,8c-2.38,2.76-4.71,5.53-7,8.35l-.49.56c-1.89,2.19-3.63,3.3-7,2.19s-6.15.17-8.26,2.62a12.29,12.29,0,0,0-1.24,1.71,9,9,0,0,0,1.29,10.83,8.81,8.81,0,0,0,10.3,2.23,10.24,10.24,0,0,0,3.75-2.77c1.69-2,2.61-4.48,1.66-6.55-1.84-4.07-.35-6.5,1.65-8.81.3-.35.59-.68.91-1s.62-.69.92-1l.19-.22c.72-.83,1.4-1.66,2.12-2.5l3.52-4.07,0,0c.76-.87,1.51-1.78,2.26-2.66s1.53-1.8,2.28-2.67c1-1.17,2.05-2.33,3.13-3.43a6.64,6.64,0,0,0,.51-.55,9.14,9.14,0,0,0,2.13-7.2q-3.36-45.19-6.66-90.36C275,21,274,20.65,273,20.29Z" transform="translate(-6.54 -17.83)"/><path class="cls-10" d="M121.58,338.67h0a8.14,8.14,0,0,1,10.66-1.24l.11.1,0,0,.12.1c2.79,2.41,3.33,8,1,11l0,0-.16.19c-2.49,2.87-7.68,3.23-10.73.73l-.18-.15a7.69,7.69,0,0,1-1-10.66Zm-2.11-1.76c-2.68,3.11-3.55,7.37-1.39,11,2,3.41.94,5.18-1.21,7.67l0,0Q101.39,373.39,86,391.18l2.07,1.8q15.61-18.08,31.2-36.15v0c2-2.35,3.83-3.6,7.24-3a9.09,9.09,0,0,0,8.64-3.11,10.22,10.22,0,0,0,1.74-2.83c1.71-4.25.57-9.6-2.64-12.31a11.1,11.1,0,0,0-13-.39A12.33,12.33,0,0,0,119.47,336.91Z" transform="translate(-6.54 -17.83)"/><path class="cls-11" d="M16.28,330.43c.77.87,1.58,1.74,2.44,2.55q62.57-4.49,125.15-9.05a9,9,0,0,0,6.83-3.28l.15-.17q4.25-5.09,8.61-10.12c1.32-1.53,2.64-3.07,4-4.6s2.65-3.06,4-4.6c1.64-1.9,3.27-3.78,4.89-5.7l.07-.08c1.42-1.64,2.68-2.32,5.06-1.66a8.83,8.83,0,0,0,9.28-2.62,9.18,9.18,0,0,0,1.29-2,9.09,9.09,0,0,0-2.15-11A9,9,0,0,0,175,277a10.44,10.44,0,0,0-2.23,1.91c-2.14,2.48-2.68,5.81-1.71,9.47a6.75,6.75,0,0,1-1,5.19c-2.59,3.16-5.24,6.22-7.9,9.31l-2.38,2.75-2.42,2.8c-2.53,2.93-5.06,5.89-7.53,8.87a2.32,2.32,0,0,1-.22.25,10.44,10.44,0,0,1-7.84,3.8Q79.06,325.83,16.28,330.43Z" transform="translate(-6.54 -17.83)"/><path class="cls-12" d="M324,420.81a8.38,8.38,0,0,0-1.49,8.95c1,2.48.28,3.83-1.13,5.46l-.15.17c-2.7,3.09-5.44,6.15-8.1,9.23-2.42,2.8-4.81,5.64-7.13,8.52a9.64,9.64,0,0,0-2,6.15q3.36,46.82,6.77,93.63c.91-.47,1.8-.95,2.69-1.47q-3.3-45.48-6.56-91a11,11,0,0,1,2.32-6.88c1.74-2.22,3.55-4.38,5.41-6.54,1-1.1,1.91-2.21,2.89-3.3s1.93-2.19,2.88-3.3,1.74-2,2.58-3l.23-.28c1.53-1.76,2.87-2.6,5.55-1.67a8.55,8.55,0,0,0,9.34-2.65,9.12,9.12,0,0,0,1.07-1.51,9,9,0,0,0-1.74-11.09c-3.34-3.12-7.61-3.66-11.08-1.41A12.1,12.1,0,0,0,324,420.81Z" transform="translate(-6.54 -17.83)"/><path class="cls-13" d="M281.77,439.4A14.57,14.57,0,0,0,278,451.12q4,52.68,7.82,105.39c.94.16,1.88.3,2.81.39q-3.82-52-7.73-104.12c-.39-5.08.55-8.92,3.92-12.82l.3-.34c5.52-6.12,10.92-12.33,16.3-18.55,6.7-7.77,13.35-15.58,20-23.35a36.57,36.57,0,0,0,2.6-3.89l-1.42-1c-1.13,1.16-2.34,2.24-3.4,3.47l-2.46,2.85q-4.41,5.08-8.78,10.2c-2.94,3.4-5.83,6.79-8.77,10.19-5.68,6.57-11.4,13.15-17.18,19.65A1.66,1.66,0,0,0,281.77,439.4Z" transform="translate(-6.54 -17.83)"/><path class="cls-14" d="M248.12,286.36h0a8.17,8.17,0,0,1,10.89-1l.06.05c2.79,2.41,3.26,8.11.93,11l-.12.14c-2.53,2.93-7.72,3.29-10.84.7l-.11-.1a7.71,7.71,0,0,1-.86-10.74S248.11,286.38,248.12,286.36Zm-2.19-1.69a9.06,9.06,0,0,0-1.62,10c1.79,3.54.39,5.35-1.65,7.72l-.07.08q-55.47,64.1-110.85,128.2l2.1,1.81q55.32-64.22,110.73-128.34l0,0c2.14-2.48,3.9-3.81,7.56-2.71a9.37,9.37,0,0,0,9.68-3.05,9.6,9.6,0,0,0,1.49-2.31c2-4.31.9-9.87-2.44-12.75a11,11,0,0,0-12.58-.73A10.83,10.83,0,0,0,245.93,284.67Z" transform="translate(-6.54 -17.83)"/><path class="cls-15" d="M17.33,277l-1.14,1.32c-.47.54-.92,1.1-1.37,1.66q44.52-3.29,89-6.56c2.78-.2,4.68-.05,6.33,2.83,2,3.6,7,4.54,10.79,2.89a9,9,0,0,0,3.21-2.42,9.4,9.4,0,0,0,2.33-7.06,9.73,9.73,0,0,0-7.86-8.15,9,9,0,0,0-8.17,2.87A7.58,7.58,0,0,0,109,267a6.09,6.09,0,0,1-1.12,2.15c-.86,1-2,1.35-3.78,1.48Q60.71,273.83,17.33,277Z" transform="translate(-6.54 -17.83)"/><path class="cls-16" d="M326.81,451.07A7.84,7.84,0,0,1,337.33,450l.13.12.06.05.1.08c2.95,2.55,3.5,7.84,1.12,10.86l-.15.18c-2.43,2.81-7.73,3.18-10.78.75l-.2-.17a7.72,7.72,0,0,1-.9-10.6A.47.47,0,0,1,326.81,451.07Zm-2.08-1.66a9.78,9.78,0,0,0-2.05,9.62c1.37,4.73,4.82,6.94,10.3,7.61,0,1.76-.16,3.21-.08,4.64L337,527.15l2.57-3q-1.95-26.73-3.92-53.46c-.14-1.92-.32-3.56.79-4.84a5.24,5.24,0,0,1,2-1.39,6.9,6.9,0,0,0,2.56-1.86c1.72-2,2.13-4.86,1.85-7.71-.41-4.15-2.57-7.38-6.74-8.67-4-1.25-7.7-.66-10.78,2.44C325.16,448.94,324.93,449.18,324.73,449.41Z" transform="translate(-6.54 -17.83)"/><path class="cls-17" d="M255.94,459.14l.12-.14c2.66-2.92,8-3.31,10.92-.79l.08.06c2.87,2.56,3.2,8.06.67,11v0a7.83,7.83,0,0,1-10.87.57h0a7.73,7.73,0,0,1-.89-10.7Zm-2.09-1.77c-2.48,2.87-3.46,7.1-1.52,10.54s.62,5.28-1.44,7.67l-.09.1q-14.33,16.57-28.66,33.14l2,1.72,29.26-33.91,0,0c1.87-2.17,3.46-3.11,6.55-2.33a9.83,9.83,0,0,0,11.34-5.79,11.07,11.07,0,0,0-2.63-12.34,11.19,11.19,0,0,0-13-.48A9.93,9.93,0,0,0,253.85,457.37Z" transform="translate(-6.54 -17.83)"/><path class="cls-18" d="M159.69,255l.11-.14,0,0a8.07,8.07,0,0,1,10.75-.64l.14.12c2.86,2.64,3.21,7.93.73,10.8l-.12.13v0a8,8,0,0,1-10.82.48l-.1-.08A7.88,7.88,0,0,1,159.69,255ZM6.54,305.86c0,.89.09,1.81.19,2.71q60.4-4.38,120.83-8.75a11.35,11.35,0,0,0,8.54-4c.09-.1.17-.2.26-.29,2.82-3.43,5.68-6.78,8.58-10.14,1.59-1.84,3.18-3.68,4.8-5.51s3.18-3.65,4.78-5.49l2.44-2.84.1-.11c1.35-1.56,2.42-2.49,4.94-1.6A10.46,10.46,0,0,0,173.5,267a10.14,10.14,0,0,0,1.2-1.74,11.5,11.5,0,0,0-1.9-12.86c-3-3-9.07-3.46-12.91-1.06a10.08,10.08,0,0,0-3.77,12.95c1.1,2.5.34,3.85-1.1,5.51l-.12.14c-3.67,4.21-7.35,8.39-11,12.62-3.05,3.53-6.08,7.08-9.07,10.7l-.21.23a10.46,10.46,0,0,1-7.87,3.74Q66.61,301.45,6.54,305.86Z" transform="translate(-6.54 -17.83)"/><path class="cls-19" d="M139.83,135.17l-1.73,2,44.2,38.18,3.9,3.37c-.31,1.06-.57,1.88-.77,2.69-1.19,4.8.46,8.73,4.64,11a8.61,8.61,0,0,0,10.64-1.93l.29-.32c2.83-3.28,3.25-7.3,1.12-10.79a8.76,8.76,0,0,0-11.3-3.6c-2.66,1.16-3.95,0-5.61-1.46Q162.49,154.76,139.83,135.17Z" transform="translate(-6.54 -17.83)"/><path class="cls-20" d="M375,325.05c-3.15,3.65-3.55,6.86-2.11,10.2A9.42,9.42,0,0,0,388.11,338a8,8,0,0,0,1.49-2.68,6.17,6.17,0,0,1,1.07-2.06c1-1.2,2.46-1.36,4.27-1.49,20.31-1.43,40.64-2.88,60.94-4.49a9.66,9.66,0,0,1,7.78,2.53q12.51,10.86,25,21.71l1.83-2.12q-13-11.24-26-22.48a9.22,9.22,0,0,0-7.4-2.49c-20.88,1.65-41.77,3.08-62.65,4.66-2.44.2-4-.05-5.65-2.47-3.66-5.5-10.29-5.71-13.58-1.94A2.61,2.61,0,0,1,375,325.05Z" transform="translate(-6.54 -17.83)"/><path class="cls-21" d="M379.07,376.38a8.37,8.37,0,0,1,10.9-.92l.11.1A8.27,8.27,0,0,1,391,386.4l-.12.14a8,8,0,0,1-10.76.8l-.09-.08a8,8,0,0,1-1-10.82Zm-2-1.84a10.7,10.7,0,0,0-.7,12.82A9.94,9.94,0,0,0,389,390.89c2.81-1.33,4.18-.13,6,1.42l33.55,29,1.71-2L397.33,390.9l-3.53-3c.4-1.25.77-2.19,1-3.15,1.43-5.14-.44-10.07-4.62-12.33a11,11,0,0,0-12.8,1.82C377.3,374.31,377.18,374.41,377.07,374.54Z" transform="translate(-6.54 -17.83)"/><path class="cls-22" d="M77.91,346.71a8,8,0,0,0-1.51,8.69c1.5,3.16.39,4.88-1.52,7.09l0,0c-3.14,3.63-6.27,7.26-9.43,10.87l2,1.71q4.71-5.44,9.39-10.9l0-.06c1.87-2.17,3.39-3.58,6.77-2.59a8,8,0,0,0,8.27-2.78,10.79,10.79,0,0,0,1.58-2.5A9.34,9.34,0,0,0,80,344.81,11.56,11.56,0,0,0,77.91,346.71Z" transform="translate(-6.54 -17.83)"/><path class="cls-23" d="M155.49,197.53l0,0a8.06,8.06,0,0,1,10.85-.8l0,0c2.93,2.57,3.37,8,.85,10.93v0a8,8,0,0,1-10.9.62,7.76,7.76,0,0,1-.86-10.77ZM116.63,162l-1.76,2,33.22,28.7,4.13,3.57c-2.18,8.25-1,12.54,4.14,15.37a10.79,10.79,0,0,0,12.72-2.06c.07-.08.13-.16.22-.25a10.72,10.72,0,0,0,.38-12.95c-3.14-4.61-7.59-5.27-15.56-2.23-.66-.5-1.36-1-2-1.54Z" transform="translate(-6.54 -17.83)"/><path class="cls-24" d="M248.88,506.54c-2.25,2.6-3.07,6-1.44,9,1.76,3.15.48,4.75-1.27,6.77l-.21.25-3.37,3.9,2,1.71,3.26-3.79,0,0c2-2.31,3.73-3.69,7.19-2.87a7.88,7.88,0,0,0,7.73-2.79,9.51,9.51,0,0,0,1.62-2.62,9.21,9.21,0,0,0-13.7-11.2A10,10,0,0,0,248.88,506.54Z" transform="translate(-6.54 -17.83)"/><path class="cls-25" d="M79.67,204.81l-1.76,2q22.1,19.08,44.15,38.2a9.22,9.22,0,0,0,7.37,2.44c20.73-1.64,41.48-3.06,62.21-4.67,2.55-.2,4.12.1,5.49,2.71a8.52,8.52,0,0,0,10.45,3.91,9.6,9.6,0,0,0,6.44-9.31,9.53,9.53,0,0,0-7.49-8.47,9.13,9.13,0,0,0-8.63,2.74,7.29,7.29,0,0,0-1.34,2.3,6.06,6.06,0,0,1-1.07,2c-.94,1.08-2.21,1.38-4,1.5-20.6,1.42-41.19,3.05-61.8,4.35a10.12,10.12,0,0,1-6.48-2.21C108.66,229.89,94.16,217.33,79.67,204.81Z" transform="translate(-6.54 -17.83)"/><path class="cls-26" d="M188,79.43l-1.74,2,38.25,33.14c1.67,1.44,3.33,3.83,3.5,5.91,1.76,21.14,3.18,42.32,4.82,63.49a4.62,4.62,0,0,1-.86,3.63,6,6,0,0,1-1.53,1.18,9.16,9.16,0,0,0-2.39,1.94,8.77,8.77,0,0,0-1.63,8.48,9.38,9.38,0,0,0,9.63,6.49,9.32,9.32,0,0,0,8.16-7.28c.94-4.27-1-8.77-5.25-10.23-3.1-1-3.34-2.89-3.51-5.44C234,162,232.36,141.28,231,120.54a9.69,9.69,0,0,0-3.72-7.31Q207.63,96.42,188,79.43Z" transform="translate(-6.54 -17.83)"/><path class="cls-27" d="M344.35,360.68h0l0,0,0,0,0,0a8.11,8.11,0,0,1,10.83-.77l.08.07c2.91,2.59,3.29,8,.81,10.9v0l0,0a8,8,0,0,1-10.86.57l0,0A7.72,7.72,0,0,1,344.35,360.68Zm-2-1.85a10.55,10.55,0,0,0-2.47,5.59,10.39,10.39,0,0,0,6.91,11.22c1,.38,2.1.6,3.36.94,1.77,25,3.6,49.76,5.24,74.53a10.16,10.16,0,0,0,3.8,7.72L380.37,477l1.81-2.09L362,457.36a10.59,10.59,0,0,1-3.53-6.34c-2-23.89-3.62-47.78-5.42-71.7-.11-1.52,0-2.64.76-3.55a5.08,5.08,0,0,1,1.59-1.17A9.69,9.69,0,0,0,360,362.41a10.31,10.31,0,0,0-11-7.09A10.44,10.44,0,0,0,342.4,358.83Z" transform="translate(-6.54 -17.83)"/><path class="cls-28" d="M359.62,487.62a9.15,9.15,0,0,0-2.06,4.18,8.8,8.8,0,0,0,2.61,8.56l12.07-14a9.18,9.18,0,0,0-6.58-1.92A9.36,9.36,0,0,0,359.62,487.62Z" transform="translate(-6.54 -17.83)"/><path class="cls-29" d="M217,272.17c-2.23,2.58-3.08,6.35-1.3,9.34,1.93,3.3.57,5.07-1.39,7.34l0,0q-38.58,44.6-77.12,89.23l-28.31,32.77,2.07,1.8,23.6-27.32Q175.69,337.7,216.87,290v0c1.8-2.08,3.32-3.37,6.47-2.74a8,8,0,0,0,7.57-2.89,10.19,10.19,0,0,0,1.86-3.17c1.41-3.9,0-7.89-3.73-10.58a9.06,9.06,0,0,0-10.88.4A12,12,0,0,0,217,272.17Z" transform="translate(-6.54 -17.83)"/><path class="cls-30" d="M323.23,304.53l-.1.11a9.3,9.3,0,0,0-.39,11.28,8.75,8.75,0,0,0,10.75,3.13c2.64-1.25,4.13-.5,6,1.17,14.27,12.43,28.62,24.73,42.87,37.18a9.13,9.13,0,0,0,7.38,2.47c20.45-1.62,40.89-3,61.35-4.6a8.71,8.71,0,0,1,7,2.34c4.83,4.21,9.7,8.42,14.55,12.61l1.71-2L458.82,354.9a10.51,10.51,0,0,0-6.86-2.29c-20.59,1.28-41.18,2.95-61.79,4.25a9.91,9.91,0,0,1-6.5-2.12c-14.33-12.12-28.45-24.48-42.72-36.67-1.85-1.6-2.53-3-1.82-5.51,1.22-4.43-.89-8.38-4.95-10.43A9.46,9.46,0,0,0,323.23,304.53Z" transform="translate(-6.54 -17.83)"/><path class="cls-31" d="M90.43,235.85v0c2.59-3,8-3.36,11-.85l0,0c2.91,2.52,3.3,8,.75,10.94l0,0a7.75,7.75,0,0,1-11.75-10.12Zm-44.57,8.09-2.55,2.95q19.19-1.42,38.37-2.84c2.79-.2,4.62,0,6.28,2.89,2.48,4.31,8,5.47,12.66,3.47a10,10,0,0,0,3.58-2.62,10.45,10.45,0,0,0,2.37-8.73,10,10,0,0,0-9.57-8.5,9.28,9.28,0,0,0-8.1,3.13,17,17,0,0,0-3.34,7.24c-.81.12-1.38.23-2,.27C71,242.09,58.43,243,45.86,243.94Z" transform="translate(-6.54 -17.83)"/><path class="cls-32" d="M370.76,404.87a9.19,9.19,0,0,0-2.15,4.45c-.79,4.37,1.55,8.08,6,10.32a5.48,5.48,0,0,1,2.61,3.57,115,115,0,0,1,1,13.38c.05,3.33,1.41,5.52,3.89,7.66q7.62,6.54,15.21,13.11l1.81-2.1c-2-1.63-4-3.21-6.08-4.81-9.22-7.09-13.95-15-12.88-26.47,0-.44-.21-.93-.05-1.27a13.55,13.55,0,0,1,1.58-3.24,2.48,2.48,0,0,1,.41-.39,14.63,14.63,0,0,0,2.4-2.2,8.76,8.76,0,0,0,1.85-9,9.61,9.61,0,0,0-9.45-6.2A9.11,9.11,0,0,0,370.76,404.87Z" transform="translate(-6.54 -17.83)"/><path class="cls-33" d="M326.51,269.4a8.12,8.12,0,0,1,10.88-1l.08.07c2.83,2.45,3.3,8.07.91,11v0l-.1.12,0,0a8.09,8.09,0,0,1-10.71.78l-.05,0,0,0-.1-.08a7.65,7.65,0,0,1-.93-10.73Zm48.75-82.91a9,9,0,0,0-2.5,7.33c.81,8.32,1.47,16.69,1.77,25.05a11.21,11.21,0,0,1-2.18,6.92q-8.25,9.84-16.68,19.54l-2.57,3-2.48,2.87c-3.28,3.8-6.58,7.63-9.85,11.45l-.07.07c-1.64,1.91-3,2.66-5.72,1.77a9.62,9.62,0,0,0-10.43,3.05,11.56,11.56,0,0,0-1.56,2.31,10.43,10.43,0,0,0,15.47,13,10.71,10.71,0,0,0,1.9-1.72,9.43,9.43,0,0,0,1.48-10.54c-1.58-3-.69-4.5,1.07-6.54l.13-.15q7.65-8.74,15.25-17.53c5.78-6.69,11.56-13.42,17.27-20.18a9.07,9.07,0,0,0,1.89-5.72c-.4-8.65-1.34-17.28-1.66-25.93a10.69,10.69,0,0,1,2.3-6.86q19.67-23,39.46-45.87L415.49,140q-20.08,23.25-40.22,46.47S375.28,186.47,375.26,186.49Z" transform="translate(-6.54 -17.83)"/><path class="cls-34" d="M236.83,244.69l.13-.16a8.12,8.12,0,0,1,10.8-.77l.17.15c2.75,2.54,3.09,8.16.71,11l0,0-.11.13a8,8,0,0,1-10.88.43l-.1-.08A7.62,7.62,0,0,1,236.83,244.69ZM95.76,186.18l-1.76,2q16.44,14.21,32.84,28.47a10.54,10.54,0,0,0,8.54,2.77Q165.83,217,196.3,215a8.89,8.89,0,0,1,5.82,1.7c9.85,8.25,19.49,16.74,29.28,25.1,1.63,1.37,2.09,2.48,1.38,4.71A10.09,10.09,0,0,0,237.93,259a11,11,0,0,0,12.71-2.36l0,0c3-3.48,3.06-9.12.18-13.27a9.84,9.84,0,0,0-12.71-2.94c-2.52,1.27-3.85.5-5.6-1-9.67-8.46-19.37-16.91-29.23-25.15a9.39,9.39,0,0,0-6.11-2c-20.15,1.29-40.34,2.72-60.48,4.4a12,12,0,0,1-9.66-3.3C116.64,204.25,106.22,195.22,95.76,186.18Z" transform="translate(-6.54 -17.83)"/><path class="cls-35" d="M205.45,163.77l.17-.19c2.63-2.81,8.07-3.15,10.89-.72l.15.13c2.81,2.6,3.08,8,.58,10.9l0,0-.1.12a7.83,7.83,0,0,1-10.75.57l-.16-.14-.15-.13,0,0A7.92,7.92,0,0,1,205.45,163.77ZM171,99.06l-1.78,2.06,33.09,28.69a9.79,9.79,0,0,1,2.93,5.75c.78,6.43,1,12.94,1.55,19.43.18,2,0,3.61-1.25,5.09a8.5,8.5,0,0,1-1.22,1.14,9.67,9.67,0,0,0-1.2,1.1,10.53,10.53,0,0,0-.75,11.89,10.37,10.37,0,0,0,12,4.51,10.67,10.67,0,0,0,4.9-3.16,10.37,10.37,0,0,0,2.41-7.78c-.53-5.5-3.9-8.35-12-9.79-.52-7.6-1.21-15.07-1.49-22.56a9.71,9.71,0,0,0-3.88-7.66Q187.65,113.42,171,99.06Z" transform="translate(-6.54 -17.83)"/><path class="cls-36" d="M46.44,350.15a10.75,10.75,0,0,0-2,3.66,6.11,6.11,0,0,1-.48,1L46.45,357a7.62,7.62,0,0,1,1.68-4.65l.1-.12A8,8,0,0,1,59,351.33l.11.1a8.23,8.23,0,0,1,1,10.82l-.12.13v0a7.41,7.41,0,0,1-4.54,2.39l2.49,2.14A10.2,10.2,0,0,0,62,364.07a10.46,10.46,0,0,0-5.65-16.91A9.94,9.94,0,0,0,46.44,350.15Z" transform="translate(-6.54 -17.83)"/><path class="cls-37" d="M274,349.34l0,0a7.92,7.92,0,0,1,10.77-.86l.08.06a8.33,8.33,0,0,1,1,10.89l-.1.12c-2.48,2.87-7.81,3.24-10.81.72l-.1-.09a7.83,7.83,0,0,1-.89-10.73S273.94,349.36,274,349.34Zm-2.09-1.78a10.24,10.24,0,0,0-1.18,11.72c1,2,1,3.22-.46,4.89l0,0q-13,15-25.93,29.94-13.38,15.48-26.73,31l0,0c-1.59,1.84-2.87,2-5.11,1.14-3.71-1.44-7.08-.32-9.73,2.71a9,9,0,0,0-.49,11.54,9.09,9.09,0,0,0,11.25,2.7,9.73,9.73,0,0,0,3.23-2.43,7.88,7.88,0,0,0,1.69-7.92c-1.13-3.05-.07-4.7,1.69-6.74l.07-.08q12.65-14.58,25.28-29.19,13.14-15.21,26.24-30.45l0,0c1.63-1.88,3-2.82,5.76-2.08a10,10,0,0,0,10.22-3,9.91,9.91,0,0,0,1.42-2.19c2-4.38.79-10.29-2.74-13a11.13,11.13,0,0,0-12.94,0A12,12,0,0,0,271.86,347.56Z" transform="translate(-6.54 -17.83)"/><path class="cls-38" d="M260.36,541.8l2.42,2.1a8.2,8.2,0,0,1,7,1.4l.08.06a7.93,7.93,0,0,1,2.47,6c.9.54,1.77,1,2.68,1.5a10.77,10.77,0,0,0-2.17-8.24,10.38,10.38,0,0,0-11.34-3.19A3.45,3.45,0,0,0,260.36,541.8Z" transform="translate(-6.54 -17.83)"/><path class="cls-39" d="M382.51,302.43h0a8.19,8.19,0,0,0,.86,10.85c3,2.61,8.39,2.29,10.95-.67l0,0a8.3,8.3,0,0,0-.8-11l0,0a8.28,8.28,0,0,0-10.95.75Z" transform="translate(-6.54 -17.83)"/><path class="cls-40" d="M252.11,179.85l-.05.06a7.87,7.87,0,0,0,.87,10.79l.08.07a8.06,8.06,0,0,0,10.8-.74l0,0,.1-.11c2.45-3,2-8.42-.87-10.92l-.08-.07h0l-.14-.12a8.21,8.21,0,0,0-10.71,1.07Z" transform="translate(-6.54 -17.83)"/><path class="cls-41" d="M121.58,338.67l-.11.13a7.68,7.68,0,0,0,1,10.66l.17.15c3.08,2.52,8.26,2.12,10.73-.73l.17-.19v0c2.31-2.95,1.78-8.57-1-11l-.11-.1,0,0-.12-.1a8.09,8.09,0,0,0-10.64,1.22Z" transform="translate(-6.54 -17.83)"/><path class="cls-42" d="M248.12,286.36l-.05.06a7.76,7.76,0,0,0,.86,10.73l.11.11c3.12,2.59,8.31,2.22,10.84-.7l.12-.14c2.37-2.9,1.86-8.59-.93-11l-.06-.05c-3-2.58-8.22-2.09-10.89,1Z" transform="translate(-6.54 -17.83)"/><path class="cls-43" d="M326.81,451.07l-.12.14a7.71,7.71,0,0,0,.91,10.6l.19.17c3,2.47,8.35,2.06,10.78-.75l.15-.17c2.4-3,1.83-8.32-1.12-10.86l-.1-.09-.06-.05-.13-.12A7.86,7.86,0,0,0,326.81,451.07Z" transform="translate(-6.54 -17.83)"/><path class="cls-44" d="M255.94,459.14h0a7.79,7.79,0,0,0,.87,10.72h0a7.84,7.84,0,0,0,10.87-.57l0,0c2.54-2.95,2.2-8.43-.68-11l-.08-.06c-2.91-2.52-8.26-2.13-10.92.79Z" transform="translate(-6.54 -17.83)"/><path class="cls-45" d="M159.69,255a7.86,7.86,0,0,0,.72,10.69l.1.08a8,8,0,0,0,10.82-.48v0l.12-.14c2.48-2.87,2.15-8.17-.73-10.79l-.14-.12a8.06,8.06,0,0,0-10.75.64l0,0A.36.36,0,0,0,159.69,255Z" transform="translate(-6.54 -17.83)"/><path class="cls-46" d="M379.07,376.38l-.06.08a8,8,0,0,0,.95,10.82l.1.08a8,8,0,0,0,10.75-.8l.12-.14a8.25,8.25,0,0,0-.86-10.84l-.12-.1A8.32,8.32,0,0,0,379.07,376.38Z" transform="translate(-6.54 -17.83)"/><path class="cls-47" d="M155.49,197.53h0a7.76,7.76,0,0,0,.86,10.77,8,8,0,0,0,10.9-.62v0c2.52-2.91,2.08-8.36-.85-10.93l0,0a8.08,8.08,0,0,0-10.85.8Z" transform="translate(-6.54 -17.83)"/><path class="cls-48" d="M344.35,360.68a7.81,7.81,0,0,0,.8,10.76l0,0a8,8,0,0,0,10.87-.57l0,0,0,0c2.48-2.91,2.1-8.32-.82-10.9l-.07-.07a8.1,8.1,0,0,0-10.84.77v0l0,0s0,0,0,0Z" transform="translate(-6.54 -17.83)"/><path class="cls-49" d="M90.43,235.85A7.77,7.77,0,0,0,102.18,246l0,0c2.53-3,2.17-8.43-.74-10.94l0,0a8.36,8.36,0,0,0-11,.86S90.43,235.85,90.43,235.85Z" transform="translate(-6.54 -17.83)"/><path class="cls-50" d="M326.51,269.4l-.07.08a7.62,7.62,0,0,0,.93,10.73l.09.08,0,0,.06.05a8.06,8.06,0,0,0,10.71-.78v0l.1-.12,0,0c2.4-2.94,1.92-8.57-.91-11l-.08-.07A8.17,8.17,0,0,0,326.51,269.4Z" transform="translate(-6.54 -17.83)"/><path class="cls-51" d="M236.83,244.69a7.64,7.64,0,0,0,.69,10.69l.09.08a8,8,0,0,0,10.88-.43.74.74,0,0,1,.12-.13v0c2.38-2.8,2-8.41-.71-10.95l-.17-.15a8.12,8.12,0,0,0-10.8.77Z" transform="translate(-6.54 -17.83)"/><path class="cls-52" d="M205.45,163.77a7.89,7.89,0,0,0,.6,10.52l0,0,.16.13.15.14a7.87,7.87,0,0,0,10.76-.57l.1-.12,0,0a8.52,8.52,0,0,0-.58-10.9l-.16-.13c-2.81-2.43-8.24-2.11-10.89.72Z" transform="translate(-6.54 -17.83)"/><path class="cls-53" d="M48.24,352.22l-.1.12A7.34,7.34,0,0,0,46.45,357l9,7.76A7.51,7.51,0,0,0,60,362.38l0,0,.12-.13a8.19,8.19,0,0,0-1-10.82l-.12-.1A8,8,0,0,0,48.24,352.22Z" transform="translate(-6.54 -17.83)"/><path class="cls-54" d="M274,349.34l-.06.07a7.81,7.81,0,0,0,.89,10.74l.1.08c3,2.51,8.35,2.13,10.81-.72l.11-.11a8.33,8.33,0,0,0-1-10.89l-.08-.07a7.92,7.92,0,0,0-10.77.86A0,0,0,0,1,274,349.34Z" transform="translate(-6.54 -17.83)"/><path class="cls-55" d="M262.77,543.88l4.15,3.59a39.34,39.34,0,0,0,5.34,3.9,8,8,0,0,0-2.48-6l-.08-.07A8.25,8.25,0,0,0,262.77,543.88Z" transform="translate(-6.54 -17.83)"/><path class="cls-56" d="M101.19,258.84,263.67,399.2l14.62-16.91c-23.41-.71-43.92-8.63-61.38-23.72Q185.43,331.38,182.8,294a87.34,87.34,0,0,1,3.57-32L136,218.51Z" transform="translate(-6.54 -17.83)"/><path class="cls-57" d="M293.88,178.4,259,218.76,421.53,359.15,456.4,318.8Z" transform="translate(-6.54 -17.83)"/><path class="cls-58" d="M280.89,193.44c-3.52-.16-7-.12-10.59.06q-37.52,2.31-62.83,31.59Q192.31,242.64,186.41,262l63.69,55a43.31,43.31,0,0,1-15.33-29q-1.85-17.4,8.94-29.92c6.94-8,16.42-12.07,28.51-12.17a46.81,46.81,0,0,1,31.89,11.8l64.51,55.73a88.16,88.16,0,0,0,3.15-32.28q-3.06-37.35-33.82-63.92Q312.11,195,280.89,193.44Z" transform="translate(-6.54 -17.83)"/><path class="cls-59" d="M304.07,257.68l64.51,55.73q-5.44,18.68-19.61,35.06-29.12,33.7-66.72,33.89c-1.32,0-2.63,0-3.94-.06l20.24-23.44L250.09,317q14.71,12.74,32.75,12.65t29-12.72q10.41-12,8.16-29.75A45.56,45.56,0,0,0,304.07,257.68Z" transform="translate(-6.54 -17.83)"/><path class="cls-59" d="M186.39,262l112.14,96.88-20.24,23.44c-23.41-.71-43.92-8.63-61.38-23.72Q185.43,331.38,182.8,294A87.45,87.45,0,0,1,186.39,262Z" transform="translate(-6.54 -17.83)"/></svg>