<svg id="Layer_1" data-name="Layer 1" xmlns="http://www.w3.org/2000/svg" viewBox="0 0 1584.78 963.21"><defs><style>.cls-1{fill:#f6e3ef;}.cls-2{fill:#e4f0f8;fill-opacity:0.5;}</style></defs><path class="cls-1" d="M258.06,629.27c-73-1.43-183,61.42-228.95,93h-48.3c-11.92-109.7-28.62-337,0-368.47,35.78-39.35,93-60.81,189.6-98.37s87.65-8.95,168.14-19.68S463.76,185.68,537.1,126.65s144.88-1.79,234.31,0,105.54-25,164.56-59S1111.27-12.87,1181-2.14,1325.91,14,1392.09-12.87c53-21.46,127-112.69,157.41-155.61V87.3c-14.91,54.26-55.45,171.36-98.38,205.7-53.66,42.93-173.51,35.77-255.79,21.46S1016.47,387.8,946.71,462.92,750,514.8,665.88,504.06s-107.32,68-152,114.48S349.28,631.06,258.06,629.27Z" transform="translate(35.29 168.48)"/><path class="cls-2" d="M257.76,701.71c-73-1.43-183,61.42-228.95,93H-19.48c-11.93-109.71-28.62-337,0-368.47,35.77-39.36,93-60.82,189.6-98.38s87.64-8.95,168.13-19.68S463.46,258.12,536.8,199.09s144.88-1.79,234.32,0,105.53-25,164.56-59S1111,59.57,1180.73,70.31,1325.61,86.4,1391.8,59.57c52.94-21.46,127-112.68,157.4-155.61V159.74c-14.91,54.26-55.45,171.36-98.38,205.7-53.66,42.93-173.5,35.77-255.78,21.46s-178.87,73.34-248.63,148.47-196.76,51.87-280.82,41.14-107.33,68-152,114.47S349,703.5,257.76,701.71Z" transform="translate(35.29 168.48)"/></svg>