<svg width="209" height="56" viewBox="0 0 209 56" fill="none" xmlns="http://www.w3.org/2000/svg">
<g clip-path="url(#clip0_661_171)">
<path d="M47.3708 17.0547H51.7769V27.1701C53.0857 25.649 54.5762 24.8867 56.2521 24.8867C58.0189 24.8867 59.5494 25.6418 60.84 27.1521C62.1306 28.6624 62.7777 30.4784 62.7777 32.6C62.7777 34.6101 62.1415 36.3613 60.8655 37.8536C59.5894 39.346 58.1098 40.0939 56.423 40.0939C55.5723 40.0939 54.7907 39.8853 54.0745 39.4646C53.3583 39.0439 52.5804 38.3751 51.7406 37.4545V39.8206H47.3672V17.0547H47.3708ZM54.9434 29.2485C54.0709 29.2485 53.3438 29.5578 52.7585 30.1763C52.1732 30.7948 51.8787 31.6255 51.8787 32.6719C51.8787 33.6716 52.1841 34.4986 52.7985 35.1495C53.4129 35.804 54.1836 36.1276 55.1142 36.1276C55.9649 36.1276 56.6702 35.8075 57.2301 35.1675C57.7935 34.5274 58.0735 33.7183 58.0735 32.7402C58.0735 31.7873 57.7681 30.9674 57.1537 30.2806C56.543 29.5902 55.805 29.2485 54.9434 29.2485Z" fill="black"/>
<path d="M64.7153 19.7555C64.7153 19.0147 64.9844 18.3782 65.526 17.8424C66.0641 17.3066 66.7148 17.0405 67.471 17.0405C68.2271 17.0405 68.8779 17.3066 69.4159 17.8424C69.954 18.3782 70.2266 19.0147 70.2266 19.7555C70.2266 20.507 69.9576 21.1507 69.4159 21.6865C68.8779 22.2223 68.2271 22.4884 67.471 22.4884C66.7148 22.4884 66.0641 22.2223 65.526 21.6865C64.9844 21.1507 64.7153 20.507 64.7153 19.7555ZM65.2825 25.1782H69.6886V39.8208H65.2825V25.1782Z" fill="black"/>
<path d="M77.9628 25.1783V26.9151C79.4678 25.5199 81.0456 24.8223 82.6961 24.8223C84.1066 24.8223 85.2736 25.394 86.2006 26.5411C87.124 27.6882 87.5857 29.1518 87.5857 30.9354V39.8246H83.1105V31.633C83.1105 30.7915 82.8778 30.0831 82.4125 29.5042C81.9472 28.9252 81.3837 28.6376 80.7184 28.6376C79.915 28.6376 79.257 29.0043 78.7371 29.7343C78.2209 30.4679 77.9628 31.41 77.9628 32.5679V39.821H73.5566V25.1783H77.9628Z" fill="black"/>
<path d="M100.731 39.8207V37.3179H100.662C99.9751 38.296 99.2807 39.0008 98.5791 39.4395C97.8774 39.8746 97.0122 40.094 95.9797 40.094C94.2457 40.094 92.7733 39.3568 91.5554 37.8789C90.3376 36.4045 89.7305 34.6102 89.7305 32.4993C89.7305 30.4101 90.3776 28.6193 91.6754 27.127C92.9733 25.6347 94.511 24.8867 96.2887 24.8867C97.1394 24.8867 97.8992 25.0737 98.5791 25.4477C99.2552 25.8217 99.9751 26.4186 100.731 27.2349V25.2104H105.137V39.8207H100.731ZM97.4957 29.2486C96.6232 29.2486 95.8961 29.5938 95.3108 30.277C94.7255 30.9639 94.4347 31.8305 94.4347 32.8733C94.4347 33.8514 94.711 34.6353 95.2708 35.2323C95.8271 35.8292 96.5578 36.1276 97.4666 36.1276C98.3391 36.1276 99.0844 35.786 99.706 35.0992C100.328 34.4124 100.637 33.5817 100.637 32.6036C100.637 31.6974 100.328 30.9099 99.706 30.2447C99.0844 29.5794 98.3428 29.2486 97.4957 29.2486Z" fill="black"/>
<path d="M112.688 25.1783V27.3395H112.757C113.193 26.6131 113.702 26.0377 114.28 25.6098C114.858 25.1855 115.396 24.9697 115.891 24.9697C116.189 24.9697 116.458 24.9913 116.698 25.0381V29.8099C116.331 29.7415 115.971 29.7092 115.615 29.7092C114.709 29.7092 114.004 30.0256 113.506 30.6549C113.008 31.2842 112.757 32.1688 112.757 33.3015V39.8246H108.282V25.1783H112.688Z" fill="black"/>
<path d="M118 25.2104H122.704L126.957 33.7185L130.742 25.2104H135.25L126.041 46.2755H121.46L124.765 38.778L118 25.2104Z" fill="black"/>
<path d="M146.654 46.2757V37.1995H146.585C145.883 38.2207 145.192 38.9579 144.502 39.4146C143.815 39.8677 142.957 40.0942 141.939 40.0942C140.172 40.0942 138.678 39.375 137.456 37.9403C136.235 36.5055 135.624 34.7471 135.624 32.6686C135.624 30.4895 136.257 28.6555 137.525 27.1704C138.794 25.6817 140.336 24.9409 142.146 24.9409C143.146 24.9409 143.985 25.1423 144.669 25.545C145.352 25.9478 145.992 26.5915 146.588 27.4761H146.657V25.2106H151.064V46.2721H146.654V46.2757ZM146.516 32.7369C146.516 31.8415 146.21 31.036 145.596 30.3205C144.982 29.6049 144.291 29.2489 143.52 29.2489C142.589 29.2489 141.822 29.5905 141.212 30.2701C140.605 30.9497 140.299 31.8092 140.299 32.8412C140.299 33.7941 140.579 34.5852 141.143 35.2181C141.706 35.851 142.4 36.1639 143.226 36.1639C144.109 36.1639 144.88 35.8223 145.534 35.1426C146.189 34.4594 146.516 33.6575 146.516 32.7369Z" fill="black"/>
<path d="M154.463 25.2104H158.938V32.2261C158.938 33.2366 159.2 34.0781 159.719 34.7541C160.239 35.4301 160.883 35.7681 161.65 35.7681C162.461 35.7681 163.144 35.4409 163.7 34.7901C164.256 34.1392 164.533 33.3157 164.533 32.3304V25.2104H169.008V33.7257C169.008 35.5308 168.31 37.0447 166.918 38.2637C165.525 39.4828 163.791 40.0941 161.715 40.0941C159.516 40.0941 157.756 39.4792 156.437 38.2565C155.117 37.0339 154.459 35.4014 154.459 33.3697V25.2104H154.463Z" fill="black"/>
<path d="M185.956 33.5386H175.406C175.464 34.4807 175.777 35.2466 176.344 35.8364C176.911 36.4261 177.576 36.721 178.333 36.721C179.685 36.721 180.75 36.1133 181.517 34.8978L185.563 36.2247C184.058 38.8246 181.724 40.1227 178.558 40.1227C176.228 40.1227 174.374 39.4251 172.999 38.0299C171.625 36.6347 170.935 34.754 170.935 32.3951C170.935 30.2734 171.662 28.4899 173.112 27.0479C174.563 25.6059 176.351 24.8867 178.474 24.8867C180.608 24.8867 182.39 25.6455 183.818 27.1594C185.247 28.6733 185.96 30.5683 185.96 32.8374V33.5386H185.956ZM175.439 30.6079H181.394C180.979 28.7811 180.034 27.8678 178.554 27.8678C177.704 27.8678 177.002 28.1051 176.446 28.5834C175.89 29.0616 175.555 29.7341 175.439 30.6079Z" fill="black"/>
<path d="M198.931 27.2388L195.935 29.044C195.07 28.181 194.263 27.7494 193.514 27.7494C193.147 27.7494 192.827 27.8501 192.562 28.0551C192.296 28.2601 192.165 28.5082 192.165 28.8031C192.165 29.2777 192.318 29.6229 192.623 29.8387C192.929 30.0545 193.743 30.3853 195.066 30.8348C196.39 31.2843 197.433 31.8632 198.197 32.5644C198.96 33.2692 199.342 34.2437 199.342 35.4915C199.342 36.7501 198.767 37.8325 197.619 38.7351C196.47 39.6376 195.096 40.0871 193.489 40.0871C192.398 40.0871 191.311 39.7851 190.228 39.1846C189.144 38.584 188.221 37.6635 187.465 36.4265L191.028 34.8263C191.831 36.1999 192.663 36.8867 193.525 36.8867C193.914 36.8867 194.267 36.7609 194.576 36.5128C194.885 36.2646 195.041 35.9806 195.041 35.6641C195.041 35.2578 194.863 34.9485 194.507 34.7364C194.15 34.5242 193.889 34.4199 193.714 34.4199C193.645 34.3408 193.231 34.179 192.474 33.9417C189.515 32.9851 188.032 31.4353 188.032 29.2885C188.032 27.994 188.563 26.9368 189.624 26.1133C190.686 25.2898 192.071 24.8799 193.783 24.8799C195.677 24.8871 197.393 25.671 198.931 27.2388Z" fill="black"/>
<path d="M202.057 20.1548H206.464V25.1783H208.579V29.1806H206.464V39.821H202.057V29.1806H200.371V25.1783H202.057V20.1548Z" fill="black"/>
<path d="M10.2059 0.466797H0.579346V38.8104H4.61465C1.94626 35.5632 0.612064 31.8702 0.612064 27.7492C0.612064 22.794 2.20801 18.745 5.41081 15.6021C6.82862 14.2105 8.43183 13.1173 10.2095 12.3478V0.466797" fill="#6F7073"/>
<path d="M10.2059 12.3477C8.42817 13.1172 6.82495 14.2104 5.40714 15.602C2.20434 18.7448 0.608398 22.7939 0.608398 27.7491C0.608398 31.8701 1.94259 35.5631 4.61098 38.8102H10.2022V12.3477" fill="#555658"/>
<path d="M34.3087 17.1162H30.7242C33.0399 20.0469 34.2033 23.5386 34.2033 27.5948C34.2033 32.4278 32.6219 36.4444 29.4627 39.6268C28.0303 41.0688 26.4417 42.1871 24.6821 42.9711V55.467H34.3087V17.1162Z" fill="#6B6C6F"/>
<path d="M17.7311 10.8877C14.9391 10.8877 12.4343 11.3731 10.2095 12.3441V27.3751C10.2095 25.2535 10.9293 23.4411 12.3616 21.9165C13.8013 20.3954 15.5135 19.633 17.5021 19.633C19.418 19.633 21.0866 20.4421 22.5299 22.0639C23.9622 23.6821 24.682 25.5771 24.682 27.7491V17.1159H30.7241C30.3315 16.6232 29.9134 16.1522 29.4626 15.6919C26.2998 12.4915 22.3881 10.8877 17.7311 10.8877Z" fill="#404041"/>
<path d="M30.7205 17.1162H24.6821V27.7494V42.9747C26.4417 42.1907 28.0303 41.0724 29.4627 39.6304C32.6219 36.448 34.2033 32.4313 34.2033 27.5984C34.2033 23.5386 33.0399 20.0469 30.7205 17.1162Z" fill="#404041"/>
<path d="M10.206 27.3755V38.8106H4.61475C4.7638 38.9976 4.91648 39.1738 5.07281 39.3536C8.04294 42.7302 12.2128 44.4131 17.575 44.4131C20.1852 44.4131 22.5519 43.9348 24.6822 42.9711V27.7495C24.6822 29.8962 23.9624 31.7482 22.53 33.3376C21.0868 34.9162 19.4181 35.7073 17.5023 35.7073C15.4883 35.7073 13.7687 34.8982 12.3436 33.2764C10.9185 31.6583 10.206 29.6913 10.206 27.3755Z" fill="#95979A"/>
</g>
<defs>
<clipPath id="clip0_661_171">
<rect width="208" height="55" fill="white" transform="translate(0.579346 0.466797)"/>
</clipPath>
</defs>
</svg>
