<svg id="Layer_1" data-name="Layer 1" xmlns="http://www.w3.org/2000/svg" viewBox="0 0 424.81 70"><path d="M63.6,263.53H74.25v24.22q4.74-5.46,10.81-5.46,6.41,0,11.08,5.42a19.33,19.33,0,0,1,4.69,13.05,18.68,18.68,0,0,1-4.62,12.58c-3.09,3.57-6.66,5.36-10.74,5.36a11,11,0,0,1-5.67-1.51,25.37,25.37,0,0,1-5.64-4.81V318H63.6V263.53Zm18.3,29.2A7,7,0,0,0,76.62,295a9.22,9.22,0,0,0,.1,11.91,7.34,7.34,0,0,0,5.59,2.34,6.49,6.49,0,0,0,5.11-2.3,8.43,8.43,0,0,0,2-5.81,8.52,8.52,0,0,0-2.22-5.89A6.92,6.92,0,0,0,81.9,292.73Z" transform="translate(-63.6 -263.5)"/><path d="M105.51,270a6.21,6.21,0,0,1,1.95-4.58,6.71,6.71,0,0,1,9.4,0,6.38,6.38,0,0,1,0,9.2,6.71,6.71,0,0,1-9.4,0A6.25,6.25,0,0,1,105.51,270Zm1.37,13h10.64V318H106.88Z" transform="translate(-63.6 -263.5)"/><path d="M137.51,283v4.16q5.46-5,11.44-5a10.46,10.46,0,0,1,8.46,4.12,16.14,16.14,0,0,1,3.35,10.52v21.28H150V298.44a7.8,7.8,0,0,0-1.69-5.1,5.09,5.09,0,0,0-4.09-2.07,5.7,5.7,0,0,0-4.79,2.62,11.45,11.45,0,0,0-1.87,6.79V318H126.87V283Z" transform="translate(-63.6 -263.5)"/><path d="M192.52,318v-6h-.17a18.35,18.35,0,0,1-5,5.08A11.82,11.82,0,0,1,181,318.7a13.45,13.45,0,0,1-10.69-5.3,19.48,19.48,0,0,1-4.41-12.89,18.81,18.81,0,0,1,4.7-12.86,14.4,14.4,0,0,1,11.15-5.36,11.29,11.29,0,0,1,5.53,1.34,22.06,22.06,0,0,1,5.2,4.28v-4.85h10.64v35Zm-7.82-25.31a6.73,6.73,0,0,0-5.28,2.46,9.23,9.23,0,0,0-2.11,6.22,7.84,7.84,0,0,0,2,5.65,6.91,6.91,0,0,0,5.3,2.14,7.07,7.07,0,0,0,5.41-2.46,8.54,8.54,0,0,0,2.25-6,7.94,7.94,0,0,0-2.25-5.64A7.08,7.08,0,0,0,184.7,292.73Z" transform="translate(-63.6 -263.5)"/><path d="M221.4,283v5.18h.17a14.08,14.08,0,0,1,3.68-4.14,6.77,6.77,0,0,1,3.89-1.53,10.54,10.54,0,0,1,2,.16v11.42a14.68,14.68,0,0,0-2.62-.24,6.15,6.15,0,0,0-5.09,2.27,9.92,9.92,0,0,0-1.81,6.33v15.62H210.76V283Z" transform="translate(-63.6 -263.5)"/><path d="M234.24,283.06H245.6l10.28,20.37L265,283.06h10.89L253.66,333.5H242.6l8-17.95Z" transform="translate(-63.6 -263.5)"/><path d="M303.46,333.5V311.77h-.17a19.43,19.43,0,0,1-5,5.3,11.06,11.06,0,0,1-6.19,1.63,13.74,13.74,0,0,1-10.83-5.16,18.69,18.69,0,0,1-4.43-12.62,19.46,19.46,0,0,1,4.6-13.17,14.2,14.2,0,0,1,11.16-5.33,12,12,0,0,1,6.1,1.44,15,15,0,0,1,4.63,4.63h.17v-5.43h10.65v50.43H303.46Zm-.33-32.42a8.57,8.57,0,0,0-2.23-5.78,6.5,6.5,0,0,0-5-2.57,7.21,7.21,0,0,0-5.58,2.45,8.86,8.86,0,0,0-2.2,6.15,8.19,8.19,0,0,0,2,5.69,6.47,6.47,0,0,0,5,2.27,7.54,7.54,0,0,0,5.58-2.45A8,8,0,0,0,303.13,301.08Z" transform="translate(-63.6 -263.5)"/><path d="M322.33,283.06h10.81v16.8a9.54,9.54,0,0,0,1.89,6.05,5.69,5.69,0,0,0,4.66,2.43,6.28,6.28,0,0,0,4.95-2.34,8.68,8.68,0,0,0,2-5.89V283.06h10.82v20.39a13.85,13.85,0,0,1-5.05,10.87,18.51,18.51,0,0,1-12.57,4.38c-5.31,0-9.57-1.47-12.75-4.4s-4.78-6.84-4.78-11.7V283.06Z" transform="translate(-63.6 -263.5)"/><path d="M398.41,303H372.92a8.39,8.39,0,0,0,2.27,5.5,6.47,6.47,0,0,0,4.8,2.12,8.69,8.69,0,0,0,7.7-4.36l9.77,3.17q-5.44,9.35-16.92,9.34-8.44,0-13.43-5c-3.32-3.34-5-7.85-5-13.49a17.3,17.3,0,0,1,5.26-12.81,17.77,17.77,0,0,1,13-5.17,17.08,17.08,0,0,1,12.91,5.44,18.93,18.93,0,0,1,5.17,13.59V303ZM373,296h14.39q-1.5-6.57-6.86-6.57a7.54,7.54,0,0,0-5.09,1.72A7.32,7.32,0,0,0,373,296Z" transform="translate(-63.6 -263.5)"/><path d="M429.76,287.92l-7.24,4.32q-3.13-3.11-5.85-3.1a3.68,3.68,0,0,0-2.3.73,2.19,2.19,0,0,0-1,1.79,2.8,2.8,0,0,0,1.11,2.48,30.6,30.6,0,0,0,5.9,2.39,20.94,20.94,0,0,1,7.56,4.14,9,9,0,0,1,2.77,7q0,4.51-4.16,7.76a15.71,15.71,0,0,1-10,3.24,16.24,16.24,0,0,1-7.88-2.16,18.14,18.14,0,0,1-6.67-6.6l8.6-3.83c1.95,3.28,4,4.93,6,4.93a4,4,0,0,0,2.54-.9,2.58,2.58,0,0,0,1.12-2,2.44,2.44,0,0,0-1.29-2.22,4.36,4.36,0,0,0-1.92-.76,12,12,0,0,0-3-1.14q-10.73-3.44-10.73-11.14a9.19,9.19,0,0,1,3.84-7.61c2.57-2,5.91-3,10.05-3C421.9,282.29,426,284.16,429.76,287.92Z" transform="translate(-63.6 -263.5)"/><path d="M437.31,271H448v12h5.12v9.59H448V318H437.31V292.57h-4.07V283h4.07Z" transform="translate(-63.6 -263.5)"/><path d="M471.9,267.13V278.5H470V267.13Zm3.57,0v1.56h-9.05v-1.56Zm2.06,0h1.75l3.29,8.77,3.28-8.77h1.75l-4.34,11.37h-1.39Zm-.8,0h1.67l.29,7.59v3.78h-2Zm10,0h1.67V278.5h-2v-3.78Z" transform="translate(-63.6 -263.5)"/></svg>