<?xml version="1.0" encoding="utf-8"?>
<!-- Generator: Adobe Illustrator 24.2.1, SVG Export Plug-In . SVG Version: 6.00 Build 0)  -->
<svg version="1.1" id="Layer_1" xmlns="http://www.w3.org/2000/svg" xmlns:xlink="http://www.w3.org/1999/xlink" x="0px" y="0px"
	 viewBox="0 0 197 86" style="enable-background:new 0 0 197 86;" xml:space="preserve">
<style type="text/css">
	.st0{fill:#47BDE8;}
	.st1{fill-rule:evenodd;clip-rule:evenodd;fill:#47BDE8;}
	.st2{fill:#E90C8B;}
	.st3{fill-rule:evenodd;clip-rule:evenodd;fill:#E90C8B;}
</style>
<path class="st0" d="M13.3,23.1c0-0.3-0.1-0.6-0.2-0.9c-0.1-0.3-0.3-0.5-0.5-0.7c-0.3-0.2-0.6-0.4-1.1-0.6c-0.5-0.2-1-0.4-1.8-0.6
	c-0.8-0.2-1.5-0.5-2.2-0.8c-0.7-0.3-1.2-0.6-1.7-1c-0.5-0.4-0.9-0.9-1.1-1.4c-0.3-0.5-0.4-1.1-0.4-1.8c0-0.7,0.1-1.3,0.4-1.8
	c0.3-0.6,0.7-1,1.2-1.4c0.5-0.4,1.2-0.7,1.9-0.9c0.7-0.2,1.5-0.3,2.4-0.3c1.2,0,2.3,0.2,3.2,0.7c0.9,0.5,1.6,1.1,2,1.8
	c0.5,0.8,0.7,1.6,0.7,2.5h-2.8c0-0.5-0.1-1-0.4-1.4c-0.2-0.4-0.6-0.8-1-1c-0.5-0.2-1-0.4-1.8-0.4c-0.7,0-1.2,0.1-1.7,0.3
	c-0.4,0.2-0.8,0.5-1,0.8c-0.2,0.3-0.3,0.7-0.3,1.2c0,0.3,0.1,0.6,0.2,0.8c0.1,0.2,0.4,0.5,0.7,0.7c0.3,0.2,0.7,0.4,1.1,0.6
	c0.4,0.2,1,0.4,1.6,0.5c0.9,0.3,1.7,0.6,2.4,0.9c0.7,0.3,1.2,0.7,1.7,1.1c0.5,0.4,0.8,0.9,1,1.4c0.2,0.5,0.3,1.1,0.3,1.8
	c0,0.7-0.1,1.3-0.4,1.9c-0.3,0.6-0.7,1-1.2,1.4c-0.5,0.4-1.1,0.7-1.9,0.9c-0.7,0.2-1.5,0.3-2.4,0.3c-0.8,0-1.6-0.1-2.3-0.3
	c-0.8-0.2-1.5-0.5-2.1-1c-0.6-0.4-1.1-1-1.5-1.6C4,24,3.8,23.2,3.8,22.3h2.8c0,0.5,0.1,1,0.3,1.4c0.2,0.4,0.4,0.7,0.8,0.9
	C8,24.9,8.4,25,8.9,25.1c0.4,0.1,0.9,0.2,1.4,0.2c0.7,0,1.2-0.1,1.7-0.3c0.5-0.2,0.8-0.5,1-0.8C13.2,23.9,13.3,23.5,13.3,23.1z
	 M29.6,17.7V20h-8.7v-2.3H29.6z M21.5,10.8v16.5h-2.8V10.8H21.5z M31.7,10.8v16.5h-2.8V10.8H31.7z M48.3,18.6v0.9
	c0,1.2-0.2,2.4-0.5,3.3c-0.3,1-0.8,1.8-1.4,2.5c-0.6,0.7-1.3,1.2-2.1,1.6c-0.8,0.4-1.8,0.5-2.8,0.5c-1,0-1.9-0.2-2.8-0.5
	c-0.8-0.4-1.6-0.9-2.2-1.6c-0.6-0.7-1.1-1.5-1.4-2.5c-0.3-1-0.5-2.1-0.5-3.3v-0.9c0-1.2,0.2-2.4,0.5-3.3c0.3-1,0.8-1.8,1.4-2.5
	c0.6-0.7,1.3-1.2,2.2-1.6c0.8-0.4,1.8-0.6,2.8-0.6c1,0,1.9,0.2,2.8,0.6c0.8,0.4,1.6,0.9,2.2,1.6c0.6,0.7,1.1,1.5,1.4,2.5
	C48.1,16.3,48.3,17.4,48.3,18.6z M45.4,19.5v-0.9c0-0.9-0.1-1.7-0.3-2.4c-0.2-0.7-0.4-1.3-0.8-1.8c-0.3-0.5-0.8-0.8-1.3-1.1
	c-0.5-0.2-1.1-0.4-1.7-0.4c-0.6,0-1.2,0.1-1.7,0.4c-0.5,0.2-0.9,0.6-1.3,1.1c-0.3,0.5-0.6,1.1-0.8,1.8c-0.2,0.7-0.3,1.5-0.3,2.4v0.9
	c0,0.9,0.1,1.7,0.3,2.4c0.2,0.7,0.4,1.3,0.8,1.8c0.4,0.5,0.8,0.8,1.3,1.1c0.5,0.2,1,0.4,1.7,0.4c0.6,0,1.2-0.1,1.7-0.4
	c0.5-0.2,0.9-0.6,1.2-1.1c0.3-0.5,0.6-1.1,0.8-1.8C45.3,21.3,45.4,20.4,45.4,19.5z M55.2,23.6l3.3-12.8h1.7L60,14.1l-3.5,13.2h-1.8
	L55.2,23.6z M52.8,10.8l2.7,12.7l0.2,3.8h-1.9L50,10.8H52.8z M64,23.5l2.6-12.6h2.8l-3.8,16.5h-1.9L64,23.5z M60.9,10.8l3.2,12.8
	l0.5,3.7h-1.8l-3.5-13.2l-0.2-3.3H60.9z M78.4,10.8H81l4.8,12.7l4.8-12.7H93l-6.3,16.5h-2L78.4,10.8z M77.3,10.8h2.4l0.4,11v5.5
	h-2.8V10.8z M91.8,10.8h2.4v16.5h-2.8v-5.5L91.8,10.8z M110.7,18.6v0.9c0,1.2-0.2,2.4-0.5,3.3c-0.3,1-0.8,1.8-1.4,2.5
	c-0.6,0.7-1.3,1.2-2.2,1.6c-0.8,0.4-1.8,0.5-2.8,0.5c-1,0-1.9-0.2-2.8-0.5c-0.8-0.4-1.5-0.9-2.2-1.6c-0.6-0.7-1.1-1.5-1.4-2.5
	c-0.3-1-0.5-2.1-0.5-3.3v-0.9c0-1.2,0.2-2.4,0.5-3.3c0.3-1,0.8-1.8,1.4-2.5c0.6-0.7,1.3-1.2,2.2-1.6c0.8-0.4,1.8-0.6,2.8-0.6
	c1,0,1.9,0.2,2.8,0.6c0.8,0.4,1.6,0.9,2.2,1.6c0.6,0.7,1.1,1.5,1.4,2.5C110.5,16.3,110.7,17.4,110.7,18.6z M107.9,19.5v-0.9
	c0-0.9-0.1-1.7-0.3-2.4c-0.2-0.7-0.4-1.3-0.8-1.8c-0.3-0.5-0.8-0.8-1.3-1.1c-0.5-0.2-1.1-0.4-1.7-0.4c-0.6,0-1.2,0.1-1.7,0.4
	c-0.5,0.2-0.9,0.6-1.3,1.1c-0.3,0.5-0.6,1.1-0.8,1.8c-0.2,0.7-0.3,1.5-0.3,2.4v0.9c0,0.9,0.1,1.7,0.3,2.4c0.2,0.7,0.4,1.3,0.8,1.8
	c0.4,0.5,0.8,0.8,1.3,1.1c0.5,0.2,1,0.4,1.7,0.4c0.6,0,1.2-0.1,1.7-0.4c0.5-0.2,0.9-0.6,1.2-1.1c0.3-0.5,0.6-1.1,0.8-1.8
	C107.8,21.3,107.9,20.4,107.9,19.5z M113.5,10.8h5.8c1.3,0,2.3,0.2,3.2,0.6c0.9,0.4,1.6,0.9,2,1.7c0.5,0.7,0.7,1.6,0.7,2.7
	c0,0.8-0.2,1.5-0.5,2.2s-0.7,1.2-1.3,1.6c-0.6,0.4-1.2,0.8-2,1l-0.9,0.4h-5.2l0-2.3h3.9c0.7,0,1.2-0.1,1.7-0.4c0.5-0.2,0.8-0.6,1-1
	c0.2-0.4,0.4-0.9,0.4-1.4c0-0.6-0.1-1.1-0.3-1.5c-0.2-0.4-0.6-0.8-1-1c-0.5-0.2-1-0.4-1.8-0.4h-3v14.2h-2.8V10.8z M122.9,27.3
	l-3.9-7.4l3,0l3.9,7.3v0.1H122.9z M138.9,25.1v2.3h-8.7v-2.3H138.9z M131,10.8v16.5h-2.8V10.8H131z M137.8,17.7v2.2h-7.6v-2.2H137.8
	z M138.9,10.8v2.3h-8.7v-2.3H138.9z"/>
<path class="st1" d="M167.3,36.9l25.5-17.3L167.3,2.3v13.5l18.2,3.9l-18.2,3.9V36.9z"/>
<path class="st2" d="M13.8,70.7c0-0.3-0.1-0.6-0.2-0.9c-0.1-0.3-0.3-0.5-0.5-0.7c-0.3-0.2-0.6-0.4-1.1-0.6c-0.5-0.2-1-0.4-1.8-0.6
	c-0.8-0.2-1.5-0.5-2.2-0.8c-0.7-0.3-1.2-0.6-1.7-1c-0.5-0.4-0.9-0.9-1.1-1.4c-0.3-0.5-0.4-1.1-0.4-1.8c0-0.7,0.1-1.3,0.4-1.8
	c0.3-0.6,0.7-1,1.2-1.4c0.5-0.4,1.2-0.7,1.9-0.9c0.7-0.2,1.5-0.3,2.4-0.3c1.2,0,2.3,0.2,3.2,0.7c0.9,0.5,1.6,1.1,2,1.8
	c0.5,0.8,0.7,1.6,0.7,2.5h-2.8c0-0.5-0.1-1-0.4-1.4c-0.2-0.4-0.6-0.8-1-1c-0.5-0.2-1-0.4-1.8-0.4c-0.7,0-1.2,0.1-1.7,0.3
	c-0.4,0.2-0.8,0.5-1,0.8c-0.2,0.3-0.3,0.7-0.3,1.2c0,0.3,0.1,0.6,0.2,0.8c0.1,0.2,0.4,0.5,0.7,0.7c0.3,0.2,0.7,0.4,1.1,0.6
	c0.4,0.2,1,0.4,1.6,0.5c0.9,0.3,1.7,0.6,2.4,0.9c0.7,0.3,1.2,0.7,1.7,1.1c0.5,0.4,0.8,0.9,1,1.4c0.2,0.5,0.3,1.1,0.3,1.8
	c0,0.7-0.1,1.3-0.4,1.9c-0.3,0.6-0.7,1-1.2,1.4c-0.5,0.4-1.1,0.7-1.9,0.9c-0.7,0.2-1.5,0.3-2.4,0.3c-0.8,0-1.6-0.1-2.3-0.3
	c-0.8-0.2-1.5-0.5-2.1-1c-0.6-0.4-1.1-1-1.5-1.6c-0.4-0.7-0.6-1.4-0.6-2.3h2.8c0,0.5,0.1,1,0.3,1.4c0.2,0.4,0.4,0.7,0.8,0.9
	c0.3,0.2,0.7,0.4,1.2,0.5c0.4,0.1,0.9,0.2,1.4,0.2c0.7,0,1.2-0.1,1.7-0.3c0.5-0.2,0.8-0.5,1-0.8C13.7,71.5,13.8,71.1,13.8,70.7z
	 M30,65.3v2.3h-8.7v-2.3H30z M22,58.4v16.5h-2.8V58.4H22z M32.2,58.4v16.5h-2.8V58.4H32.2z M48.7,66.2v0.9c0,1.2-0.2,2.4-0.5,3.3
	c-0.3,1-0.8,1.8-1.4,2.5c-0.6,0.7-1.3,1.2-2.1,1.6c-0.8,0.4-1.8,0.5-2.8,0.5c-1,0-1.9-0.2-2.8-0.5c-0.8-0.4-1.6-0.9-2.2-1.6
	c-0.6-0.7-1.1-1.5-1.4-2.5c-0.3-1-0.5-2.1-0.5-3.3v-0.9c0-1.2,0.2-2.4,0.5-3.3c0.3-1,0.8-1.8,1.4-2.5c0.6-0.7,1.3-1.2,2.2-1.6
	c0.8-0.4,1.8-0.6,2.8-0.6c1,0,1.9,0.2,2.8,0.6c0.8,0.4,1.6,0.9,2.2,1.6c0.6,0.7,1.1,1.5,1.4,2.5C48.6,63.9,48.7,65,48.7,66.2z
	 M45.9,67.1v-0.9c0-0.9-0.1-1.7-0.3-2.4c-0.2-0.7-0.4-1.3-0.8-1.8c-0.3-0.5-0.8-0.8-1.3-1.1c-0.5-0.2-1.1-0.4-1.7-0.4
	c-0.6,0-1.2,0.1-1.7,0.4c-0.5,0.2-0.9,0.6-1.3,1.1c-0.3,0.5-0.6,1.1-0.8,1.8c-0.2,0.7-0.3,1.5-0.3,2.4v0.9c0,0.9,0.1,1.7,0.3,2.4
	c0.2,0.7,0.4,1.3,0.8,1.8c0.4,0.5,0.8,0.8,1.3,1.1c0.5,0.2,1,0.4,1.7,0.4c0.6,0,1.2-0.1,1.7-0.4c0.5-0.2,0.9-0.6,1.2-1.1
	c0.3-0.5,0.6-1.1,0.8-1.8C45.8,68.9,45.9,68,45.9,67.1z M55.7,71.2L59,58.4h1.7l-0.2,3.3L57,74.9h-1.8L55.7,71.2z M53.3,58.4
	l2.7,12.7l0.2,3.8h-1.9l-3.8-16.5H53.3z M64.4,71.1l2.6-12.6h2.8l-3.8,16.5h-1.9L64.4,71.1z M61.4,58.4l3.2,12.8l0.5,3.7h-1.8
	l-3.5-13.2l-0.2-3.3H61.4z M78.9,58.4h2.5l4.8,12.7L91,58.4h2.5l-6.3,16.5h-2L78.9,58.4z M77.8,58.4h2.4l0.4,11v5.5h-2.8V58.4z
	 M92.2,58.4h2.4v16.5h-2.8v-5.5L92.2,58.4z M111.2,66.2v0.9c0,1.2-0.2,2.4-0.5,3.3c-0.3,1-0.8,1.8-1.4,2.5c-0.6,0.7-1.3,1.2-2.2,1.6
	c-0.8,0.4-1.8,0.5-2.8,0.5c-1,0-1.9-0.2-2.8-0.5c-0.8-0.4-1.5-0.9-2.2-1.6c-0.6-0.7-1.1-1.5-1.4-2.5c-0.3-1-0.5-2.1-0.5-3.3v-0.9
	c0-1.2,0.2-2.4,0.5-3.3c0.3-1,0.8-1.8,1.4-2.5c0.6-0.7,1.3-1.2,2.2-1.6c0.8-0.4,1.8-0.6,2.8-0.6c1,0,1.9,0.2,2.8,0.6
	c0.8,0.4,1.6,0.9,2.2,1.6c0.6,0.7,1.1,1.5,1.4,2.5C111,63.9,111.2,65,111.2,66.2z M108.3,67.1v-0.9c0-0.9-0.1-1.7-0.3-2.4
	c-0.2-0.7-0.4-1.3-0.8-1.8c-0.3-0.5-0.8-0.8-1.3-1.1c-0.5-0.2-1.1-0.4-1.7-0.4c-0.6,0-1.2,0.1-1.7,0.4c-0.5,0.2-0.9,0.6-1.3,1.1
	c-0.3,0.5-0.6,1.1-0.8,1.8c-0.2,0.7-0.3,1.5-0.3,2.4v0.9c0,0.9,0.1,1.7,0.3,2.4c0.2,0.7,0.4,1.3,0.8,1.8c0.4,0.5,0.8,0.8,1.3,1.1
	c0.5,0.2,1,0.4,1.7,0.4c0.6,0,1.2-0.1,1.7-0.4c0.5-0.2,0.9-0.6,1.2-1.1c0.3-0.5,0.6-1.1,0.8-1.8C108.2,68.9,108.3,68,108.3,67.1z
	 M114,58.4h5.8c1.3,0,2.3,0.2,3.2,0.6c0.9,0.4,1.6,0.9,2,1.7c0.5,0.7,0.7,1.6,0.7,2.7c0,0.8-0.2,1.5-0.5,2.2s-0.7,1.2-1.3,1.6
	c-0.6,0.4-1.2,0.8-2,1l-0.9,0.4H116l0-2.3h3.9c0.7,0,1.2-0.1,1.7-0.4c0.5-0.2,0.8-0.6,1-1c0.2-0.4,0.4-0.9,0.4-1.4
	c0-0.6-0.1-1.1-0.3-1.5c-0.2-0.4-0.6-0.8-1-1c-0.5-0.2-1-0.4-1.8-0.4h-3v14.2H114V58.4z M123.4,74.9l-3.9-7.4l3,0l3.9,7.3v0.1H123.4
	z M139.4,72.7v2.3h-8.7v-2.3H139.4z M131.5,58.4v16.5h-2.8V58.4H131.5z M138.3,65.3v2.2h-7.6v-2.2H138.3z M139.3,58.4v2.3h-8.7v-2.3
	H139.3z"/>
<path class="st3" d="M167.8,84.5l25.5-17.3l-25.5-17.3v13.5l18.2,3.9L167.8,71V84.5z"/>
</svg>
