<svg id="Layer_1" data-name="Layer 1" xmlns="http://www.w3.org/2000/svg" xmlns:xlink="http://www.w3.org/1999/xlink" viewBox="0 0 589.09 350.66"><defs><style>.cls-1{fill:none;}.cls-2{clip-path:url(#clip-path);}.cls-3{fill:#f3ebdb;}.cls-4{fill:#feffff;}.cls-5{fill:#75499b;}.cls-6{fill:#e9e858;}.cls-7{fill:#47bde8;}.cls-8{fill:#864393;}.cls-9{fill:#74489b;}.cls-10{fill:#c52276;}.cls-11{fill:#afd35f;}.cls-12{fill:#eff0f3;}.cls-13{fill:#4b3692;}.cls-14{fill:#4c3893;}.cls-15{fill:#e4eaf0;}.cls-16{fill:#174a9a;}.cls-17{fill:#4992ce;}.cls-18{fill:#b7e3ec;}.cls-19{fill:#cabfbc;}.cls-20{fill:#fad2e3;}.cls-21{fill:#6159a6;}.cls-22{fill:#2a59a6;}.cls-23{fill:#b9e3ed;}.cls-24{fill:#794798;}.cls-25{fill:#d2c8e3;}</style><clipPath id="clip-path" transform="translate(44.62 -123.48)"><rect class="cls-1" x="-44.62" y="123.5" width="589.08" height="350.64"/></clipPath></defs><g class="cls-2"><path class="cls-3" d="M-14.44,349.75c-6.82-6.13-12.51-13.27-18.09-20.49q-5.61-7.29-11.32-14.51c-.12-.16-.51-.12-.77-.16V310.2a16.1,16.1,0,0,1,2-1.7c1.47-.93,3-1.76,4.53-2.6L-29,318.1a12.82,12.82,0,0,0,.78,1.52c3.17,4.44,6.4,8.83,9.49,13.34A3.92,3.92,0,0,0-15,335C-13.5,339.86-14,344.8-14.44,349.75Z" transform="translate(44.62 -123.48)"/><path class="cls-4" d="M255.76,451.33q-.07-8.1-.18-16.22a3.12,3.12,0,0,1,0-.44v-1.31l-.18-.83c1.31.07,1.49-.74,1.5-1.83.1-9,.35-18.07.36-27.11q0-58.23,0-116.46c0-1-.06-2.05-.09-3.07,1.81.26,2.51-.66,2.58-2.36a14.11,14.11,0,0,1,3.16-8.45c4.18-5.19,10.37-6.92,17.32-4.82,1.23.37,2.4.58,2.92-.88s-.51-2.27-1.76-2.47c-2.77-.47-5.61-1.22-8.36-1-7.37.58-12.4,4.81-15.7,11.3,0-6-.39-12,.05-17.92a53.19,53.19,0,0,1,2.74-13.57c1.57-4.48,4.2-8.58,6.36-12.84,4.82-.08,9.61-.19,14.42-.22,4.22,0,8.45.07,12.67.11a58.58,58.58,0,0,1,8.91,17.76,83.09,83.09,0,0,1,1.27,8.4c.28,5.26.33,10.52.35,15.76q.08,25.65.07,51.29c0,.83-.1,1.65-.15,2.47.05,1.51.15,3,.15,4.52V419c0,1,.06,2,.08,3.06-.12,3.17-.25,6.33-.38,9.68h-9.5a5.13,5.13,0,0,0-1.54.5l.87,1.51q0,9.14,0,18.25c-.8.06-1.59.16-2.38.16H260.82c-1.59,0-3.19-.1-4.78-.16A5,5,0,0,0,255.76,451.33Zm37.3-169.14a21.06,21.06,0,0,0-5.08-13.4c-.82-1-1.79-2-3.11-.82s-.62,2.16.33,3.19a15.89,15.89,0,0,1,4.25,10.29c.05,1.31.24,2.81,1.85,2.58C292.11,283.89,292.75,282.52,293.06,282.19Zm-29.48,162-.64.63c.48.56.94,1.58,1.43,1.59,6.86.11,13.72.09,20.57,0,.41,0,.82-.7,1.23-1.07-.39-.39-.78-1.12-1.17-1.12C277.86,444.13,270.72,444.14,263.58,444.14Zm22.3-7.4c-7.17,0-14.24,0-21.3.05-.44,0-.91.74-1.37,1.14.57.37,1.12,1.05,1.68,1.06,6.49.07,13,0,19.48.07C286,439.07,286.55,438.56,285.88,436.74Zm-11.22,5.86c3.27,0,6.57,0,9.83-.06.57,0,1.12-.68,1.68-1.05-.54-.39-1.07-1.12-1.62-1.12q-9.82-.12-19.66,0c-.56,0-1.11.69-1.68,1.06.54.39,1.07,1.1,1.62,1.12C268.1,442.64,271.38,442.6,274.66,442.6Z" transform="translate(44.62 -123.48)"/><path class="cls-5" d="M304.23,324.13q0-25.63-.08-51.29c0-5.26-.06-10.52-.34-15.76-.16-2.81-.84-5.6-1.27-8.4a6.66,6.66,0,0,0,.06-2.08,46.26,46.26,0,0,0-8.19-16c-3.89-5.91-9.27-10.28-15-14.18-2.93-2-6.18-1.71-9.05.32a56.12,56.12,0,0,0-13.51,12.67,7.87,7.87,0,0,0-.72,1.75l-2.25,3.19c0-16.92-.36-33.85.06-50.76.56-22.62,9.84-41.25,27.13-55.88l3.07,2.75,4.78,7.06,5.7,10.08.2.08-.16-.12-5.06-10-5.51-7L282.32,127l.91,0c6.84,5.16,13.38,10.72,18.2,17.85,3.42,5,6.08,10.59,9.07,15.91l.26.55a.76.76,0,0,0,.11.35c.16.7.28,1.42.49,2.11a90.72,90.72,0,0,1,3.88,27.09c-.11,24.67,0,49.34,0,74,0,2.27.05,4.53.07,6.79a42.61,42.61,0,0,0-.4,4.35q.08,28.44.24,56.86v6.84l-4.2-6c-1.34-1.91-2.69-3.81-4-5.73C306,326.71,305.12,325.42,304.23,324.13Z" transform="translate(44.62 -123.48)"/><path class="cls-6" d="M191.47,331.62c.06-.88.15-1.76.15-2.63V280.6a78.94,78.94,0,0,1,3.86-25c4.82-.08,9.64-.16,14.43-.22q9.65-.09,19.26-.16c.79,2.09,1.6,4.17,2.38,6.26.38,1,.71,2,1.06,3.05.49,6.8,1.32,13.59,1.41,20.39.2,18.22.08,36.44.09,54.66a14.59,14.59,0,0,1-1.22,1.8c-5.68,6.16-11.28,12.39-17.1,18.41-8.3,8.65-12.78,18.82-12.82,30.86,0,9.27,0,18.53,0,27.8,0,3,0,3,3.07,3.09a2.2,2.2,0,0,0,2.53,1.71c8.05-.08,16.09,0,24.14,0l.57.88v9l-.09.66c0,5-.05,10-.06,15,0,3.29,0,3.28-3.31,3.38a11.62,11.62,0,0,0-1.31.13c0-2.7-.14-5.4,0-8.09.07-1.72-.47-2.24-2.2-2.22-9.54.08-19.09,0-28.63.05-.62,0-1.25.1-2.08.18v9.56c-3.89-.24-3.89-.24-4-4.24,0-.5-.1-1-.15-1.49a4.28,4.28,0,0,1,.05-.49.65.65,0,0,0,0-.39v-7.46l0-70.58v-25Z" transform="translate(44.62 -123.48)"/><path class="cls-6" d="M320,452.51l-4.15-.3v-27c0-.94-.1-1.88-.15-2.82l.2-.09h.22l28.11.11A2.34,2.34,0,0,0,345,422v-34.2a6.4,6.4,0,0,0-.08-.87c-1.39-11-6.29-20.13-14.24-27.87-5.26-5.13-10.05-10.75-15.06-16.15a.24.24,0,0,1,0-.15.23.23,0,0,1,0-.14,4.63,4.63,0,0,0,.44-1.28q.06-33.6.07-67.19V272.5c.92-4.78,1.86-9.57,2.72-14.37.29-1.59,1.1-2.12,2.67-2.1,7,.08,14,.08,21,.09,3,0,6,0,9-.12,1.44-.06,2,.48,2.41,1.83a88.86,88.86,0,0,1,3.51,20.4c0,.94-.11,1.89-.11,2.83V452l-3.51.63a.51.51,0,0,1-.3,0c0-2.69-.13-5.39,0-8.07.1-1.85-.36-2.52-2.37-2.5q-14.4.16-28.81,0c-1.89,0-2.35.63-2.28,2.38C320.09,447.12,320,449.82,320,452.51Z" transform="translate(44.62 -123.48)"/><path class="cls-7" d="M191.47,331.62l.13,10.59c-.58,0-1.16-.06-1.75-.06q-70.4,0-140.78,0c-2,0-2.46.58-2.46,2.48.07,15.11,0,30.22,0,45.32,0,6.14.06,12.28.09,18.39-.07,9.26-.15,18.51-.11,27.76,0,.44,1.08,1.22,1.69,1.24,3.27.12,6.57.06,9.84.06h3.72V404.62l15.31-2.85q0,15.75,0,31.49c0,.94.13,1.88.2,2.82-.21,1.53.94,1.19,1.73,1.19q6.43,0,12.89,0l15.42,0,.76,0c6.25,0,12.49.1,18.74.1,3.7,0,7.4-.11,11.09-.17l.63,0c4.87.07,9.75.17,14.62.22,1.49,0,1.47-1.09,1.47-2.15q0-35.12,0-70.23a7.74,7.74,0,0,1,1.4.93q6.79,7.22,13.51,14.47c0,18.37,0,36.73,0,55.1,0,2.15.43,3,2.74,2.82,6.25-.44,12.51-.63,18.77-.92l.41.44v7.45c-.05,0-.14.08-.14.1a1.71,1.71,0,0,0,.09.3,4,4,0,0,1,0,.49H37.34V355.22c0-.94-.11-1.89-.18-2.82.82-2.08,1.62-4.16,2.44-6.23.3-.74.64-1.45,1-2.2l.62.22c-.29,1.45-.69,2.88-.84,4.34a5.67,5.67,0,0,0,.59,2c.53-.44,1.4-.83,1.54-1.4.88-3.44,1.51-7,2.43-10.4.33-1.23,1-2.9,2-3.33a15.07,15.07,0,0,1,5.8-1c2.13-.05,3.54-.68,4-2.86.58.05,1.16.13,1.75.13Z" transform="translate(44.62 -123.48)"/><path class="cls-7" d="M-29,318.08l-9.09-12.21c.41-.44.74-1.06,1.24-1.32,7.23-3.8,14.54-7.45,21.69-11.37A31.28,31.28,0,0,1-2,289.54c3.18-.23,6.35-.75,9.53-1.14.59,1.15,1.27,2.26,1.75,3.45,1.5,3.61,2.92,7.24,4.48,11.1l7.69-9,1.36-2.29h.13l.11.05c.29-.07.65-.29.84-.19,3.78,2.07,7.64,4,11.28,6.33a16,16,0,0,1,4.9,4.47c4.56,6.95,8.86,14.07,13.24,21.14a13.77,13.77,0,0,1,.79,1.75c-1.32,0-2.63-.11-3.95-.1-3.06,0-6.39-.84-8.49,2.48,0,.06-.13.07-.2.1-2.56.17-5.13.32-7.69.51a1.08,1.08,0,0,0-.38.17.93.93,0,0,0-.26.33c-.79,3.35-1.55,6.71-2.31,10.09-.42,1.57-.83,3.15-1.24,4.73-2.46,5.35-2.24,11-1.69,16.63.27,2.74.48,5.49.61,8.24,0,.44-.51.91-.78,1.37a5.92,5.92,0,0,0-1-.42c-7-1.8-13.91-.53-20.83.27-6.58.77-13.15,1.9-19.73.16-.22-.06-.52.11-.78.18l.16,3.35c-.38-2.77-2.7-5.06-2.36-7.89.44-3.74,1.45-7.42,2.09-11.14a40.24,40.24,0,0,0,.26-4.54c.48-4.95.93-9.9-.53-14.77-.7-4.31-1.34-8.62-2.15-12.9-.09-.51-1-1.07-1.56-1.24C-22.12,319.86-25.57,319-29,318.08Z" transform="translate(44.62 -123.48)"/><path class="cls-8" d="M234.1,339.62c0-18.22.12-36.44-.08-54.65-.08-6.81-.92-13.59-1.41-20.4q0-12.79.08-25.6c0-17.3-.25-34.6.13-51.89.5-22.41,9.73-40.83,26.82-55.29,3.32-2.8,6.46-5.77,10.58-7.62,2.9-1.32,5-.58,7.26.84a16,16,0,0,1,1.38,1.08l.44.38.05,0,.38.44v0c-2.38,2.44-4.82,4.83-7.14,7.32-11.91,13.1-18.92,28.47-19.55,46.17-.62,17.21-.24,34.44-.37,51.67a8.36,8.36,0,0,1-1,3.91,51.7,51.7,0,0,0-6.89,25.06c-.11,20.36-.05,40.72-.1,61.09a23.61,23.61,0,0,1-.49,3.4l0-.05-1.35,1.8,0,0-4.71,6.63Z" transform="translate(44.62 -123.48)"/><path class="cls-9" d="M12.46,435.14l-1.92,1.59H10.4l-.05.15h-.06l-.06,0,0,.05a.2.2,0,0,0,0,.07l-.28.28c-.1,0-.15,0-.16.12l-.34.31-.1.08-.29.32c0,.61,0,1.22.05,1.83l.2.88c.08.58.15,1.17.22,1.75.08.41.17.82.25,1.23s.12.93.18,1.4.17.82.26,1.23.12.93.18,1.4.17.82.26,1.23l.16,1.39c.09.44.18.85.27,1.27.07.61.15,1.22.22,1.82l.2.84.24,1.79.2.84.24,1.79c.07.29.13.57.19.85,0,.48,0,1,0,1.44l-.35.3-.52.17-.14-.18c-3.25-1.42-6.55-.95-9.85-.26-.61-.48-1.48-.84-1.78-1.47a40.22,40.22,0,0,1-1.59-4.51c-.66-1.94-1.32-3.88-2-5.88l-6.06,4.32-6.84-7.53a8,8,0,0,1,.93-2.19c2-2.3,4.2-4.45,6.16-6.79a3.1,3.1,0,0,0,.66-2.6c-2.85-6.5-3.2-13.38-3.47-20.31-.52-13.11-1.17-26.2-1.76-39.29a9.81,9.81,0,0,1,.08-1.09c1.42.41,2.86,1.22,4.28,1.17,5-.17,10.08-.4,15-1,5.95-.74,11.84-1.85,17.73-3,1.45-.27,3.23.44,4.35-1.16.51,7.71,1,15.43,1.54,23.13.43,6.33,1,12.66,1.36,19,.24,4.36-1.47,8.11-4.18,11.44l-.33.35-.1.1-.34.33-.1.09-.37.34-1.9,1.6h-.15l0,.15h-.07a.05.05,0,0,0-.05,0l0,.05a.2.2,0,0,0,0,.07l-.29.28h-.05l-.06,0,0,.05a.07.07,0,0,0,0,.05l-.35.31-1.91,1.59h-.16l0,.15h-.06l-.06,0,0,.06a.13.13,0,0,0,0,.06l-.28.28c-.1,0-.15,0-.16.13l-.35.3-1.91,1.59h-.16l0,.16h-.06l-.06,0a.1.1,0,0,0,0,.05s0,.05,0,.07L16,432H16l-.05,0a.1.1,0,0,0,0,.05.43.43,0,0,0,0,0l-.35.31-1.91,1.59h-.15l0,.16h-.07l-.06,0a.09.09,0,0,0,0,.05.19.19,0,0,0,0,.07l-.28.27h-.05a.09.09,0,0,0-.06,0s0,0,0,0a.13.13,0,0,0,0,.06ZM6.28,419.69c2.09-1.83,4-3.34,3.17-6.7-.91-3.67-1.15-7.49-1.71-11.25-.28-1.9-.61-3.79-.91-5.7l-.55,0Z" transform="translate(44.62 -123.48)"/><path class="cls-10" d="M315.59,343c5,5.4,9.79,11,15.06,16.15,8,7.74,12.85,16.86,14.24,27.87a6.4,6.4,0,0,1,.08.87v34.2H320.86c-1.6,0-3.19.13-4.79.2h-.22l-.19.09h-.39l-10.95-.29c0-1-.08-2-.08-3.07V331.13c0-1.51-.1-3-.16-4.52,1.66,2.07,3.43,4.07,4.93,6.24C311.3,336.16,313.41,339.62,315.59,343Z" transform="translate(44.62 -123.48)"/><path class="cls-11" d="M520.34,445.27c-10.34-3.34-19-8.68-22.49-19.76a12.75,12.75,0,0,1-.52-3c-.21-3.33,2.47-5.2,5.5-3.68,1.46.74,2.6,2.11,4,2.94a9.22,9.22,0,0,0,2.89.58c-.27-.92-.27-2.12-.87-2.71a32.72,32.72,0,0,0-4.39-3.24c-3.3-2.19-6.65-4.53-8.1-8.33a16.44,16.44,0,0,1-.93-7.39c.44-3.75,3.48-5.49,7.23-4.73,1.21.25,2.4.63,3.6.91,4.63,1.11,7.61-.27,7.26-6.57-.11-2-.6-3.89-.85-5.84a11.77,11.77,0,0,1,3.79-10.68,8,8,0,0,1,9.15-1.41,6.88,6.88,0,0,1,4.39,7.36c-.16,2-.47,3.91-.75,5.85A8.14,8.14,0,0,0,539,395c4.56-.83,5.62.13,5,4.74a9.13,9.13,0,0,1-1.28,3.71A9,9,0,0,1,540,406.3c-1.62,1.12-3.34,2.1-4.89,3.31a7.8,7.8,0,0,0-2.27,9.09c1,2.31,2.63,2.58,5.15.87,2.73-1.84,5.43-1.14,6.22,1.82a7.57,7.57,0,0,1-.12,4.06,11.64,11.64,0,0,1-2.26,4.18c-3.2,3.69-6.48,7.33-9.92,10.8a18.27,18.27,0,0,1-9.11,5c-.26-.44-.7-.88-.73-1.32-.09-1.45.06-2.93-.06-4.38A4.27,4.27,0,0,1,523.5,436c2.5-2.45,4.88-5,7.29-7.56a9.72,9.72,0,0,0,.88-1.25l-.21-.16-9.2,9c-.11-.85-.18-1.1-.18-1.37,0-6.14,0-12.27,0-18.41a3.92,3.92,0,0,1,1.06-2.23c2.46-2.69,5-5.3,7.52-7.95a12.43,12.43,0,0,0,1-1.32l-.6-.48L522,413.51V388.24l-.88-.13a11.47,11.47,0,0,0-.41,2.1c0,6.86,0,13.72,0,20.6,0,.8-.15,1.6-.28,2.9l-9.54-9a3.76,3.76,0,0,0,.85,1.39c2.45,2.61,5,5.11,7.32,7.84a6.63,6.63,0,0,1,1.58,3.79c.18,5.32.08,10.65.07,16,0,.68-.1,1.37-.15,2.05l-.74.44L510.88,427a3.76,3.76,0,0,0,1.13,2c2.44,2.52,4.92,5,7.34,7.52a3.76,3.76,0,0,1,1.21,2C520.61,440.76,520.43,443,520.34,445.27Z" transform="translate(44.62 -123.48)"/><path class="cls-7" d="M396.58,297.86c-.18,3.69-.37,7.38-.52,11.06-.14,3.18-.73,6.21.63,9.52,2,4.87,2.93,10.16,4.46,15.23a157.28,157.28,0,0,0,5.12,15.56c2.05,4.88,4.84,9.44,7.38,14.11q4.75,8.73,9.65,17.4c.64,1.15,1,2.11-.44,2.84l-7,2.89a1.78,1.78,0,0,0-.29-.12c-1.67-2.73-3.38-5.44-5-8.19-5-8.23-11.24-15.67-14.81-24.74-.06-.16-.3-.26-.58-.49.17,3,.44,5.78.47,8.6.08,9,.08,17.94.1,26.92l-7.3-.09c-1.42-12.18-2.56-24.4-4.34-36.53-2.46-16.75-5.39-33.44-8.12-50.16-.21-1.29-.48-2.57-.73-3.85a8.91,8.91,0,0,1,2.35-.37c3.53.44,7.08.84,10.56,1.59A11.36,11.36,0,0,0,396.58,297.86Z" transform="translate(44.62 -123.48)"/><path class="cls-9" d="M396.58,297.86a11.36,11.36,0,0,1-8.42,1.18c-3.48-.75-7-1.14-10.56-1.59a8.84,8.84,0,0,0-2.35.37,8.59,8.59,0,0,1-1.16.81c-.57.3-1.19.52-1.79.78-.16-.67-.58-1.4-.43-2,1.46-6.08,3-12.13,4.55-18.19.92-3.66,1.75-7.35,2.81-11,.78-2.68-.57-4.67-1.69-6.78.1-2.64.21-5.25.31-7.85.31-1.71,1.37-2.11,3-2.14,2.24-.05,4.47-.51,6.7-.78,2.38-.94,4.73-1.93,7.14-2.75a2.43,2.43,0,0,1,2,.3c1.44,1.25,2.71,2.68,4.35,4.34,0,1.26,0,3.07,0,4.88,0,1.22.12,2.44.19,3.66-2,6.74-4.39,13.42-6,20.28-.6,2.59.42,5.58.76,8.38.25,2.09.64,4.17.87,6.26A5.94,5.94,0,0,1,396.58,297.86Z" transform="translate(44.62 -123.48)"/><path class="cls-12" d="M320,452.51c0-2.69.14-5.39,0-8.07-.08-1.76.38-2.4,2.27-2.38q14.4.12,28.81,0c2,0,2.47.65,2.37,2.5-.13,2.68,0,5.37,0,8.07q0,3.5.05,7c0,1.34.11,2.68.16,4l-.24,3.82c-.72.07-1.44.21-2.16.21H322.19c-.73,0-1.45-.14-2.16-.21Q320,460,320,452.51Zm6.62,12a3.44,3.44,0,0,0,1,.33q8.76,0,17.57,0a4,4,0,0,0,1.14-.4v-1.68c-.23-.14-.44-.41-.68-.41-6,0-12.08-.06-18.11,0-1.75,0-1.5,1.07-.92,2.19Zm19.64-3.44c.41-1.53.18-2.23-1.45-2.19-5.61.07-11.23.06-16.85,0-1.81,0-1.87.81-1.36,2.19Zm-.2-4.38.64-.65c-.48-.53-.95-1.5-1.44-1.51-5.9-.11-11.79-.09-17.69,0-.44,0-.82.69-1.23,1.05.39.38.79,1.09,1.19,1.09C333.65,456.72,339.84,456.7,346,456.7Z" transform="translate(44.62 -123.48)"/><path class="cls-12" d="M195.61,451.85v-9.56c.83-.08,1.45-.19,2.07-.19,9.55,0,19.1,0,28.64,0,1.75,0,2.28.5,2.19,2.22-.12,2.69,0,5.39,0,8.09l-.06,15.11c-.8.07-1.59.21-2.39.21H198c-.79,0-1.59-.13-2.38-.2Q195.64,459.66,195.61,451.85Zm26.3,12.77c.31-1.24.47-2.19-1.19-2.15-5.67,0-11.35,0-17,.07-.19,0-.37.18-.65.32,0,.55,0,1.1.09,1.75ZM203.16,461h18.76c.43-1.51.12-2.19-1.47-2.14s-3.34,0-5,0H203.16Zm18.69-4.31c.41-1.42.44-2.26-1.18-2.25-5.4,0-10.8,0-16.22.06-.49,0-1,.7-1.45,1.07.48.38,1,1.06,1.45,1.07,5.76.05,11.52,0,17.39,0Z" transform="translate(44.62 -123.48)"/><path class="cls-13" d="M434.41,405.9c-5.7-.07-11.4-.17-17.07-.18-3.35,0-6.7.14-10,.21l-2.19-.14-22,.09-2.15,0h-9.83c.22-2.36.41-4.39.6-6.38l34.56.07c.53.25,1.09.78,1.57.72,2.25-.28,4.47-.72,6.7-1.11,1.09.08,2.19.22,3.26.22h56.75v6.5H460.68l-1.75.07-22.35-.11Z" transform="translate(44.62 -123.48)"/><path class="cls-6" d="M229.17,255.28l-19.26.16c-4.82.05-9.64.14-14.43.22a5,5,0,0,1,0-1.6,73.75,73.75,0,0,1,12.67-22.58c2.49-3.07,5.78-3,8.26,0a73.75,73.75,0,0,1,12.11,20.91A20,20,0,0,1,229.17,255.28Z" transform="translate(44.62 -123.48)"/><path d="M405.1,405.82l2.19.13c-.34.88-.6,1.8-1,2.63Q395.13,430.69,384,452.77q-4.71,9.25-9.51,18.48a8,8,0,0,1-1.69,1.69l-.71-.61,5-10.33c-.95-.07-1.58-.15-2.19-.16-6.34-.09-12.69-.24-19-.16-.75,0-1.47,1.3-2.19,2-.06-1.34-.11-2.68-.17-4l4.27-7h-4l3.51-.63V281.08c0-.94.07-1.89.11-2.83a23.16,23.16,0,0,1,.32,2.75q0,84,0,168v2.33l.33.1c1-1.75,2-3.46,2.9-5.26,4.5-8.92,8.95-17.87,13.45-26.8,1.9-3.78,3.89-7.51,5.81-11.29a18,18,0,0,0,.78-2.24l2.15,0-2.7,6c.44.24.55.37.68.37,6.72,0,13.43.06,20.16,0a1.88,1.88,0,0,0,1.45-.7C403.59,409.7,404.32,407.74,405.1,405.82Zm-49,53.4a5.5,5.5,0,0,0,1.12.39c6.64,0,13.27.07,19.9,0,.69,0,1.61-.88,2-1.59,2-3.57,3.81-7.21,5.67-10.84.35-.67.61-1.38,1.05-2.37H364.46a1.41,1.41,0,0,0-.6.16,1.53,1.53,0,0,0-.47.41C361,449.89,358.59,454.48,356.1,459.22Zm38-30.64c-7.57,0-14.42-.05-21.27.06-.63,0-1.47.84-1.82,1.5-1.82,3.41-3.51,6.89-5.23,10.36a18.87,18.87,0,0,0-.74,2.07h22.05Zm7.25-14.06c-7,0-13.39.08-19.79,0-1.91,0-3.07.44-3.88,2.24-1.42,3.16-3.07,6.19-4.82,9.65,7.51,0,14.5,0,21.47,0a1.6,1.6,0,0,0,.68-.22,1.66,1.66,0,0,0,.52-.5C397.41,422.09,399.24,418.53,401.33,414.52Z" transform="translate(44.62 -123.48)"/><path d="M401.26,261.12c-.07-1.22-.17-2.44-.19-3.66,0-1.81,0-3.62,0-4.88-1.64-1.66-2.91-3.09-4.35-4.34a2.43,2.43,0,0,0-2-.3c-2.41.82-4.76,1.81-7.14,2.75l.44-1.45.73-1.29,2.73-3c1.52-.63,2-1.63,1.51-3.29-.24-.87-.25-2.38.28-2.8,2.19-1.75,1.29-3-.39-4.24l-.26-.63L391,231.78l-5.26-3.34c-2-4.93-.42-7.28,4.87-7.18A62.56,62.56,0,0,1,399,222a4.11,4.11,0,0,1,2.37,1.7c2,2.86,4,5.77,5.7,8.77a13.05,13.05,0,0,1,1.49,4.5c1.11,7.09.72,14-3.63,20.07-.62.88-.95,2-1.64,2.82A7.18,7.18,0,0,1,401.26,261.12Z" transform="translate(44.62 -123.48)"/><path d="M458.91,405.93l1.76-.06Q466,416.43,471.27,427q6.59,13.15,13.15,26.23c2.86,5.67,5.79,11.3,8.68,17a2.89,2.89,0,0,1,.46,1,12.2,12.2,0,0,1-.15,1.91c-.43-.36-1.09-.63-1.31-1.1-1.47-2.78-2.84-5.6-4.25-8.4-.33-.64-.68-1.28-.88-1.65H464.71c1.47,3,2.77,5.47,3.92,8a11.22,11.22,0,0,1,.47,2.75c-.65-.63-1.54-1.15-1.93-1.92Q453.58,444,440.11,417.21l-5.69-11.31,2.13-.07c.71,1.66,1.47,3.3,2.12,5a2.28,2.28,0,0,0,2.51,1.55c6.25-.06,12.49,0,18.74,0a11.69,11.69,0,0,0,1.66-.26C460.62,409.87,459.77,407.9,458.91,405.93Zm26.4,53.72a8.8,8.8,0,0,0-.43-1.93C483,453.86,481.11,450,479,446.2a3.48,3.48,0,0,0-2.6-1.38c-6.14-.12-12.27-.07-18.41-.05a12.56,12.56,0,0,0-1.71.24,5.11,5.11,0,0,0,.2,1c2.07,4.18,4.11,8.39,6.32,12.5a3.08,3.08,0,0,0,2.31,1.07c4.45.1,8.9,0,13.36,0Zm-8.19-17.08c-2.2-4.38-4.14-8.18-6-12.05a3.08,3.08,0,0,0-3.23-2c-6,.08-11.95,0-17.92,0-.61,0-1.21.11-2.12.19,2.26,4.52,4.33,8.77,6.54,12.93a2.65,2.65,0,0,0,2,.83c4.3.08,8.6,0,12.9,0Zm-8.23-16.4c-1.75-3.51-3.36-6.65-4.88-9.85a3,3,0,0,0-3.11-1.83c-6,.07-12,0-18,0-.61,0-1.23.12-2.28.22,1.76,3.51,3.39,6.65,4.89,9.86a2.64,2.64,0,0,0,2.82,1.8c6.06-.09,12.12,0,18.18-.05.65,0,1.27-.1,2.37-.19Z" transform="translate(44.62 -123.48)"/><path class="cls-3" d="M377.84,253.61q-.15,3.92-.31,7.85c-3.73-.52-7.54-.78-11.19-1.64a13.5,13.5,0,0,1-5.39-3c-3-2.54-5.7-5.38-8.54-8.09s-5.43-5.48-8.32-8a43.24,43.24,0,0,0-5.95-3.9c-2.3-1.37-4.73-2.52-7-4-.67-.44-.88-1.59-1.32-2.41l.68-.43,3.21,2.19.34-.39-2.76-3.15.58-.65,4.7,3.5.44-.54-4.32-5.76,0,0c3.27-.13,3.34,3.73,6.28,5-.9-2.2-1.6-3.95-2.31-5.66l.65-.4c1,1.35,2,2.72,3,4,.61.76,1.35,1.42,2,2.12l1.81-2.1.82.49v-.05c.08.16.17.32.26.47a11.88,11.88,0,0,1,1.13,2.29c1.45,5.53,6.23,8.36,9.72,12.27,4.28,4.78,9.32,7.89,15.78,8.57A41.4,41.4,0,0,1,377.84,253.61Z" transform="translate(44.62 -123.48)"/><path class="cls-3" d="M21.43,294l-7.69,9c-1.56-3.86-3-7.5-4.48-11.1-.49-1.19-1.17-2.3-1.75-3.45,0-3.11.07-6.21.1-9.31.77-1.37-.05-3.57,2.33-4.55-.11,1.74-.2,3.11-.29,4.49l.75.17,1.28-2.28,1.17-3.31c.47-1.32,1.05-1.93,2.56-1A24.78,24.78,0,0,0,28.07,276l.15.44-.4.91-.07.47c-.75,4.24-.62,8.75-4.1,12.09-.41.39-.41,1.19-.6,1.81l-.12-.06H22.8a6.85,6.85,0,0,0-1.35.18,11.11,11.11,0,0,1-8.88-.26,31.15,31.15,0,0,1-2.92-1.91,1.4,1.4,0,0,0,0,.61,1.42,1.42,0,0,0,.27.55C13.07,294.4,17,295,21.43,294Z" transform="translate(44.62 -123.48)"/><path class="cls-6" d="M332.75,225.16l4.32,5.74-.44.55-4.7-3.51-.58.66,2.74,3.18-.37.37L330.51,230l-.67.44c.43.82.64,2,1.31,2.41,2.24,1.46,4.66,2.61,7,4a41.76,41.76,0,0,1,5.95,3.9c2.91,2.51,5.57,5.3,8.33,8-.09.55-.16,1.1-.28,1.89l-34.19-4.94c2-3.34,3.61-6.54,5.7-9.37C326.49,232.42,329.71,228.85,332.75,225.16Z" transform="translate(44.62 -123.48)"/><path class="cls-3" d="M29.57,343.57c.41-1.58.83-3.16,1.24-4.74a9.34,9.34,0,0,0,1.32-1.42c2.14-3.5,4.52-6.73,8.39-8.54.41-.19.64-.74.95-1.12.07,0,.17,0,.2-.1,2.1-3.31,5.44-2.46,8.5-2.48,1.31,0,2.63.06,3.94.1q1.29,3.14,2.57,6.25c-.43,2.2-1.86,2.81-4,2.86a15.45,15.45,0,0,0-5.8,1c-1,.44-1.64,2.1-2,3.33-.92,3.44-1.54,7-2.42,10.41-.15.56-1,.94-1.55,1.4a5.59,5.59,0,0,1-.58-2,43.29,43.29,0,0,1,.83-4.35l-.62-.21c-.32.72-.66,1.44-1,2.19-.82,2.07-1.62,4.15-2.43,6.23-1.67-.11-1.59-1.06-1.2-2.3.62-2,1.14-3.94,1.71-5.92l-.88-.28-2.1,5.95a8.75,8.75,0,0,1-.77,2,6.51,6.51,0,0,1-1.47,1.28l-.83-1.76,3.25-7.69-.77-.3c-1.29,2.35-3.26,4.41-2.95,7.48-1.75-.17-2.39-1.09-1.73-2.87.6-1.61,1.39-3.15,2.1-4.72,0-.24.05-.48.08-.72l-.6.31Z" transform="translate(44.62 -123.48)"/><path d="M28.21,276.46l-.15-.44c.16-.76.32-1.52.39-1.87-4.4-1.12-8.62-2.1-12.77-3.29-1.87-.54-2.7-.33-3.16,1.59-.35,1.47-.58,3-.88,4.47l-1.27,2.28L9.62,279c.09-1.38.18-2.75.29-4.49-2.38,1-1.56,3.18-2.33,4.55C5.11,278,4.45,274.43,6,271.6a12.62,12.62,0,0,0,1.46-4.25c.44-3.07,1.61-3.94,4.38-2.91,1.58-3.31,5.63-3.57,10-3.11,2.21.23,4.38,1.18,6.57,1.34a59.85,59.85,0,0,0,7.3-.28c.72,4-1.22,9.51-4.87,10.65-.62.19-.95,1.26-1.44,1.9A18.91,18.91,0,0,1,28.21,276.46Z" transform="translate(44.62 -123.48)"/><path class="cls-13" d="M256.07,452c1.59.06,3.19.16,4.78.16q15.3,0,30.59,0c.79,0,1.58-.1,2.38-.16h7.6v5.82H250v-5.47l5.67-.36Z" transform="translate(44.62 -123.48)"/><path class="cls-14" d="M195.67,467.49c.8.07,1.59.2,2.39.2h28.05c.8,0,1.59-.14,2.38-.21l6.42.36v5.77H190.82v-5.7Z" transform="translate(44.62 -123.48)"/><path class="cls-14" d="M320,467.48c.72.07,1.44.21,2.16.21h29.05c.72,0,1.44-.14,2.16-.21l5.05.4v5.7h-44v-5.7Z" transform="translate(44.62 -123.48)"/><path d="M520.34,445.27c.09-2.24.27-4.5.2-6.74,0-.68-.68-1.42-1.21-2-2.42-2.53-4.9-5-7.34-7.52a3.7,3.7,0,0,1-1.13-2l8.89,9.14.73-.44c.06-.68.16-1.37.16-2.06,0-5.33.11-10.66-.07-16a6.75,6.75,0,0,0-1.58-3.8c-2.31-2.72-4.87-5.23-7.32-7.83a3.71,3.71,0,0,1-.85-1.39l9.53,9c.13-1.32.28-2.1.29-2.9q0-10.31,0-20.61a11.36,11.36,0,0,1,.41-2.09l.87.12v25.2c3.34-3.37,6.22-6.28,9.09-9.2l.61.47a14,14,0,0,1-1,1.32c-2.5,2.65-5.06,5.26-7.52,8a3.86,3.86,0,0,0-1.06,2.23c-.08,6.14-.05,12.28,0,18.41,0,.27.06.52.17,1.37l9.21-9,.21.16a9.72,9.72,0,0,1-.88,1.25c-2.41,2.54-4.79,5.11-7.29,7.56a4.32,4.32,0,0,0-1.18,1.65,4.26,4.26,0,0,0-.28,2c.13,1.45,0,2.92.07,4.38,0,.44.47.88.73,1.32a10.16,10.16,0,0,0-.71,2.58c-.06,7.74,0,15.48,0,23.24v2.38c-2.12.16-1.75-1.22-1.75-2.19Q520.32,458.29,520.34,445.27Z" transform="translate(44.62 -123.48)"/><path class="cls-15" d="M245.51,324.68c.06-.94.15-1.88.15-2.83V262.79c0-1.16.17-2.31.26-3.47a17.8,17.8,0,0,1,.44,2.71q0,31.22,0,62.43V429.15c0,2.92,0,2.87,3,2.94,1.93.05,3.85.27,5.78.44l-5.75.26-4-.17v-8.93a.4.4,0,0,0,.07-.19.45.45,0,0,0,0-.2Q245.5,374,245.51,324.68Z" transform="translate(44.62 -123.48)"/><path class="cls-16" d="M27.23,369.84c-1.11,1.59-2.89.88-4.35,1.17-5.88,1.11-11.78,2.22-17.72,3-5,.62-10,.87-15,1-1.41.05-2.85-.76-4.28-1.17l-.27-.51c-.05-1.08-.1-2.16-.15-3.35.26-.06.55-.24.78-.17,6.57,1.75,13.15.6,19.72-.16,6.92-.8,13.87-2.08,20.83-.27a6.41,6.41,0,0,1,1,.41Z" transform="translate(44.62 -123.48)"/><path class="cls-15" d="M-8.68,474.15c-4.65-7-9.25-14.12-13.94-21.13-.83-1.25-.24-1.83.62-2.49.72.46,1.66.77,2.1,1.42,3.54,5.26,7.13,10.45,10.38,15.87,1.72,2.85,3.67,4.51,7.09,3.85l1,1c-.58-2.19.48-2.51,1.9-2.4.85.1,1.69.27,2.53.3,3.46.09,6.91.14,10.36.2l.12,2a6,6,0,0,1-2,.73c-4.12.07-8.25,0-12.37,0-.38,0-.74.32-1.12.49Z" transform="translate(44.62 -123.48)"/><path class="cls-10" d="M304.32,422.06l11,.29c-.19,3.4-.39,6.8-.6,10.37-2.28.21-4.63.56-7,.62-3.86.11-7.73,0-11.59.05a15.11,15.11,0,0,0-2.3.38l-.88-1.51a5.49,5.49,0,0,1,1.55-.5c3.07,0,6.11,0,9.5,0C304.07,428.39,304.2,425.23,304.32,422.06Z" transform="translate(44.62 -123.48)"/><path class="cls-3" d="M392.62,234l.26.63c-.39,1-.78,1.92-1.18,2.87-.2.44-.62.88-.6,1.32.06,2,.24,4.09.38,6.13l-2.73,3h-.7c0-.71,0-1.43,0-2.14l1.63-.62-1.83-.25c-4.38-.38-4.63-.69-4.64-5.26a43.61,43.61,0,0,0-.44-4.34,8.76,8.76,0,0,0,2.93-6.91l5.26,3.34Z" transform="translate(44.62 -123.48)"/><path class="cls-17" d="M-2.42,471.67c-3.43.66-5.38-1-7.1-3.85-3.25-5.42-6.84-10.63-10.38-15.87-.44-.65-1.38-1-2.1-1.42l4.63-3.89a2.88,2.88,0,0,1,.25,1c-.55,3.27,2,5.05,3.54,7.26.28.4,1.07.42,1.63.61a6.22,6.22,0,0,0,1.72.09c2.19-.48,2.83.57,2.84,2.56,0,2.19.36,4.36.31,6.53-.07,2.84.73,4.95,3.69,5.84C-3,470.7-2.74,471.29-2.42,471.67Z" transform="translate(44.62 -123.48)"/><path class="cls-7" d="M423.63,385.27c1.89-.68,3,0,3.47,1.92.34,1.36.79,2.69,1.19,4-4.1,1.86-8.21,3.69-12.28,5.58-3,1.41-6,3.07-9.5,2.53a.6.6,0,0,0-.24-.21c.62-.49,1.2-1.32,1.88-1.42,2.63-.34,3.82-2.1,4.66-4.31l1.93-5.1a7.5,7.5,0,0,1,1.31,1.06,25,25,0,0,1,1.57,2.33C421.22,391.06,423.29,389,423.63,385.27Z" transform="translate(44.62 -123.48)"/><path class="cls-7" d="M386.89,389.47c.09,1.12.19,2.25.28,3.37,1.62,1.25,5.41,1.07,6.84-.48,1.17-1.27,2.35-1.91,4-1.06-.12,2-.23,3.94-.35,5.91l-22.87-.16a7.39,7.39,0,0,1,2-1.2c3.55-.77,6.24-2.89,8.71-5.38A9.89,9.89,0,0,1,386.89,389.47Z" transform="translate(44.62 -123.48)"/><path class="cls-17" d="M13.32,470.76c-3.45-.06-6.9-.11-10.36-.2-.84,0-1.68-.2-2.53-.3l1.38-4.09a7.89,7.89,0,0,1,9.3-1.31l.49.52.3.33.11.11.33.34.08.1.34.44c.34.87.67,1.75,1,2.63v.84l-.1.48A1.42,1.42,0,0,1,13.32,470.76Z" transform="translate(44.62 -123.48)"/><path class="cls-6" d="M345,228.71l-.81-.5-1.8,2.1c-.68-.7-1.43-1.36-2-2.12-1-1.32-2-2.69-3-4l-.65.4,2.31,5.66c-2.94-1.28-3-5.14-6.29-5,0-.07,0-.16.07-.2,4.06-4.85,7.92-5.63,11.14,1.16C344.33,227,344.65,227.84,345,228.71Z" transform="translate(44.62 -123.48)"/><path class="cls-4" d="M374.79,397.05l22.87.17-.66,1.11a.23.23,0,0,0-.2.06.25.25,0,0,0-.11.17.41.41,0,0,1,0,.22c-7,0-14,0-21-.1a24.62,24.62,0,0,1-2.57-.28v-1Z" transform="translate(44.62 -123.48)"/><path class="cls-15" d="M398,391.3c-1.65-.85-2.83-.21-4,1.06-1.43,1.55-5.22,1.73-6.84.48.38-.48.95-.92,1.07-1.45a18,18,0,0,0,.2-3l7.27.08c.33.48.63,1,1,1.42S397.57,390.82,398,391.3Z" transform="translate(44.62 -123.48)"/><path class="cls-12" d="M423.63,385.27c-.34,3.71-2.41,5.8-6,6.41l-1.76-5.21,7-2.89C423.1,384.14,423.37,384.71,423.63,385.27Z" transform="translate(44.62 -123.48)"/><path class="cls-15" d="M406.49,399.33c3.53.52,6.48-1.12,9.51-2.53,4.08-1.89,8.19-3.72,12.27-5.58.37,1.43-.49,2-1.63,2.48-4.05,1.75-8.07,3.62-12.1,5.44-2.23.39-4.45.83-6.7,1.11-.48.06-1-.47-1.57-.72A1,1,0,0,0,406.49,399.33Z" transform="translate(44.62 -123.48)"/><path class="cls-3" d="M11.11,464.86a7.89,7.89,0,0,0-9.3,1.31l-.3-5c3.3-.7,6.6-1.16,9.85.26,0,.26,0,.53,0,.8Z" transform="translate(44.62 -123.48)"/><path class="cls-3" d="M-11.95,455.55c-.56-.19-1.35-.21-1.63-.6-1.57-2.23-4.09-4-3.54-7.27a2.88,2.88,0,0,0-.25-1l.6-.53,6.84,7.52Z" transform="translate(44.62 -123.48)"/><path d="M406.49,399.33a1.89,1.89,0,0,1-.2.2l-34.56-.07,1.38-1.07a24.62,24.62,0,0,0,2.57.28c7,.05,14,.07,21,.09l9.58.36A.54.54,0,0,1,406.49,399.33Z" transform="translate(44.62 -123.48)"/><path class="cls-18" d="M374.79,397.05l-1.67.36c.16-.33.25-.78.51-1a6.24,6.24,0,0,1,1.6-.67,20.17,20.17,0,0,0,10.3-6.54c.88-1.09,1-1,1.36.24a9.82,9.82,0,0,0-1.4,1c-2.47,2.49-5.15,4.61-8.71,5.38A6.3,6.3,0,0,0,374.79,397.05Z" transform="translate(44.62 -123.48)"/><path d="M31.17,350.89c-.31-3.07,1.66-5.13,2.95-7.48l.77.3-3.24,7.7Z" transform="translate(44.62 -123.48)"/><path d="M-8.68,474.15-2,474Z" transform="translate(44.62 -123.48)"/><path class="cls-19" d="M387.88,244.93l1.83.25-1.63.63Z" transform="translate(44.62 -123.48)"/><path class="cls-19" d="M388.05,247.94h.7l-.74,1.3Z" transform="translate(44.62 -123.48)"/><path d="M13.32,470.76a1.3,1.3,0,0,0,.35-.11c-.07.71-.15,1.42-.23,2.13Z" transform="translate(44.62 -123.48)"/><path d="M9.73,443.85c-.08-.41-.17-.82-.25-1.22C9.56,443,9.65,443.44,9.73,443.85Z" transform="translate(44.62 -123.48)"/><path d="M11,451.77c-.08-.44-.17-.84-.26-1.26C10.86,450.93,11,451.35,11,451.77Z" transform="translate(44.62 -123.48)"/><path d="M10.61,449.11c-.09-.41-.17-.82-.26-1.23C10.44,448.29,10.52,448.7,10.61,449.11Z" transform="translate(44.62 -123.48)"/><path d="M10.17,446.48c-.09-.41-.17-.82-.26-1.22C10,445.66,10.08,446.07,10.17,446.48Z" transform="translate(44.62 -123.48)"/><path d="M9.26,440.89l-.2-.88Z" transform="translate(44.62 -123.48)"/><path class="cls-19" d="M256.07,452h-.44c0-.22.09-.44.14-.67C255.87,451.56,256,451.79,256.07,452Z" transform="translate(44.62 -123.48)"/><path d="M11.48,454.44l-.22-.84Z" transform="translate(44.62 -123.48)"/><path d="M11.92,457.07l-.22-.84Z" transform="translate(44.62 -123.48)"/><path d="M12.33,459.71c-.06-.29-.12-.57-.19-.85C12.21,459.14,12.27,459.42,12.33,459.71Z" transform="translate(44.62 -123.48)"/><path d="M11.33,462.24a7,7,0,0,1,0-.8.86.86,0,0,1,.14.18C11.44,461.82,11.38,462,11.33,462.24Z" transform="translate(44.62 -123.48)"/><path d="M19.56,429l0-.15h.15A.9.9,0,0,1,19.56,429Z" transform="translate(44.62 -123.48)"/><path d="M25.18,424.19l.34-.33Z" transform="translate(44.62 -123.48)"/><path d="M25.63,423.75l.32-.35Z" transform="translate(44.62 -123.48)"/><path class="cls-7" d="M345.26,229.12c-.09-.16-.18-.31-.26-.47C345.08,228.81,345.17,229,345.26,229.12Z" transform="translate(44.62 -123.48)"/><path class="cls-19" d="M27.74,277.85l.07-.48C27.78,277.53,27.76,277.69,27.74,277.85Z" transform="translate(44.62 -123.48)"/><path d="M16.49,431.64l0-.16h.15A1,1,0,0,1,16.49,431.64Z" transform="translate(44.62 -123.48)"/><path d="M18.6,429.88l.35-.3Z" transform="translate(44.62 -123.48)"/><path d="M19.11,429.45l.27-.28A1.2,1.2,0,0,1,19.11,429.45Z" transform="translate(44.62 -123.48)"/><path d="M9.9,437.34l.28-.28A1.07,1.07,0,0,1,9.9,437.34Z" transform="translate(44.62 -123.48)"/><path d="M9.4,437.77l.34-.3Z" transform="translate(44.62 -123.48)"/><path d="M12,461.44l.35-.3Z" transform="translate(44.62 -123.48)"/><path d="M10.35,436.9l.05-.16h.14A.58.58,0,0,1,10.35,436.9Z" transform="translate(44.62 -123.48)"/><path d="M21.67,427.25,22,427Z" transform="translate(44.62 -123.48)"/><path d="M22.17,426.82l.28-.28A1.07,1.07,0,0,1,22.17,426.82Z" transform="translate(44.62 -123.48)"/><path d="M13.42,434.27l0-.16h.15A.58.58,0,0,1,13.42,434.27Z" transform="translate(44.62 -123.48)"/><path d="M13,434.71l.28-.28A1.24,1.24,0,0,1,13,434.71Z" transform="translate(44.62 -123.48)"/><path d="M11.92,465.71l-.3-.33Z" transform="translate(44.62 -123.48)"/><path d="M12.36,466.16l-.33-.34Z" transform="translate(44.62 -123.48)"/><path d="M12.76,466.69c-.12-.14-.23-.29-.34-.44C12.53,466.4,12.64,466.55,12.76,466.69Z" transform="translate(44.62 -123.48)"/><path d="M12.46,435.14l.35-.3Z" transform="translate(44.62 -123.48)"/><path d="M15.53,432.51l.35-.3Z" transform="translate(44.62 -123.48)"/><path d="M22.63,426.38l0-.15h.16A.9.9,0,0,1,22.63,426.38Z" transform="translate(44.62 -123.48)"/><path d="M16,432.08l.28-.28A1.24,1.24,0,0,1,16,432.08Z" transform="translate(44.62 -123.48)"/><path d="M24.72,424.62l.36-.34Z" transform="translate(44.62 -123.48)"/><path d="M9,438.17l.29-.32Z" transform="translate(44.62 -123.48)"/><path class="cls-20" d="M255.45,432.56l-.15.06-.13-.09c-1.93-.15-3.85-.38-5.78-.44-3-.07-3,0-3-2.94V262a17.8,17.8,0,0,0-.44-2.71c.09-7.79,2.63-14.9,6.13-21.73.56-1.1,1.2-2.15,1.81-3.23s1.51-2.12,2.26-3.19l10.43-.12c-2.16,4.26-4.79,8.36-6.36,12.84a53.19,53.19,0,0,0-2.74,13.57c-.43,5.94-.07,12,0,17.92a40.05,40.05,0,0,0-1.21,5.67c-.08,1,.66,2,1,3,0,1,.09,2,.09,3.07V403.62c0,9-.25,18.07-.35,27.1C257,431.81,256.78,432.62,255.45,432.56Z" transform="translate(44.62 -123.48)"/><path class="cls-10" d="M266.55,231.05l-10.44.12a7.87,7.87,0,0,1,.72-1.75,56.12,56.12,0,0,1,13.51-12.67c2.87-2,6.13-2.31,9.05-.32,5.75,3.9,11.13,8.27,15,14.18l-.78.31c-4.22,0-8.44-.12-12.66-.1C276.16,230.86,271.35,231,266.55,231.05Z" transform="translate(44.62 -123.48)"/><path class="cls-21" d="M257.23,284.08c-.37-1-1.12-2.06-1-3a41.5,41.5,0,0,1,1.21-5.67c3.28-6.49,8.33-10.71,15.71-11.29,2.75-.21,5.59.53,8.36,1,1.23.21,2.26,1,1.76,2.48s-1.69,1.25-2.92.87c-6.95-2.09-13.15-.36-17.32,4.83a14.08,14.08,0,0,0-3.16,8.44C259.74,283.42,259.05,284.34,257.23,284.08Z" transform="translate(44.62 -123.48)"/><path class="cls-21" d="M293.06,282.19c-.31.35-.95,1.72-1.75,1.84-1.61.23-1.8-1.26-1.86-2.58a15.89,15.89,0,0,0-4.25-10.29c-.94-1-1.56-2.09-.33-3.19s2.29-.14,3.11.82A21,21,0,0,1,293.06,282.19Z" transform="translate(44.62 -123.48)"/><path class="cls-22" d="M263.58,444.14c7.14,0,14.28,0,21.42.05.39,0,.78.73,1.17,1.12-.41.38-.82,1.07-1.23,1.07-6.85.07-13.71.09-20.57,0-.49,0-.95-1-1.43-1.58Z" transform="translate(44.62 -123.48)"/><path class="cls-22" d="M285.88,436.74c.67,1.82.09,2.33-1.51,2.32-6.49-.05-13,0-19.48-.07-.56,0-1.11-.69-1.68-1.06.44-.4.91-1.13,1.37-1.14C271.64,436.72,278.71,436.74,285.88,436.74Z" transform="translate(44.62 -123.48)"/><path class="cls-22" d="M274.66,442.6c-3.28,0-6.58,0-9.83-.06-.55,0-1.08-.73-1.62-1.12.57-.37,1.12-1.05,1.68-1.06q9.84-.11,19.66,0c.55,0,1.08.73,1.62,1.12-.56.37-1.11,1-1.68,1.06C281.21,442.64,277.93,442.6,274.66,442.6Z" transform="translate(44.62 -123.48)"/><path d="M293.63,230.94l.78-.31a46.17,46.17,0,0,1,8.19,16,6.66,6.66,0,0,1-.06,2.08A58.58,58.58,0,0,0,293.63,230.94Z" transform="translate(44.62 -123.48)"/><path class="cls-7" d="M289.58,137.53l5.06,10,0,0-5.7-10.08Z" transform="translate(44.62 -123.48)"/><path class="cls-7" d="M294.64,147.57l.16.12-.2-.08Z" transform="translate(44.62 -123.48)"/><path class="cls-4" d="M46.75,408.29c0-6.13-.08-12.27-.09-18.39,0-15.1,0-30.21,0-45.32,0-1.9.5-2.48,2.46-2.48q70.38.09,140.78,0c.58,0,1.16,0,1.75.06v25l-5.23,5.29c-4.74,2.36-9.47,4.74-14.22,7.07a19,19,0,0,1-2.45.8q-6.74-7.24-13.5-14.47a7.82,7.82,0,0,0-1.41-.93c-.79-.61-.82-.64-1.62.19-4.12,4.23-8.16,8.54-12.36,12.68a7.17,7.17,0,0,0-1.71,2.47,7,7,0,0,0-.51,3c.05,17.15,0,34.3,0,51.45,0,.81.08,1.61.12,2.41l-.63,0-.35-.69V381.67c0-1.1.15-2.19-1.39-2.5q-6.42-1.38-12.79-2.94c-1.06-.25-1.35.06-1.27,1-3.21,2.93-6.32,6-9.66,8.76-2.81,2.34-4.5,4.69-4.42,8.77.28,14.13.07,28.28.05,42.42l-.77,0,0-.75c0-.29.07-.58.09-.88V391.13a12.86,12.86,0,0,0-.26-1.63c-4.82,1.17-9.49,2.28-14.15,3.46-.4.1-.69.64-1,1-4.64,2-9.3,4-13.91,6.14-.49.22-.67,1.11-1,1.7l-15.35,2.85c-.49-.26-1-.81-1.46-.73a25.74,25.74,0,0,0-3.07,1C53.84,406.06,50.3,407.17,46.75,408.29Zm12.11-31.93h50.26V354.83H58.86Z" transform="translate(44.62 -123.48)"/><path class="cls-10" d="M245.48,423.3a42.58,42.58,0,0,1-5.42,0,61.46,61.46,0,0,1-6.35-1.37,3.07,3.07,0,0,0-1-.36q-13.34,0-26.68.09c-3.07-.11-3.07-.11-3.07-3.1V390.73c0-12,4.51-22.22,12.81-30.86,5.8-6,11.4-12.28,17.1-18.42a14.13,14.13,0,0,0,1.21-1.83l4.09-5.7,4.72-6.63,0,0,1.35-1.8,0,.05,1.31-.9Z" transform="translate(44.62 -123.48)"/><path class="cls-7" d="M186.38,372.46l5.26-5.29,0,70.58-.41-.44a4.11,4.11,0,0,0-1.4-.4c-4.07.18-3.35-.58-3.36-3.56Q186.38,402.92,186.38,372.46Z" transform="translate(44.62 -123.48)"/><path class="cls-7" d="M206.06,421.62q13.33-.06,26.68-.09a3.07,3.07,0,0,1,1,.36c-.32.47-.66.94-1,1.4-8,0-16.09,0-24.14,0A2.18,2.18,0,0,1,206.06,421.62Z" transform="translate(44.62 -123.48)"/><path class="cls-7" d="M191.52,445.62a1.71,1.71,0,0,1-.09-.3s.09-.07.14-.1A.62.62,0,0,1,191.52,445.62Z" transform="translate(44.62 -123.48)"/><path class="cls-7" d="M316.06,422.26c1.59-.07,3.19-.2,4.79-.21H345c-.26.12-.51.33-.77.32Q330.11,422.34,316.06,422.26Z" transform="translate(44.62 -123.48)"/><path class="cls-23" d="M138.72,437.09c0-.8-.11-1.6-.11-2.41q0-25.73,0-51.45a7,7,0,0,1,2.21-5.43c4.2-4.14,8.24-8.45,12.36-12.68.8-.83.83-.8,1.62-.19q0,35.11,0,70.23c0,1.06,0,2.19-1.48,2.15C148.47,437.26,143.6,437.16,138.72,437.09Z" transform="translate(44.62 -123.48)"/><path class="cls-18" d="M186.38,372.46q0,30.45,0,60.93c0,3-.71,3.75,3.37,3.56a4.81,4.81,0,0,1,1.39.4c-6.26.29-12.52.49-18.77.92-2.31.15-2.75-.67-2.74-2.82.08-18.36,0-36.73,0-55.1a17.53,17.53,0,0,0,2.45-.8C176.89,377.2,181.62,374.82,186.38,372.46Z" transform="translate(44.62 -123.48)"/><path class="cls-23" d="M137.74,436.44l.36.69c-3.7.06-7.39.17-11.09.17-6.25,0-12.49-.07-18.74-.1,0-14.15.24-28.29,0-42.43-.08-4.06,1.61-6.41,4.42-8.76,3.34-2.77,6.45-5.83,9.67-8.77l1.37-.15v53.79c0,6,0,6,6,6C132.4,436.83,135.09,436.59,137.74,436.44Z" transform="translate(44.62 -123.48)"/><path class="cls-18" d="M77.23,401.77c.33-.58.52-1.47,1-1.69,4.6-2.12,9.26-4.12,13.9-6.14a17.8,17.8,0,0,1,.37,2.52q0,20,.06,40h-.44a5.17,5.17,0,0,0-1.39-.41c-4.42,0-8.84,0-13.26.05-.07-.94-.2-1.88-.2-2.82Q77.24,417.52,77.23,401.77Z" transform="translate(44.62 -123.48)"/><path class="cls-18" d="M46.75,408.29c3.55-1.12,7.09-2.23,10.63-3.37a25.15,25.15,0,0,1,3.07-1c.44-.08,1,.47,1.46.73v32.73H58.18c-3.29,0-6.58.06-9.84-.06-.61,0-1.69-.8-1.69-1.24C46.61,426.8,46.69,417.55,46.75,408.29Z" transform="translate(44.62 -123.48)"/><path class="cls-12" d="M77.47,436.06c4.42,0,8.84-.06,13.26-.05a5.17,5.17,0,0,1,1.39.41l0,.81c-4.29,0-8.59,0-12.88,0C78.41,437.27,77.26,437.61,77.47,436.06Z" transform="translate(44.62 -123.48)"/><path class="cls-23" d="M92.08,437.25l0-.81h.44l14.93,0,0,.76Z" transform="translate(44.62 -123.48)"/><path class="cls-12" d="M21.43,294c-4.38,1-8.36.41-11.53-3.13a1.29,1.29,0,0,1-.27-.55,1.26,1.26,0,0,1,0-.61,29.9,29.9,0,0,0,2.92,1.91,11.08,11.08,0,0,0,8.87.26,7,7,0,0,1,1.36-.18Z" transform="translate(44.62 -123.48)"/><path d="M242.92,327.29l-4.72,6.64Q240.56,330.6,242.92,327.29Z" transform="translate(44.62 -123.48)"/><path d="M244.23,325.54l-1.35,1.79Z" transform="translate(44.62 -123.48)"/><path d="M414.74,388.28q.45-1,.84-1.95l.29.12,1.75,5.22c-.51-.79-1-1.61-1.56-2.34A7.43,7.43,0,0,0,414.74,388.28Z" transform="translate(44.62 -123.48)"/><path class="cls-22" d="M346.21,461.08H326.55c-.51-1.39-.44-2.22,1.36-2.19,5.62.05,11.24.06,16.85,0C346.39,458.86,346.62,459.55,346.21,461.08Z" transform="translate(44.62 -123.48)"/><path class="cls-22" d="M346,456.7c-6.17,0-12.35,0-18.53-.05-.4,0-.8-.71-1.2-1.09.42-.36.82-1,1.24-1.05,5.9-.06,11.79-.08,17.69,0,.49,0,1,1,1.44,1.51Z" transform="translate(44.62 -123.48)"/><path class="cls-16" d="M346.27,462.77v1.68l-19.68.07c-.23-1.48.48-1.81,1.85-1.79C334.37,462.81,340.32,462.77,346.27,462.77Z" transform="translate(44.62 -123.48)"/><path class="cls-17" d="M346.27,462.77c-5.95,0-11.9,0-17.85,0-1.37,0-2.08.32-1.85,1.79-.58-1.1-.88-2.16.92-2.19,6,0,12.06,0,18.1,0C345.82,462.37,346,462.63,346.27,462.77Z" transform="translate(44.62 -123.48)"/><path class="cls-17" d="M326.57,464.52l19.69-.07a4,4,0,0,1-1.14.4q-8.78,0-17.57,0A3.44,3.44,0,0,1,326.57,464.52Z" transform="translate(44.62 -123.48)"/><path class="cls-22" d="M221.88,464.61H203.12c0-.67-.06-1.22-.09-1.76.28-.14.47-.32.66-.32,5.67,0,11.34,0,17-.07C222.37,462.44,222.21,463.37,221.88,464.61Z" transform="translate(44.62 -123.48)"/><path class="cls-22" d="M203.15,461v-2.12h12.27c1.68,0,3.35.07,5,0s1.92.63,1.47,2.14Z" transform="translate(44.62 -123.48)"/><path class="cls-22" d="M221.84,456.7c-5.87,0-11.63,0-17.38-.05-.49,0-1-.69-1.45-1.07.48-.37,1-1.06,1.45-1.07,5.4-.07,10.79,0,16.21-.06C222.26,454.44,222.25,455.28,221.84,456.7Z" transform="translate(44.62 -123.48)"/><path class="cls-19" d="M391.48,244.93c-.14-2-.32-4.09-.38-6.13,0-.44.4-.88.6-1.32.4-.95.79-1.91,1.18-2.87,1.68,1.27,2.59,2.48.39,4.24-.53.44-.52,1.93-.28,2.81C393.45,243.3,393,244.3,391.48,244.93Z" transform="translate(44.62 -123.48)"/><path class="cls-19" d="M392.62,234c-.54-.72-1.07-1.46-1.61-2.19Z" transform="translate(44.62 -123.48)"/><path class="cls-19" d="M11.66,276.93c.28-1.49.51-3,.88-4.47.44-1.92,1.29-2.13,3.16-1.59,4.15,1.19,8.36,2.17,12.77,3.29-.08.35-.23,1.11-.4,1.88a25,25,0,0,1-12.66-3.43c-1.5-.91-2.09-.29-2.56,1C12.45,274.72,12.05,275.83,11.66,276.93Z" transform="translate(44.62 -123.48)"/><path d="M31,342.89l.6-.31c0,.24-.05.48-.08.72Z" transform="translate(44.62 -123.48)"/><path class="cls-18" d="M397,398.32l-.31.23a.29.29,0,0,1,.11-.18A.26.26,0,0,1,397,398.32Z" transform="translate(44.62 -123.48)"/><path class="cls-24" d="M58.86,376.36V354.83h50.26v21.53Zm3.5-11.9c1.76.88,38.76.8,40.08-.11-1.76-.94-38.75-.84-40.07.11Zm.11-5V360h39.72v-.48Zm-.56,10.67c1.87,1.29,20.87,1.17,22.5,0Z" transform="translate(44.62 -123.48)"/><path class="cls-7" d="M137.74,436.44c-2.67.15-5.34.39-8,.44-6,.06-6,0-6-6V377.12l-1.37.15c-.08-1,.2-1.28,1.27-1q6.36,1.56,12.79,2.95c1.54.33,1.38,1.39,1.38,2.5v38.54Z" transform="translate(44.62 -123.48)"/><path class="cls-7" d="M107.48,436.47l-14.91,0q0-20-.06-40a17.78,17.78,0,0,0-.36-2.52c.34-.33.63-.87,1-1,4.66-1.18,9.33-2.29,14.15-3.46a12.86,12.86,0,0,1,.26,1.63V435.6A8.62,8.62,0,0,1,107.48,436.47Z" transform="translate(44.62 -123.48)"/><path class="cls-25" d="M62.37,364.46c1.32-.95,38.31-1,40.08-.11C101.13,365.26,64.12,365.35,62.37,364.46Z" transform="translate(44.62 -123.48)"/><path class="cls-15" d="M62.48,359.5h39.7V360H62.47Z" transform="translate(44.62 -123.48)"/><path class="cls-25" d="M61.92,370.17h22.5C82.79,371.34,63.79,371.46,61.92,370.17Z" transform="translate(44.62 -123.48)"/><path class="cls-10" d="M244.56,432.85l-11.26.31v-9h11.28Z" transform="translate(44.62 -123.48)"/><path class="cls-7" d="M255.63,434.68H249.9c-.3-1.11.25-1.37,1.23-1.34,1.5,0,3,0,4.5,0Z" transform="translate(44.62 -123.48)"/></g></svg>