<?xml version="1.0" encoding="utf-8"?>
<!-- Generator: Adobe Illustrator 26.1.0, SVG Export Plug-In . SVG Version: 6.00 Build 0)  -->
<svg version="1.1" id="Layer_1" xmlns="http://www.w3.org/2000/svg" xmlns:xlink="http://www.w3.org/1999/xlink" x="0px" y="0px"
	 viewBox="0 0 358.8 72.32" style="enable-background:new 0 0 358.8 72.32;" xml:space="preserve">
<style type="text/css">
	.st0{fill:#EA1E31;}
</style>
<g>
	<path class="st0" d="M74.47,51.94c6.68,6.81,12.96,13.22,19.24,19.62c-0.09,0.23-0.17,0.46-0.26,0.69
		c-4.93,0.02-9.87-0.07-14.8,0.01C68.89,72.64,61.53,67.68,54.93,61c-5.89-5.89-11.72-11.84-17.51-17.82
		c-5.82-5.58-6.15-11.69,3.5-11.16c9.04-0.01,18.08,0,27.12-0.01c3.94,0.29,7.92-0.77,8-5.34c0.12-3.5-2.89-5.97-6.3-5.66
		c-15.26,0.14-30.43-0.28-45.68,0.17c-0.36,12.69-0.04,25.38-0.15,38.08c0.19,15.6-12.15,12.76-23.54,12.99
		c-0.79-18.86-0.04-37.7-0.32-56.58c0-2.92,0.47-5.68,1.87-8.25c2.53-4.65,6.29-7.34,11.74-7.33c19.15,0,38.31,0.04,57.46-0.01
		C102.43,1.43,105.27,45.62,74.47,51.94z"/>
	<path class="st0" d="M309.5,0.14c5.12,0,10.24-0.17,15.35,0.03c16.15,0.64,30.27,12.98,33.24,28.87
		c4.57,22.57-13.34,43.52-36.18,43.16c-8.45,0.12-16.89,0.07-25.34,0.04c-19.92-0.08-35.69-14.5-36.71-34.42
		c-1.11-21.59,15.94-36.8,33.23-37.61c5.46-0.26,10.94-0.04,16.41-0.04C309.5,0.16,309.5,0.15,309.5,0.14z M309.55,51.63
		c3.69,0,7.39,0.15,11.07-0.03c10.91-0.53,17.95-11.64,13.62-21.58c-2.75-6.32-7.9-9.35-14.69-9.46
		c-6.78-0.12-13.57-0.09-20.35,0.02c-9.5-0.23-17.34,8-16.01,17.66c0.93,7.31,7.27,13.06,14.94,13.37
		C301.92,51.76,305.74,51.63,309.55,51.63z"/>
	<path class="st0" d="M262.34,72.08c-14.59,0.42-28.97,0.08-43.54,0.16c-17.95-0.05-32.51-11.6-35.91-29.17
		c-4.69-24.25,14.16-42.64,33.24-42.91c15.38,0,30.76-0.48,46.11,0.18c0.82,10.74,0.62,20.89-13.21,20.31
		c-9.4,0.04-18.8-0.05-28.19,0.04c-20.75,0.45-20.5,30.36-0.02,30.92c11.15,0.35,22.41-0.44,33.52,0.32
		c4.54,1.04,7.69,4.82,7.97,9.78C262.49,65.03,262.34,68.36,262.34,72.08z"/>
	<path class="st0" d="M86.32,0.33c7.05,0,13.51-0.51,19.85,0.13c8.15,0.81,14.71,5.13,19.91,11.44c4.68,5.68,9.34,11.39,14.2,17.32
		c12.83-12.67,18.5-29.26,39.48-29.14c4.83,0.01,9.65,0,15.11,0c-12.85,16.4-26.58,31.79-39.87,47.8c-1.41,1.66-2.08,3.26-2.03,5.43
		c0.16,6.3,0.01,12.37,0.04,18.71c-8.37,0-16.39,0-24.91,0c0.03-6.31-0.1-12.55,0.04-18.84c0.05-2.05-0.61-3.58-1.92-5.13
		C112.92,32.07,99.32,16.57,86.32,0.33z"/>
</g>
</svg>
