<svg width="16" height="16" viewBox="0 0 16 16" fill="none" xmlns="http://www.w3.org/2000/svg">
<mask id="mask0_1917_11670" style="mask-type:alpha" maskUnits="userSpaceOnUse" x="2" y="0" width="12" height="16">
<path fill-rule="evenodd" clip-rule="evenodd" d="M4.33333 12C4.06812 12 3.81376 12.1053 3.62623 12.2929C3.43869 12.4804 3.33333 12.7347 3.33333 13C3.33333 13.3681 3.03486 13.6666 2.66667 13.6666C2.29848 13.6666 2 13.3681 2 13C2 12.3811 2.24583 11.7876 2.68342 11.35C3.121 10.9125 3.71449 10.6666 4.33333 10.6666H13.3333C13.7015 10.6666 14 10.9651 14 11.3333C14 11.7015 13.7015 12 13.3333 12H4.33333Z" fill="black"/>
<path fill-rule="evenodd" clip-rule="evenodd" d="M4.33333 1.99996C4.06812 1.99996 3.81376 2.10532 3.62623 2.29285C3.43869 2.48039 3.33333 2.73474 3.33333 2.99996V13C3.33333 13.2652 3.43869 13.5195 3.62623 13.7071C3.81376 13.8946 4.06812 14 4.33333 14H12.6667V1.99996H4.33333ZM4.33333 0.666626H13.3333C13.7015 0.666626 14 0.965103 14 1.33329V14.6666C14 15.0348 13.7015 15.3333 13.3333 15.3333H4.33333C3.71449 15.3333 3.121 15.0875 2.68342 14.6499C2.24583 14.2123 2 13.6188 2 13V2.99996C2 2.38112 2.24583 1.78763 2.68342 1.35004C3.121 0.912459 3.71449 0.666626 4.33333 0.666626Z" fill="black"/>
</mask>
<g mask="url(#mask0_1917_11670)">
<rect width="16" height="16" fill="#ED1B2F"/>
</g>
</svg>
