<svg width="16" height="18" viewBox="0 0 16 18" fill="none" xmlns="http://www.w3.org/2000/svg">
<mask id="mask0_1917_9618" style="mask-type:alpha" maskUnits="userSpaceOnUse" x="1" y="3" width="15" height="14">
<path fill-rule="evenodd" clip-rule="evenodd" d="M15.1381 4.19526C15.3985 4.45561 15.3985 4.87772 15.1381 5.13807L8.47145 11.8047C8.2111 12.0651 7.78899 12.0651 7.52864 11.8047L5.52864 9.80474C5.26829 9.54439 5.26829 9.12228 5.52864 8.86193C5.78899 8.60158 6.2111 8.60158 6.47145 8.86193L8.00004 10.3905L14.1953 4.19526C14.4557 3.93491 14.8778 3.93491 15.1381 4.19526Z" fill="black"/>
<path fill-rule="evenodd" clip-rule="evenodd" d="M3.33337 4.66659C3.15656 4.66659 2.98699 4.73682 2.86197 4.86185C2.73695 4.98687 2.66671 5.15644 2.66671 5.33325V14.6666C2.66671 14.8434 2.73695 15.013 2.86197 15.138C2.98699 15.263 3.15656 15.3333 3.33337 15.3333H12.6667C12.8435 15.3333 13.0131 15.263 13.1381 15.138C13.2631 15.013 13.3334 14.8434 13.3334 14.6666V9.99992C13.3334 9.63173 13.6319 9.33325 14 9.33325C14.3682 9.33325 14.6667 9.63173 14.6667 9.99992V14.6666C14.6667 15.197 14.456 15.7057 14.0809 16.0808C13.7058 16.4559 13.1971 16.6666 12.6667 16.6666H3.33337C2.80294 16.6666 2.29423 16.4559 1.91916 16.0808C1.54409 15.7057 1.33337 15.197 1.33337 14.6666V5.33325C1.33337 4.80282 1.54409 4.29411 1.91916 3.91904C2.29423 3.54397 2.80294 3.33325 3.33337 3.33325H10.6667C11.0349 3.33325 11.3334 3.63173 11.3334 3.99992C11.3334 4.36811 11.0349 4.66659 10.6667 4.66659H3.33337Z" fill="black"/>
</mask>
<g mask="url(#mask0_1917_9618)">
<rect y="2" width="24" height="24" fill="#1B4245"/>
</g>
</svg>
