<svg width="17" height="16" viewBox="0 0 17 16" fill="none" xmlns="http://www.w3.org/2000/svg">
<mask id="mask0_1917_11678" style="mask-type:alpha" maskUnits="userSpaceOnUse" x="1" y="1" width="15" height="14">
<path fill-rule="evenodd" clip-rule="evenodd" d="M2.6237 9.33337C2.99189 9.33337 3.29036 9.63185 3.29036 10V12.6667C3.29036 12.8435 3.3606 13.0131 3.48563 13.1381C3.61065 13.2631 3.78022 13.3334 3.95703 13.3334H13.2904C13.4672 13.3334 13.6367 13.2631 13.7618 13.1381C13.8868 13.0131 13.957 12.8435 13.957 12.6667V10C13.957 9.63185 14.2555 9.33337 14.6237 9.33337C14.9919 9.33337 15.2904 9.63185 15.2904 10V12.6667C15.2904 13.1971 15.0797 13.7058 14.7046 14.0809C14.3295 14.456 13.8208 14.6667 13.2904 14.6667H3.95703C3.4266 14.6667 2.91789 14.456 2.54282 14.0809C2.16774 13.7058 1.95703 13.1971 1.95703 12.6667V10C1.95703 9.63185 2.25551 9.33337 2.6237 9.33337Z" fill="black"/>
<path fill-rule="evenodd" clip-rule="evenodd" d="M4.8188 6.19526C5.07915 5.93491 5.50126 5.93491 5.76161 6.19526L8.62354 9.05719L11.4855 6.19526C11.7458 5.93491 12.1679 5.93491 12.4283 6.19526C12.6886 6.45561 12.6886 6.87772 12.4283 7.13807L9.09494 10.4714C8.83459 10.7318 8.41248 10.7318 8.15213 10.4714L4.8188 7.13807C4.55845 6.87772 4.55845 6.45561 4.8188 6.19526Z" fill="black"/>
<path fill-rule="evenodd" clip-rule="evenodd" d="M8.6237 1.33337C8.99189 1.33337 9.29036 1.63185 9.29036 2.00004V10C9.29036 10.3682 8.99189 10.6667 8.6237 10.6667C8.25551 10.6667 7.95703 10.3682 7.95703 10V2.00004C7.95703 1.63185 8.25551 1.33337 8.6237 1.33337Z" fill="black"/>
</mask>
<g mask="url(#mask0_1917_11678)">
<rect x="0.623535" width="16" height="16" fill="#ED1B2F"/>
</g>
</svg>
