<svg width="366" height="86" viewBox="0 0 366 86" fill="none" xmlns="http://www.w3.org/2000/svg">
<g clip-path="url(#clip0_2304_20445)">
<path d="M10.624 10.288V13.776H15.264C15.296 14.096 15.328 14.416 15.328 14.48C15.328 17.424 14.528 18.032 10.72 18.032C8.128 18.032 6.976 17.648 6.528 16.592C6.144 15.728 6.144 15.696 6.08 10.992C6.112 7.088 6.144 6.928 6.56 6.096C7.104 4.976 8.192 4.624 10.976 4.624C14.432 4.624 14.976 4.976 15.168 7.184H20.16C20.064 3.984 19.456 2.384 17.952 1.52C16.512 0.688 15.264 0.495998 11.456 0.495998C8.48 0.495998 6.944 0.623999 5.888 0.911999C3.744 1.52 2.272 2.864 1.664 4.848C1.184 6.32 1.056 8.08 1.056 13.328C1.056 18.096 2.112 20.304 4.896 21.488C6.144 22 7.456 22.16 10.624 22.16C15.648 22.16 17.408 21.776 18.72 20.4C19.872 19.152 20.224 17.808 20.224 14.512C20.224 13.008 20.192 11.6 20.16 10.288H10.624ZM22.9795 22H27.9075V15.632H32.8995C34.8515 15.568 35.7475 16.528 35.6835 18.672V22H40.6755V17.744C40.7075 15.12 39.4595 13.712 36.9315 13.552V13.392C40.1955 12.656 40.8675 11.568 40.8675 7.12C40.8675 3.952 40.1315 2.32 38.2435 1.392C37.2515 0.879999 35.8115 0.655998 33.6035 0.655998H22.9795V22ZM27.9075 11.44V4.88H33.0275C35.3955 4.88 35.8435 5.392 35.8435 7.952C35.8435 10.8 35.3315 11.44 33.0275 11.44H27.9075ZM48.6575 4.72H58.7695V0.655998H43.7295V22H58.8975V17.936H48.6575V12.88H58.1615V9.392H48.6575V4.72ZM75.1858 18.128L76.4018 22H81.4578L74.6098 0.655998H67.2178L60.4657 22H65.5858L66.7698 18.128H75.1858ZM74.1618 14.512H67.8578L70.9938 4.368L74.1618 14.512ZM90.5363 4.912H96.5843V0.655998H79.8483V4.912H85.6083V22H90.5363V4.912ZM115.693 4.912H121.741V0.655998H105.005V4.912H110.765V22H115.693V4.912ZM142.288 0.655998H137.36V9.04H128.72V0.655998H123.792V22H128.72V13.264H137.36V22H142.288V0.655998ZM150.564 0.655998H145.636V22H150.564V0.655998ZM174.743 0.655998H169.847V11.024C169.847 13.296 169.847 13.584 169.975 15.984L170.039 17.648H169.847L169.111 15.888C167.927 12.912 167.863 12.752 166.871 10.544L162.423 0.655998H154.167V22H158.999V11.664C158.999 10.064 158.935 7.824 158.807 4.88H158.999L159.671 6.576C160.855 9.68 161.143 10.384 161.719 11.664L166.423 22H174.743V0.655998ZM187.062 10.288V13.776H191.702C191.734 14.096 191.766 14.416 191.766 14.48C191.766 17.424 190.966 18.032 187.158 18.032C184.566 18.032 183.414 17.648 182.966 16.592C182.582 15.728 182.582 15.696 182.518 10.992C182.55 7.088 182.582 6.928 182.998 6.096C183.542 4.976 184.63 4.624 187.414 4.624C190.87 4.624 191.414 4.976 191.606 7.184H196.598C196.502 3.984 195.894 2.384 194.39 1.52C192.95 0.688 191.702 0.495998 187.894 0.495998C184.918 0.495998 183.382 0.623999 182.326 0.911999C180.182 1.52 178.71 2.864 178.102 4.848C177.622 6.32 177.493 8.08 177.493 13.328C177.493 18.096 178.549 20.304 181.334 21.488C182.582 22 183.894 22.16 187.062 22.16C192.086 22.16 193.846 21.776 195.158 20.4C196.31 19.152 196.662 17.808 196.662 14.512C196.662 13.008 196.63 11.6 196.598 10.288H187.062ZM215.864 7.12C215.896 6.768 215.896 6.384 215.896 6.256C215.896 4.432 215.512 3.152 214.712 2.192C213.624 0.911999 211.864 0.495998 207.512 0.495998C203.544 0.495998 201.816 0.815998 200.44 1.776C199.256 2.64 198.712 4.208 198.712 6.768C198.712 9.808 199.384 11.376 201.048 12.208C202.136 12.752 203.128 12.912 206.616 13.136C210.488 13.392 210.488 13.392 211 13.808C211.416 14.096 211.576 14.672 211.576 15.6C211.576 16.72 211.352 17.392 210.904 17.744C210.36 18.16 209.88 18.256 207.928 18.256C205.016 18.256 204.568 18.192 204.056 17.776C203.576 17.328 203.384 16.688 203.384 15.536V15.152H198.68C198.68 17.808 198.904 18.928 199.576 19.952C200.632 21.648 202.488 22.16 207.704 22.16C211.992 22.16 213.688 21.808 215.032 20.56C216.056 19.6 216.44 18.16 216.44 15.408C216.44 12.592 215.96 11.344 214.584 10.448C213.496 9.744 212.312 9.488 208.888 9.296C205.432 9.072 205.432 9.072 204.984 8.976C204.024 8.72 203.64 8.112 203.64 6.8C203.64 4.752 204.344 4.304 207.672 4.304C210.68 4.304 211.16 4.688 211.16 7.12H215.864ZM245.726 0.655998H240.798V9.04H232.158V0.655998H227.23V22H232.158V13.264H240.798V22H245.726V0.655998ZM262.342 18.128L263.558 22H268.614L261.766 0.655998H254.374L247.622 22H252.742L253.926 18.128H262.342ZM261.318 14.512H255.014L258.15 4.368L261.318 14.512ZM270.292 22H275.22V15.824H279.284C281.812 15.76 282.484 15.76 282.676 15.728C283.956 15.696 285.14 15.248 286.068 14.48C287.316 13.456 287.86 11.632 287.86 8.4C287.86 5.68 287.604 4.304 286.836 3.056C285.94 1.648 284.276 0.783998 282.228 0.688C281.524 0.655998 281.524 0.655998 278.772 0.655998H270.292V22ZM275.22 11.568V4.72H279.54C280.916 4.72 281.14 4.752 281.652 4.944C282.58 5.328 282.836 6.064 282.836 8.24C282.836 11.152 282.388 11.568 279.316 11.568H275.22ZM290.136 22H295.064V15.824H299.128C301.656 15.76 302.328 15.76 302.52 15.728C303.8 15.696 304.984 15.248 305.912 14.48C307.16 13.456 307.704 11.632 307.704 8.4C307.704 5.68 307.448 4.304 306.68 3.056C305.784 1.648 304.12 0.783998 302.072 0.688C301.368 0.655998 301.368 0.655998 298.616 0.655998H290.136V22ZM295.064 11.568V4.72H299.384C300.76 4.72 300.984 4.752 301.496 4.944C302.424 5.328 302.68 6.064 302.68 8.24C302.68 11.152 302.232 11.568 299.16 11.568H295.064ZM314.908 4.72H325.02V0.655998H309.98V22H325.148V17.936H314.908V12.88H324.412V9.392H314.908V4.72ZM348.712 0.655998H343.816V11.024C343.816 13.296 343.816 13.584 343.944 15.984L344.008 17.648H343.816L343.08 15.888C341.896 12.912 341.832 12.752 340.84 10.544L336.392 0.655998H328.136V22H332.968V11.664C332.968 10.064 332.904 7.824 332.776 4.88H332.968L333.64 6.576C334.824 9.68 335.112 10.384 335.688 11.664L340.392 22H348.712V0.655998Z" fill="white"/>
<path d="M119.84 27.656H114.88L112.512 37.576C112.064 39.464 111.936 40.072 111.36 43.016L111.008 44.84H110.848L110.272 42.312C109.952 40.744 109.664 39.56 109.152 37.608L106.592 27.656H101.248L98.592 37.576C98.176 39.208 97.76 40.712 97.664 41.224C97.536 41.832 97.376 42.44 97.248 43.016L96.832 44.84H96.64L96.32 43.016C95.744 39.88 95.648 39.464 95.232 37.576L92.928 27.656H87.968L93.024 49H100.064L102.368 40.232C102.912 38.184 102.976 37.928 103.456 35.72L103.776 34.216H103.968L104.288 35.72C104.768 38.152 104.8 38.216 105.28 40.232L107.488 49H114.624L119.84 27.656ZM140.257 27.656H135.329V36.04H126.689V27.656H121.761V49H126.689V40.264H135.329V49H140.257V27.656ZM148.814 31.72H158.926V27.656H143.886V49H159.054V44.936H148.814V39.88H158.318V36.392H148.814V31.72ZM182.618 27.656H177.722V38.024C177.722 40.296 177.722 40.584 177.85 42.984L177.914 44.648H177.722L176.986 42.888C175.802 39.912 175.738 39.752 174.746 37.544L170.298 27.656H162.042V49H166.874V38.664C166.874 37.064 166.81 34.824 166.682 31.88H166.874L167.546 33.576C168.73 36.68 169.018 37.384 169.594 38.664L174.298 49H182.618V27.656ZM212.726 27.656H207.03L204.438 32.52C204.022 33.256 203.83 33.672 202.998 35.336L202.518 36.296H202.39L201.942 35.336C201.078 33.576 200.854 33.128 200.534 32.52L197.974 27.656H192.342L199.958 41.224V49H204.886V41.224L212.726 27.656ZM223.009 27.496C221.057 27.496 219.265 27.624 218.401 27.816C216.673 28.168 215.169 29.096 214.337 30.312C213.281 31.816 213.025 33.64 213.025 39.208C213.025 41.512 213.089 42.6 213.249 43.56C213.633 45.768 214.497 47.144 216.193 48.104C217.537 48.872 219.169 49.16 222.529 49.16C224.481 49.16 226.209 49.032 227.137 48.84C229.057 48.424 230.497 47.496 231.329 46.152C232.257 44.584 232.481 43.144 232.481 38.312C232.481 35.368 232.417 33.96 232.225 33C231.809 30.6 230.657 29.096 228.673 28.232C227.425 27.688 226.017 27.496 223.009 27.496ZM222.657 31.72C225.217 31.72 226.049 31.88 226.593 32.52C227.361 33.416 227.457 33.992 227.457 38.248C227.457 41.512 227.393 42.28 227.041 43.24C226.529 44.584 225.729 44.936 223.073 44.936C220.321 44.936 219.425 44.776 218.881 44.136C218.209 43.336 218.049 42.408 218.049 38.984C218.049 33.992 218.177 33.224 219.041 32.456C219.681 31.88 220.417 31.72 222.657 31.72ZM248.571 27.656V41.608C248.571 44.488 248.027 44.936 244.571 44.936C240.859 44.936 240.251 44.52 240.251 41.832V27.656H235.323V41.832C235.323 45.832 235.995 47.368 238.299 48.36C239.611 48.968 241.179 49.16 244.475 49.16C248.059 49.16 249.371 48.968 250.747 48.232C252.187 47.464 253.147 46.056 253.307 44.392C253.403 43.72 253.499 42.056 253.499 41.48V27.656H248.571ZM261.01 27.656H256.914V31.976H258.482C258.514 32.104 258.514 32.328 258.514 32.36C258.514 33.544 258.098 33.864 256.626 33.864V35.784C256.914 35.816 257.202 35.816 257.298 35.816C258.962 35.816 260.114 35.368 260.594 34.472C260.946 33.832 261.01 33.352 261.01 31.688V27.656ZM264.573 49H269.501V42.632H274.493C276.445 42.568 277.341 43.528 277.277 45.672V49H282.269V44.744C282.301 42.12 281.053 40.712 278.525 40.552V40.392C281.789 39.656 282.461 38.568 282.461 34.12C282.461 30.952 281.725 29.32 279.837 28.392C278.845 27.88 277.405 27.656 275.197 27.656H264.573V49ZM269.501 38.44V31.88H274.621C276.989 31.88 277.437 32.392 277.437 34.952C277.437 37.8 276.925 38.44 274.621 38.44H269.501ZM290.251 31.72H300.363V27.656H285.323V49H300.491V44.936H290.251V39.88H299.755V36.392H290.251V31.72Z" fill="white"/>
<path d="M174.192 76H179.12L180.496 69.632H185.456C187.088 69.632 187.76 70.144 187.76 71.392C187.76 71.776 187.728 72.128 187.6 72.672L186.896 76H191.888L192.784 71.744C192.944 71.072 192.976 70.784 192.976 70.336C192.976 68.608 191.984 67.68 189.936 67.552L189.968 67.392C192.048 66.944 192.912 66.496 193.68 65.44C194.608 64.128 195.568 60.672 195.568 58.56C195.568 57.12 194.96 56 193.808 55.36C192.912 54.88 191.568 54.656 189.36 54.656H178.736L174.192 76ZM181.36 65.44L182.768 58.88H187.856C189.712 58.88 190.256 59.232 190.256 60.416C190.256 61.024 189.808 63.168 189.52 63.776C189.008 64.992 188.176 65.44 186.48 65.44H181.36ZM216.795 54.656H211.131L207.483 59.52C206.907 60.288 206.619 60.672 205.435 62.336L204.763 63.296H204.603C204.091 61.344 203.771 60.192 203.579 59.52L202.043 54.656H196.411L201.147 68.224L199.483 76H204.411L206.075 68.224L216.795 54.656ZM226.937 68.16C226.329 71.456 225.689 71.936 222.041 71.936C219.225 71.936 218.361 71.456 218.361 69.888C218.361 68.608 219.545 62.848 220.185 61.024C220.793 59.232 221.849 58.72 224.889 58.72C227.641 58.72 228.345 59.04 228.345 60.32C228.345 60.704 228.313 61.024 228.089 62.048H232.985C233.369 60.064 233.465 59.328 233.465 58.528C233.465 57.184 232.985 56.032 232.153 55.456C230.969 54.656 230.009 54.496 226.585 54.496C222.265 54.496 220.697 54.752 218.969 55.68C216.633 56.992 215.513 58.72 214.617 62.624C213.913 65.504 213.145 70.048 213.145 71.136C213.145 72.864 213.785 74.304 214.873 75.104C215.993 75.936 217.209 76.16 220.569 76.16C225.177 76.16 226.361 76 228.057 75.072C230.105 73.92 230.841 72.672 231.673 68.832C231.705 68.736 231.737 68.48 231.833 68.16H226.937ZM246.55 54.496C243.094 54.496 241.43 54.72 239.894 55.392C237.654 56.416 236.406 57.76 235.478 60.256C234.55 62.72 233.238 69.056 233.238 70.976C233.238 73.024 234.006 74.432 235.51 75.264C236.79 75.936 238.166 76.16 241.366 76.16C244.63 76.16 246.454 75.904 247.99 75.232C250.102 74.304 251.382 72.832 252.342 70.304C253.142 68.16 254.486 61.536 254.486 59.744C254.486 57.504 253.654 56.064 251.894 55.232C250.774 54.688 249.398 54.496 246.55 54.496ZM245.206 58.72C247.158 58.72 247.798 58.784 248.374 59.072C249.014 59.36 249.302 59.936 249.302 60.96C249.302 61.856 248.406 66.4 247.894 68.224C246.998 71.328 246.134 71.936 242.742 71.936C239.062 71.936 238.422 71.616 238.422 69.728C238.422 68.96 238.614 67.808 239.254 64.896C239.99 61.536 240.214 60.864 240.79 60.064C241.59 58.976 242.454 58.72 245.206 58.72ZM262.192 76H267.12L268.496 69.632H273.456C275.088 69.632 275.76 70.144 275.76 71.392C275.76 71.776 275.728 72.128 275.6 72.672L274.896 76H279.888L280.784 71.744C280.944 71.072 280.976 70.784 280.976 70.336C280.976 68.608 279.984 67.68 277.936 67.552L277.968 67.392C280.048 66.944 280.912 66.496 281.68 65.44C282.608 64.128 283.568 60.672 283.568 58.56C283.568 57.12 282.96 56 281.808 55.36C280.912 54.88 279.568 54.656 277.36 54.656H266.736L262.192 76ZM269.36 65.44L270.768 58.88H275.856C277.712 58.88 278.256 59.232 278.256 60.416C278.256 61.024 277.808 63.168 277.52 63.776C277.008 64.992 276.176 65.44 274.48 65.44H269.36ZM291.644 58.72H301.724L302.588 54.656H287.58L283.036 76H298.204L299.068 71.936H288.828L289.916 66.88H299.42L300.156 63.392H290.652L291.644 58.72ZM314.48 72.128L314.864 76H319.92L317.584 54.656H310.224L298.928 76H304.048L306.064 72.128H314.48ZM314.192 68.512H307.92L313.2 58.368L314.192 68.512ZM321.598 76H332.35C336.702 76 339.23 74.784 340.894 71.872C341.534 70.752 341.918 69.568 342.59 66.688C343.774 61.408 343.774 61.376 343.774 59.872C343.774 57.44 342.494 55.584 340.382 55.04C339.454 54.816 338.142 54.656 336.99 54.656H326.142L321.598 76ZM327.422 71.776L330.174 58.944H335.486C337.662 58.944 338.526 59.584 338.526 61.152C338.526 62.528 337.566 67.2 336.894 69.056C336.222 70.944 334.91 71.776 332.606 71.776H327.422ZM364.92 54.656H359.256L355.608 59.52C355.032 60.288 354.744 60.672 353.56 62.336L352.888 63.296H352.728C352.216 61.344 351.896 60.192 351.704 59.52L350.168 54.656H344.536L349.272 68.224L347.608 76H352.536L354.2 68.224L364.92 54.656ZM363.77 71.616H359.674L358.746 76H362.842L363.77 71.616Z" fill="white"/>
</g>
<defs>
<clipPath id="clip0_2304_20445">
<rect width="366" height="86" fill="white"/>
</clipPath>
</defs>
</svg>
