<svg width="16" height="16" viewBox="0 0 16 16" fill="none" xmlns="http://www.w3.org/2000/svg">
<path d="M7.99984 15.3333C3.93317 15.3333 0.666504 12.0666 0.666504 7.99996C0.666504 3.93329 3.93317 0.666626 7.99984 0.666626C12.0665 0.666626 15.3332 3.93329 15.3332 7.99996C15.3332 12.0666 12.0665 15.3333 7.99984 15.3333ZM7.99984 1.99996C4.6665 1.99996 1.99984 4.66663 1.99984 7.99996C1.99984 11.3333 4.6665 14 7.99984 14C11.3332 14 13.9998 11.3333 13.9998 7.99996C13.9998 4.66663 11.3332 1.99996 7.99984 1.99996Z" fill="#ED1B2F"/>
<path d="M7.99984 8.66663C7.59984 8.66663 7.33317 8.39996 7.33317 7.99996V5.33329C7.33317 4.93329 7.59984 4.66663 7.99984 4.66663C8.39984 4.66663 8.6665 4.93329 8.6665 5.33329V7.99996C8.6665 8.39996 8.39984 8.66663 7.99984 8.66663Z" fill="#ED1B2F"/>
<path d="M7.99984 11.3333C7.79984 11.3333 7.6665 11.2666 7.53317 11.1333C7.39984 11 7.33317 10.8666 7.33317 10.6666C7.33317 10.6 7.33317 10.4666 7.39984 10.4C7.4665 10.3333 7.4665 10.2666 7.53317 10.2C7.73317 9.99996 7.99984 9.93329 8.2665 10.0666C8.33317 10.0666 8.33317 10.0666 8.39984 10.1333C8.39984 10.1333 8.4665 10.2 8.53317 10.2C8.59984 10.2666 8.6665 10.3333 8.6665 10.4C8.6665 10.4666 8.6665 10.6 8.6665 10.6666C8.6665 10.7333 8.6665 10.8666 8.59984 10.9333C8.53317 11 8.53317 11.0666 8.4665 11.1333C8.33317 11.2666 8.19984 11.3333 7.99984 11.3333Z" fill="#ED1B2F"/>
</svg>
