<svg width="84" height="84" viewBox="0 0 84 84" fill="none" xmlns="http://www.w3.org/2000/svg">
<path d="M78 42C78 61.8823 61.8823 78 42 78V84C65.196 84 84 65.196 84 42H78ZM42 78C22.1177 78 6 61.8823 6 42H0C0 65.196 18.804 84 42 84V78ZM6 42C6 22.1177 22.1177 6 42 6V0C18.804 0 0 18.804 0 42H6ZM42 6C61.8823 6 78 22.1177 78 42H84C84 18.804 65.196 0 42 0V6ZM56.3333 42C56.3333 49.9161 49.9161 56.3333 42 56.3333V62.3333C53.2298 62.3333 62.3333 53.2298 62.3333 42H56.3333ZM42 56.3333C34.0839 56.3333 27.6667 49.9161 27.6667 42H21.6667C21.6667 53.2298 30.7702 62.3333 42 62.3333V56.3333ZM27.6667 42C27.6667 34.0839 34.0839 27.6667 42 27.6667V21.6667C30.7702 21.6667 21.6667 30.7702 21.6667 42H27.6667ZM42 27.6667C49.9161 27.6667 56.3333 34.0839 56.3333 42H62.3333C62.3333 30.7702 53.2298 21.6667 42 21.6667V27.6667ZM67.4558 12.3015L52.1352 27.6222L56.3778 31.8648L71.6985 16.5442L67.4558 12.3015ZM52.1352 56.3778L67.4558 71.6985L71.6985 67.4558L56.3778 52.1352L52.1352 56.3778ZM31.8648 27.6222L16.5442 12.3015L12.3015 16.5442L27.6222 31.8648L31.8648 27.6222ZM27.6222 52.1352L12.3015 67.4558L16.5442 71.6985L31.8648 56.3778L27.6222 52.1352Z" fill="white"/>
</svg>
