<svg width="32" height="26" viewBox="0 0 32 26" fill="none" xmlns="http://www.w3.org/2000/svg">
<path fill-rule="evenodd" clip-rule="evenodd" d="M16 0.200195C10.848 0.200195 4.16106 1.49681 4.16106 1.49681L4.14423 1.51613C1.79774 1.89308 0 3.91838 0 6.38146V13.799V19.6165C0.00473015 22.049 1.76652 24.1154 4.15625 24.4939L4.16106 24.5012C4.16106 24.5012 10.848 25.8002 16 25.8002C21.152 25.8002 27.8389 24.5012 27.8389 24.5012C30.2338 24.121 31.9974 22.0516 32 19.6189V13.8014V6.38146C31.9965 3.95052 30.2344 1.8827 27.8438 1.50406C27.8389 1.49681 21.152 0.200195 16 0.200195ZM12.8 7.4002L22.4 13.0002L12.8 18.6002V7.4002Z" fill="white"/>
</svg>
